<svg width="100" height="100" viewBox="0 0 100 100" fill="none" xmlns="http://www.w3.org/2000/svg">
<rect width="100" height="100" fill="#E547FF"/>
<mask id="mask0_522_821" style="mask-type:alpha" maskUnits="userSpaceOnUse" x="0" y="0" width="100" height="100">
<rect width="100" height="100" fill="#03E378"/>
</mask>
<g mask="url(#mask0_522_821)">
<path d="M30.7522 73.721C30.8926 73.4516 31.1768 73.3102 31.4806 73.3102H69C69 73.3102 71 76.8102 71 85.3102C71 93.8102 69 97.3102 69 97.3102H31.4806C31.1768 97.3102 30.8926 97.1688 30.7522 96.8994C30.2169 95.8716 29 92.7204 29 85.3102C29 77.9 30.2169 74.7488 30.7522 73.721Z" fill="#35F3FF" stroke="black" stroke-linejoin="round"/>
<path d="M30.7526 76.6178C30.8976 76.4091 31.1414 76.3102 31.3954 76.3102H69C69 76.3102 71 78.9352 71 85.3102C71 91.6852 69 94.3102 69 94.3102H31.3954C31.1414 94.3102 30.8976 94.2113 30.7526 94.0026C30.2174 93.2324 29 90.8692 29 85.3102C29 79.7512 30.2175 77.388 30.7526 76.6178Z" fill="white" fill-opacity="0.44"/>
<path d="M30.5 71.3102L32 72.8102L31 73.3102L30 75.8102L29 82.3102V90.8102L30.5 96.8102L32 97.3102V98.3102L30.5 99.3102L29.5 98.8102L28 95.8102L27.5 92.3102L27 87.8102V82.3102L27.5 78.8102L28 74.8102L29 72.3102L30.5 71.3102Z" fill="#627B94"/>
<path d="M28.5 71.3102H30L28.5 73.8102L28 76.8102L27 82.8102L27.5 91.3102L28.5 96.8102L29 98.3102L30.5 99.3102H28.5L14.5 98.8102L12.5 96.3102L11.5 92.8102L11 88.3102V82.8102L11.5 79.3102L12 75.3102L13.5 72.8102L15.5 71.3102H28.5Z" fill="#495B6D"/>
<path d="M21 71.3102L20.5 73.3102L18.5 80.3102V86.8102L19 93.3102L21 98.3102V99.3102H18.5L17.5 97.3102L16.5 94.3102L15.5 89.8102V84.3102L16 80.8102L16.5 76.8102L17.5 73.3102L18.5 71.3102H21Z" fill="#35F3FF"/>
<path d="M13 73.3102H28.5L27.5 78.3102H11.5L13 73.3102Z" fill="white" fill-opacity="0.44"/>
<path d="M12.5001 74.3102H28V76.3102H11.8799L12.5001 74.3102Z" fill="white" fill-opacity="0.44"/>
<path d="M32.3038 73.3102C31.777 72.0406 31.1598 71.3102 30.5 71.3102C28.567 71.3102 27 77.5782 27 85.3102C27 93.0422 28.567 99.3102 30.5 99.3102C31.1494 99.3102 31.7574 98.6028 32.2787 97.3702" stroke="black"/>
<path d="M30.5 71.3102H18.5C18.5 71.3102 15.5 74.8102 15.5 85.3102C15.5 95.8102 18.5 99.3102 18.5 99.3102H30.5" stroke="black" stroke-linecap="round" stroke-linejoin="round"/>
<path d="M21.5 71.3102C21.5 71.3102 18.5 74.8102 18.5 85.3102C18.5 95.8102 21.5 99.3102 21.5 99.3102" stroke="black" stroke-linecap="round" stroke-linejoin="round"/>
<path d="M25 71.3102H15.5L14 72.3102C14 72.3102 11 74.8102 11 85.3102C11 95.8102 14 98.3102 14 98.3102L15.5 99.3102H25" stroke="black" stroke-linecap="round" stroke-linejoin="round"/>
<path d="M69.5 99.3102L68 97.8102L69 97.3102L70 94.8102L71 88.3102L71 79.8102L69.5 73.8102L68 73.3102L68 72.3102L69.5 71.3102L70.5 71.8102L72 74.8102L72.5 78.3102L73 82.8102L73 88.3102L72.5 91.8102L72 95.8102L71 98.3102L69.5 99.3102Z" fill="#627B94"/>
<path d="M71.5 99.3102L70 99.3102L71.5 96.8102L72 93.8102L73 87.8102L72.5 79.3102L71.5 73.8102L71 72.3102L69.5 71.3102L71.5 71.3102L85.5 71.8102L87.5 74.3102L88.5 77.8102L89 82.3102L89 87.8102L88.5 91.3102L88 95.3102L86.5 97.8102L84.5 99.3102L71.5 99.3102Z" fill="#495B6D"/>
<path d="M79 99.3102L79.5 97.3102L81.5 90.3102L81.5 83.8102L81 77.3102L79 72.3102L79 71.3102L81.5 71.3102L82.5 73.3102L83.5 76.3102L84.5 80.8102L84.5 86.3102L84 89.8102L83.5 93.8102L82.5 97.3102L81.5 99.3102L79 99.3102Z" fill="#35F3FF"/>
<path d="M71 73.3102H87L88.5 78.3102H72.5L71 73.3102Z" fill="white" fill-opacity="0.44"/>
<path d="M72.0001 74.3102H87.5L88 76.3102H72L72.0001 74.3102Z" fill="white" fill-opacity="0.44"/>
<path d="M67.6962 97.3102C68.223 98.5798 68.8402 99.3102 69.5 99.3102C71.433 99.3102 73 93.0422 73 85.3102C73 77.5782 71.433 71.3102 69.5 71.3102C68.8506 71.3102 68.2426 72.0176 67.7213 73.2502" stroke="black"/>
<path d="M69.5 99.3102L81.5 99.3102C81.5 99.3102 84.5 95.8102 84.5 85.3102C84.5 74.8102 81.5 71.3102 81.5 71.3102L69.5 71.3102" stroke="black" stroke-linecap="round" stroke-linejoin="round"/>
<path d="M78.5 99.3102C78.5 99.3102 81.5 95.8102 81.5 85.3102C81.5 74.8102 78.5 71.3102 78.5 71.3102" stroke="black" stroke-linecap="round" stroke-linejoin="round"/>
<path d="M75 99.3102L84.5 99.3102L86 98.3102C86 98.3102 89 95.8102 89 85.3102C89 74.8102 86 72.3102 86 72.3102L84.5 71.3102L75 71.3102" stroke="black" stroke-linecap="round" stroke-linejoin="round"/>
<path d="M30.7522 73.721C30.8926 73.4516 31.1768 73.3102 31.4806 73.3102H69C69 73.3102 71 76.8102 71 85.3102C71 93.8102 69 97.3102 69 97.3102H31.4806C31.1768 97.3102 30.8926 97.1688 30.7522 96.8994C30.2169 95.8716 29 92.7204 29 85.3102C29 77.9 30.2169 74.7488 30.7522 73.721Z" stroke="black" stroke-linejoin="round"/>
<path d="M71.2179 44.4816L69.9568 47.2739L69.3878 53.7692L71.0803 54.6793L75.1996 50.4961L76.0618 47.8297L75.3273 46.7919L73.9063 45.3549L72.2139 44.5726L71.2179 44.4816Z" fill="#416BFF"/>
<path d="M72.7822 53.6986L70.8578 54.8112L71.82 55.3525L74.1654 56.7056L76.3606 55.8336L77.0522 54.8112L76.571 53.3378L75.7291 52.2553L74.3759 51.9846L72.7822 53.6986Z" fill="#416BFF"/>
<path d="M76.614 56.0945L74.1558 56.7267L75.3966 59.3722L77.7144 58.6465V57.3822L76.614 56.0945Z" fill="white"/>
<path d="M77.8549 57.429L76.8247 56.0243H79.5873L77.8549 58.5762V57.429Z" fill="#FF3535"/>
<path d="M76.8417 49.6392L74.6766 51.5035L76.0599 52.6462L76.8417 54.6909L79.127 52.4056L78.4354 50.6615L76.8417 49.6392Z" fill="white"/>
<path d="M79.578 48.0454L77.0521 49.3986L79.3375 51.9546L80.2396 48.5266L79.578 48.0454Z" fill="#FF3535"/>
<path d="M72.6056 41.8834L71.1016 44.4177L72.9765 44.9121L75.1398 46.6634L76.1288 47.5288L76.7469 46.1277L76.6233 43.985L75.4283 42.8106L73.8418 41.8834H72.6056Z" fill="white"/>
<path d="M74.9056 39.3279L72.9941 41.5103L74.3163 42.1316L75.8933 43.5334L76.8491 43.629V41.7015L76.0845 39.7103L74.9056 39.3279Z" fill="#FF3535"/>
<path d="M69.0828 52.5062C68.2583 48.2264 73.8294 39.0191 75.1707 39.3173C78.415 40.0384 77.2507 51.7977 71.3306 54.5175" stroke="black" stroke-linecap="round" stroke-linejoin="round"/>
<path d="M72.5862 42.1625C73.866 41.1337 76.7518 43.3671 76.7518 45.5252" stroke="black" stroke-linecap="round" stroke-linejoin="round"/>
<path d="M71.0303 44.7724C72.3101 43.7435 76.1747 46.3282 75.9488 48.8628" stroke="black" stroke-linecap="round" stroke-linejoin="round"/>
<path d="M74.2165 52.0905C75.7608 50.08 78.8785 47.8656 79.9019 48.2112C81.1079 48.6185 79.3255 56.0346 72.2684 57.0856" stroke="black" stroke-linecap="round" stroke-linejoin="round"/>
<path d="M76.4128 49.8734C77.3757 49.5311 79.5581 51.2641 78.8306 52.9973" stroke="black" stroke-linecap="round" stroke-linejoin="round"/>
<path d="M74.1448 52.2054C75.7496 51.5637 77.3757 53.4038 76.798 55.1368" stroke="black" stroke-linecap="round" stroke-linejoin="round"/>
<path d="M74.5547 56.471C75.9243 55.9275 79.0332 55.4927 79.5113 56.1667C79.8701 56.6724 78.0175 59.4914 74.5548 59.301" stroke="black" stroke-linecap="round" stroke-linejoin="round"/>
<path d="M76.0525 55.9544C76.7077 55.6263 78.4761 57.6744 77.7334 58.5217" stroke="black" stroke-linecap="round" stroke-linejoin="round"/>
<path d="M29.7477 65.1082L31.5866 64.0217L32.3596 64.8993L33.8222 67.6156L35.7028 69.4544L35.5774 73.111L34.8427 73.4186L31.5866 73.111L31.249 71.3321L29.9116 72.7585L27.1626 72.0536L27.1626 71.3321L27.9299 68.6022V65.5679L29.7477 65.1082Z" fill="white"/>
<path d="M70.1165 65.1082L68.2776 64.0217L67.5047 64.8993L66.042 67.6156L64.1615 69.4544L64.2869 73.111L65.0216 73.4186L68.2776 73.111L68.6152 71.3321L69.9527 72.7585L72.7017 72.0536L72.7017 71.3321L71.9343 68.6022V65.5679L70.1165 65.1082Z" fill="white"/>
<path d="M28.0578 66.3903C27.744 70.9142 26.7133 71.3725 27.0311 71.8058C27.3489 72.2392 29.91 72.8253 30.3989 72.4287C30.8878 72.0322 31.5418 70.7686 31.7432 69.1582C31.7432 69.1582 31.1422 72.8395 31.7432 73.2522C32.1314 73.5188 34.9218 73.5188 35.4663 73.1445" stroke="black" stroke-linecap="round" stroke-linejoin="round"/>
<path d="M71.9431 66.3903C72.2569 70.9142 73.2877 71.3725 72.9699 71.8058C72.6521 72.2392 70.091 72.8253 69.6021 72.4287C69.1132 72.0322 68.4592 70.7686 68.2577 69.1582C68.2577 69.1582 68.8587 72.8395 68.2577 73.2522C67.8696 73.5188 65.0791 73.5188 64.5347 73.1445" stroke="black" stroke-linecap="round" stroke-linejoin="round"/>
<path d="M28.7821 44.4816L30.0432 47.2739L30.6122 53.7692L28.9197 54.6793L24.8004 50.4961L23.9382 47.8297L24.6727 46.7919L26.0937 45.3549L27.7861 44.5726L28.7821 44.4816Z" fill="#416BFF"/>
<path d="M27.2178 53.6986L29.1422 54.8112L28.18 55.3525L25.8346 56.7056L23.6394 55.8336L22.9478 54.8112L23.429 53.3378L24.2709 52.2553L25.6241 51.9846L27.2178 53.6986Z" fill="#416BFF"/>
<path d="M23.386 56.0945L25.8442 56.7267L24.6034 59.3722L22.2856 58.6465V57.3822L23.386 56.0945Z" fill="white"/>
<path d="M22.1451 57.429L23.1753 56.0243H20.4127L22.1451 58.5762V57.429Z" fill="#FF3535"/>
<path d="M23.1583 49.6392L25.3234 51.5035L23.9401 52.6462L23.1583 54.6909L20.873 52.4056L21.5646 50.6615L23.1583 49.6392Z" fill="white"/>
<path d="M20.422 48.0454L22.9479 49.3986L20.6625 51.9546L19.7604 48.5266L20.422 48.0454Z" fill="#FF3535"/>
<path d="M27.3944 41.8834L28.8984 44.4177L27.0235 44.9121L24.8602 46.6634L23.8712 47.5288L23.2531 46.1277L23.3767 43.985L24.5717 42.8106L26.1582 41.8834H27.3944Z" fill="white"/>
<path d="M25.0944 39.3279L27.0059 41.5103L25.6837 42.1316L24.1067 43.5334L23.1509 43.629V41.7015L23.9155 39.7103L25.0944 39.3279Z" fill="#FF3535"/>
<path d="M30.9172 52.5062C31.7417 48.2264 26.1706 39.0191 24.8293 39.3173C21.585 40.0384 22.7493 51.7977 28.6694 54.5175" stroke="black" stroke-linecap="round" stroke-linejoin="round"/>
<path d="M27.4138 42.1625C26.134 41.1337 23.2482 43.3671 23.2482 45.5252" stroke="black" stroke-linecap="round" stroke-linejoin="round"/>
<path d="M28.9697 44.7724C27.6899 43.7435 23.8253 46.3282 24.0512 48.8628" stroke="black" stroke-linecap="round" stroke-linejoin="round"/>
<path d="M25.7835 52.0905C24.2392 50.08 21.1215 47.8656 20.0981 48.2112C18.8921 48.6185 20.6745 56.0346 27.7316 57.0856" stroke="black" stroke-linecap="round" stroke-linejoin="round"/>
<path d="M23.5872 49.8734C22.6243 49.5311 20.4419 51.2641 21.1694 52.9973" stroke="black" stroke-linecap="round" stroke-linejoin="round"/>
<path d="M25.8552 52.2054C24.2504 51.5637 22.6243 53.4038 23.202 55.1368" stroke="black" stroke-linecap="round" stroke-linejoin="round"/>
<path d="M25.4453 56.471C24.0757 55.9275 20.9668 55.4927 20.4887 56.1667C20.1299 56.6724 21.9825 59.4914 25.4452 59.301" stroke="black" stroke-linecap="round" stroke-linejoin="round"/>
<path d="M23.9475 55.9544C23.2923 55.6263 21.5239 57.6744 22.2666 58.5217" stroke="black" stroke-linecap="round" stroke-linejoin="round"/>
<path d="M29.5 79.8102L30 77.8102L31.5 79.3102L30.5 80.3102L29.5 79.8102Z" fill="#A49716"/>
<path d="M70.5 79.8102L70 77.8102L69 79.3102L70 80.3102L70.5 79.8102Z" fill="#A49716"/>
<path d="M47 97.3102L44.5 97.8102L45 98.8102L45.5 101.31H54.5V99.8102L55 98.3102L53 97.3102L50 98.3102L47 97.3102Z" fill="#FFDDCF"/>
<path d="M35.5 44.3102L31 45.8102L31.5 41.8102L34 37.3102L37.5 33.8102L42.5 31.3102L49 30.3102L55 30.8102L61 32.8102L66 36.8102L68.5 41.8102L69 45.8102L67.5 45.3102L59.5 43.8102L51.5 43.3102L41 43.8102L35.5 44.3102Z" fill="#35F3FF"/>
<path d="M29 47.3102L31 45.8102L31.5 46.8102L33.5 47.8102L39 48.8102L43.5 49.3102H48.5H54L60.5 48.8102L65 48.3102L68.5 47.3102L69 46.3102L71 47.3102L72 49.8102L71.5 52.8102L68.5 54.3102L64.5 55.3102L56 56.3102H46L37 55.8102L30.5 54.3102L28.5 52.8102L28 50.3102L29 47.3102Z" fill="#495B6D"/>
<path d="M29.5 46.8102L31 46.3102L32 47.3102L36 48.3102L44 49.3102H55L66.5 47.8102L69 46.3102L71 47.3102L68.5 48.8102L63 50.3102L57.5 50.8102L52 51.3102H48L43 50.8102L37.5 50.3102L33 49.3102L29.5 47.8102V46.8102Z" fill="#627B94"/>
<path d="M24 57.3102L27.3221 55.3102L29 53.3102L34.5 55.3102L40 55.8102L46.5 56.3102H56L66.5 55.3102L71 53.3102L73 55.3102L75.5 56.8102L76.5 58.8102V62.3102L76 64.8102L74.5 66.8102L71.5 67.3102L69.5 66.8102L68 65.8102L66.5 69.3102L64 71.8102L60 73.8102L54 74.8102H47L40.5 73.8102L37.5 72.8102L34 70.3102L32.5 67.8102L32 65.3102L31 66.3102L29 67.3102H26.5L24.5 65.8102L23.5 63.8102L23 61.3102L24 57.3102Z" fill="#FFDDCF"/>
<path d="M47 74.8102L42 74.3102L43 75.8102L45.5 77.3102L48 77.8102L49 78.8102L50 79.8102L51 78.8102L52 77.8102L54.5 77.3102L56.5 75.8102L58 74.3102L52 74.8102H47Z" fill="#FFB89B"/>
<path d="M50 74.3102L58 73.8102L62.5 72.3102L62 75.8102L50 97.8102L49.5 98.3102L46 97.3102L45.5 97.8102L45 98.3102L45.5 101.31H24.5L24 100.81V95.8102L24.5 92.3102L25.5 88.8102L27.5 84.3102L30 80.3102L35 76.8102L36.5 76.3102L38 75.3102L37 72.3102L45.5 74.3102H50Z" fill="#416BFF"/>
<path d="M52 77.3102L51 78.8102L50 79.8102V97.8102L50.5 98.3102L54 97.3102L55 97.8102L54.5 98.8102L54 101.31H75.5L76 100.81V95.8102L75.5 92.3102L74.5 88.8102L72.5 84.3102L70 80.3102L65 76.8102L63.5 76.3102L61.5 75.3102L61 75.8102L61.5 76.8102L52 77.3102Z" fill="#416BFF"/>
<path d="M35.2112 76.843L37.0944 76.006L50.0885 86.5137L62.6611 76.1052L65.1687 76.861L49.6763 89.5709L35.2112 76.843Z" fill="#35F3FF"/>
<path d="M37.1485 76.049L50 86.9966L62.8515 76.049M64.7845 77.1134L50.6485 89.0715C50.2747 89.3898 49.7252 89.3898 49.3515 89.0715L35.3239 77.1134" stroke="black" stroke-linecap="round" stroke-linejoin="round"/>
<path d="M36.0633 75.703L35.7062 72.0581L42.8945 73.8443L50.3651 74.3347L58.0377 73.6424L64.3689 71.7577L64.0907 76.0096L57.8358 77.6518L52.8745 78.4017H47.8268L42.4618 77.8248L36.0633 75.703Z" fill="white"/>
<path d="M49.9524 74.2311L47.4838 74.5011L46.9823 76.4104L47.5994 78.1655L52.5367 78.0497L52.9031 76.2176L52.5367 74.5011L49.9524 74.2311Z" fill="white"/>
<path d="M67.5 82.3102L68.5 79.8102L69 81.8102L70.5 83.8102L72.5 84.8102L73.5 86.8102H72L69 84.8102L67.5 82.3102Z" fill="#35F3FF"/>
<path d="M69.5 82.8102L69 80.3102H70L71 82.3102L72.5 84.3102H71.5L69.5 82.8102Z" fill="#FF3535"/>
<path d="M69 80.3102C68.5 82.8102 71 84.8102 73 84.8102" stroke="black" stroke-linecap="round" stroke-linejoin="round"/>
<path d="M67.5 81.8102C67.5 82.8102 69.5 86.3102 73.5 86.8102" stroke="black" stroke-linecap="round" stroke-linejoin="round"/>
<path d="M32.5 82.3102L31.5 79.8102L31 81.8102L29.5 83.8102L27.5 84.8102L26.5 86.8102H28L31 84.8102L32.5 82.3102Z" fill="#35F3FF"/>
<path d="M30.5 82.8102L31 80.3102H30L29 82.3102L27.5 84.3102H28.5L30.5 82.8102Z" fill="#FF3535"/>
<path d="M31 80.3102C31.5 82.8102 29 84.8102 27 84.8102" stroke="black" stroke-linecap="round" stroke-linejoin="round"/>
<path d="M32.5 81.8102C32.5 82.8102 30.5 86.3102 26.5 86.8102" stroke="black" stroke-linecap="round" stroke-linejoin="round"/>
<path fill-rule="evenodd" clip-rule="evenodd" d="M33.4887 80.0003C34.2121 79.1656 35.4752 79.0754 36.3099 79.7988L50 91.6636L63.6902 79.7988C64.5249 79.0754 65.788 79.1656 66.5114 80.0003C67.2348 80.835 67.1446 82.0982 66.3099 82.8216L51.3099 95.8216C50.5582 96.4731 49.4419 96.4731 48.6902 95.8216L33.6902 82.8216C32.8555 82.0982 32.7652 80.835 33.4887 80.0003Z" fill="white" stroke="black" stroke-linecap="round" stroke-linejoin="round"/>
<rect x="48" y="80.3102" width="4" height="17.7141" fill="white"/>
<path d="M50 78.1116V98.3102" stroke="black" stroke-linecap="round" stroke-linejoin="round"/>
<path d="M48.5 79.8102V97.751" stroke="black" stroke-linecap="round" stroke-linejoin="round"/>
<path d="M51.5 79.8102V97.751" stroke="black" stroke-linecap="round" stroke-linejoin="round"/>
<path d="M32.28 62.3102C32.28 62.3102 30.2741 68.6779 37 72.3236L37.6124 72.6189M67.72 62.3102C67.72 62.3102 69.7644 68.7998 62.8053 72.4271L62.3323 72.6708" stroke="black" stroke-linecap="round"/>
<path d="M47.5 74.5033C47.5 74.5033 47 74.0272 46.25 74.0272C45.5 74.0272 45 74.4786 45 74.979C45 75.9308 45 75.931 45 76.8827C45.0001 77.3832 45 78.3104 46.25 78.3104C47.5 78.3104 47.5 77.8345 47.5 77.8345" stroke="black"/>
<path d="M45.5 74.3835C45.5 74.3835 45 73.9173 44.25 73.9173C43.5 73.9173 43 74.3593 43 74.8493C43 75.7814 43 75.7815 43 76.7135C43 77.2036 43 78.1119 44.25 78.1116C45.0621 78.1114 45.1537 77.9829 45.1537 77.9829" stroke="black"/>
<path d="M43.5 74.0082C43.5 74.0082 43 73.5328 42.25 73.5328C41.5 73.5328 41 73.9835 41 74.4833C41 75.4339 41 75.434 41 76.3846C41.0001 76.8844 41 77.8104 42.25 77.8104C43 77.8104 43 77.8102 43 77.8102" stroke="black"/>
<path d="M41.5 73.5131C41.5 73.5131 41 73.0383 40.25 73.0383C39.5 73.0383 39 73.4885 39 73.9876C39 74.9368 39 74.937 39 75.8863C39 76.3854 39 77.3102 40.25 77.3102C41 77.3102 41 77.3102 41 77.3102" stroke="black"/>
<path d="M39.5 73.0181C39.5 73.0181 39.0412 72.5439 38.3529 72.5439C37.6647 72.5439 37.2059 72.9935 37.2058 73.4919C37.2058 74.44 37.2058 74.4402 37.2058 75.3883C37.2059 75.8868 37.2058 76.8104 38.3529 76.8104C39.0412 76.8104 39.0412 76.8104 39.0412 76.8104" stroke="black"/>
<path d="M52.4958 74.5033C52.4958 74.5033 52.9958 74.0273 53.7458 74.0273C54.4958 74.0273 54.9958 74.4786 54.9958 74.979C54.9958 75.9308 54.9958 75.931 54.9958 76.8828C54.9958 77.3832 54.9958 78.3105 53.7458 78.3105C52.4958 78.3105 52.4958 77.8346 52.4958 77.8346" stroke="black"/>
<path d="M54.4958 74.3836C54.4958 74.3836 54.9958 73.9174 55.7458 73.9174C56.4958 73.9174 56.9958 74.3594 56.9958 74.8494C56.9959 75.7814 56.9959 75.7816 56.9958 76.7136C56.9958 77.2036 56.9958 78.1119 55.7458 78.1116C54.9338 78.1114 54.8422 77.9829 54.8422 77.9829" stroke="black"/>
<path d="M56.4958 74.0083C56.4958 74.0083 56.9958 73.5328 57.7458 73.5328C58.4958 73.5328 58.9958 73.9836 58.9958 74.4833C58.9958 75.4339 58.9958 75.4341 58.9958 76.3846C58.9958 76.8844 58.9958 77.8105 57.7458 77.8105C56.9958 77.8105 56.9958 77.8103 56.9958 77.8103" stroke="black"/>
<path d="M58.4959 73.5132C58.4959 73.5132 58.9958 73.0383 59.7458 73.0383C60.4958 73.0383 60.9958 73.4885 60.9958 73.9876C60.9959 74.9369 60.9959 74.9371 60.9958 75.8863C60.9958 76.3854 60.9958 77.3102 59.7458 77.3102C58.9958 77.3102 58.9958 77.3102 58.9958 77.3102" stroke="black"/>
<path d="M60.4958 73.0181C60.4958 73.0181 60.9547 72.5439 61.6429 72.5439C62.3312 72.5439 62.79 72.9935 62.79 73.492C62.79 74.4401 62.79 74.4402 62.79 75.3883C62.79 75.8868 62.79 76.8105 61.6429 76.8105C60.9547 76.8105 60.9547 76.8105 60.9547 76.8105" stroke="black"/>
<path d="M64.3694 71.3763C64.3694 72.3244 64.3694 73.4403 64.3694 74.3885C64.3693 74.8869 64.3694 75.8106 63.2222 75.8106C62.534 75.8106 62.534 75.8106 62.534 75.8106" stroke="black"/>
<path d="M35.63 71.3763C35.63 72.3244 35.63 73.4403 35.63 74.3885C35.63 74.8869 35.63 75.8106 36.7771 75.8106C37.4654 75.8106 37.4654 75.8106 37.4654 75.8106" stroke="black"/>
<path d="M50 74.0031C51.7143 74.0031 52.5714 74.4185 52.5714 74.4185C52.5714 74.4185 53 74.9864 53 76.2328C53 77.4792 52.5714 78.1775 52.5714 78.1775C52.5714 78.1775 51.7143 78.5929 50 78.5929C48.2857 78.5929 47.4286 78.1775 47.4286 78.1775C47.4286 78.1775 47 77.4792 47 76.2328C47 74.9864 47.4286 74.4185 47.4286 74.4185C47.4286 74.4185 48.2857 74.0031 50 74.0031Z" stroke="black"/>
<ellipse cx="38.0001" cy="68.1993" rx="2" ry="3.5" transform="rotate(-60 38.0001 68.1993)" fill="#EFCABB"/>
<ellipse cx="2" cy="3.5" rx="2" ry="3.5" transform="matrix(-0.5 -0.866025 -0.866025 0.5 65.8093 68.1813)" fill="#EFCABB"/>
<path d="M72 25.1973C72 26.6352 69.1794 30.949 67.7689 30.23C66.3583 29.511 67.0635 25.1973 68.4741 23.7594C69.5569 22.6556 72 23.7594 72 25.1973Z" fill="white" stroke="black"/>
<path d="M79.9046 30.3102C78.1158 30.3102 76.6748 31.6644 76.1779 32.3415C75.1841 30.9873 73.4205 29.0678 71.7056 31.6644C69.4697 35.0499 73.1962 35.727 73.9419 33.6957C76.1779 37.0812 78.7497 36.7761 80.6499 35.0499C82.8859 33.0186 82.1406 30.3102 79.9046 30.3102Z" fill="white" stroke="black" stroke-linejoin="round"/>
<path d="M28 25.1973C28 26.6352 30.8206 30.949 32.2311 30.23C33.6417 29.511 32.9365 25.1973 31.5259 23.7594C30.4431 22.6556 28 23.7594 28 25.1973Z" fill="white" stroke="black"/>
<path d="M20.0954 30.3102C21.8842 30.3102 23.3252 31.6644 23.8221 32.3415C24.8159 30.9873 26.5795 29.0678 28.2944 31.6644C30.5303 35.0499 26.8038 35.727 26.0581 33.6957C23.8221 37.0812 21.2503 36.7761 19.3501 35.0499C17.1141 33.0186 17.8594 30.3102 20.0954 30.3102Z" fill="white" stroke="black" stroke-linejoin="round"/>
<path d="M36.0317 55.4845L34.25 55.0615L30.8415 54.3295L28.9164 53.0461L28.3602 51.4633L27.9977 53.5519L27.5949 54.8186L25.0065 55.9418L24.4674 57.0722L26.7775 55.4845H28.6597L28.3602 56.6824L27.1455 63.527L29.7721 62.7142L30.227 65.5428H34.8134L35.1705 60.7682L36.0317 55.4845Z" fill="white"/>
<path d="M64.0678 55.4845L65.8495 55.0615L69.258 54.3295L71.1831 53.0461L71.7392 51.4633L72.1017 53.5519L72.5046 54.8186L75.0929 55.9418L75.6321 57.0722L73.322 55.4845H71.4398L71.7392 56.6824L72.954 63.527L70.3274 62.7142L69.8725 65.5428H65.2861L64.929 60.7682L64.0678 55.4845Z" fill="white"/>
<path d="M28.8787 55.4174C28.3296 55.2929 27.7051 55.2693 27.0001 55.3868C24.0409 55.88 22.9167 59.3868 23.5001 62.8868C23.9167 65.3868 25.0001 67.3868 28.0001 67.3868C29.6187 67.3868 30.9271 66.7889 31.5693 65.9756" stroke="black" stroke-linecap="round"/>
<path d="M25.0001 60.3868C25.7501 59.6368 26.5704 59.2383 27.382 59.1387" stroke="black" stroke-linecap="round"/>
<path d="M29.0001 64.3868C28.5266 64.2289 28.1028 63.8219 27.7919 63.2915" stroke="black" stroke-linecap="round"/>
<path d="M71.1207 55.4174C71.6698 55.2929 72.2943 55.2693 72.9993 55.3868C75.9585 55.88 77.0827 59.3868 76.4993 62.8868C76.0827 65.3868 74.9993 67.3868 71.9993 67.3868C70.3807 67.3868 69.0723 66.7889 68.4301 65.9756" stroke="black" stroke-linecap="round"/>
<path d="M74.9993 60.3868C74.2493 59.6368 73.429 59.2383 72.6174 59.1387" stroke="black" stroke-linecap="round"/>
<path d="M70.9993 64.3868C71.4728 64.2289 71.8966 63.8219 72.2075 63.2915" stroke="black" stroke-linecap="round"/>
<path d="M75.8499 100.81C76.8206 93.045 73.0804 78.6846 62.8004 76.0194" stroke="black" stroke-linecap="round" stroke-linejoin="round"/>
<path d="M68.35 76.8102L69.85 77.8102L68.35 79.8102L67.35 82.3102L66.35 85.8102V88.8102L66.85 92.3102L67.85 95.3102L64.35 95.8102L63.35 93.3102L62.35 89.3102V86.8102L62.85 84.3102L63.35 81.8102L64.35 78.8102L65.85 76.8102L66.85 76.3102L68.35 76.8102Z" fill="#FFEA1B"/>
<path d="M69.85 80.3102C71.85 78.8102 68.7041 76.0146 66.778 76.3356C63.7779 76.8356 60.35 87.8104 64.35 95.8104" stroke="black"/>
<path d="M69.7779 77.8354C65.278 82.8354 65.85 91.3102 67.35 93.8102" stroke="black"/>
<path d="M68.7778 76.8354C64.2779 81.8354 63.778 91.8354 66.7779 95.3354" stroke="black"/>
<path d="M71.85 97.3102C66.85 95.3102 57.35 95.8102 55.85 97.3102C54.5851 98.5751 54.35 100.31 54.35 100.81" stroke="black" stroke-linecap="round" stroke-linejoin="round"/>
<path d="M66.35 95.8102C66.85 94.3102 67.35 92.3102 69.85 90.3102" stroke="black" stroke-linecap="round" stroke-linejoin="round"/>
<path d="M66.35 95.8102C66.85 94.3102 69.35 91.8102 73.35 92.3102" stroke="black" stroke-linecap="round" stroke-linejoin="round"/>
<path d="M66.35 95.8102C66.85 95.3102 68.85 93.8102 70.85 94.3102" stroke="black" stroke-linecap="round" stroke-linejoin="round"/>
<path d="M60.35 96.3102C59.35 98.3102 59.35 99.8102 60.35 100.81" stroke="black" stroke-linecap="round" stroke-linejoin="round"/>
<path d="M24.1481 100.81C23.1837 93.0949 26.8697 78.8691 37 76.0723" stroke="black" stroke-linecap="round" stroke-linejoin="round"/>
<path d="M31.6481 76.8102L30.1481 77.8102L31.6481 79.8102L32.6481 82.3102L33.6481 85.8102V88.8102L33.1481 92.3102L32.1481 95.3102L35.6481 95.8102L36.6481 93.3102L37.6481 89.3102V86.8102L37.1481 84.3102L36.6481 81.8102L35.6481 78.8102L34.1481 76.8102L33.1481 76.3102L31.6481 76.8102Z" fill="#FFEA1B"/>
<path d="M30.1481 80.3102C28.1481 78.8102 31.294 76.0146 33.22 76.3356C36.2202 76.8356 39.648 87.8104 35.6481 95.8104" stroke="black"/>
<path d="M30.2201 77.8354C34.7201 82.8354 34.1481 91.3102 32.6481 93.8102" stroke="black"/>
<path d="M31.2202 76.8354C35.7202 81.8354 36.2201 91.8354 33.2202 95.3354" stroke="black"/>
<path d="M28.1481 97.3102C33.1481 95.3102 42.6481 95.8102 44.1481 97.3102C45.413 98.5751 45.6481 100.31 45.6481 100.81" stroke="black" stroke-linecap="round" stroke-linejoin="round"/>
<path d="M33.6481 95.8102C33.1481 94.3102 32.6481 92.3102 30.1481 90.3102" stroke="black" stroke-linecap="round" stroke-linejoin="round"/>
<path d="M33.6481 95.8102C33.1481 94.3102 30.6481 91.8102 26.6481 92.3102" stroke="black" stroke-linecap="round" stroke-linejoin="round"/>
<path d="M33.6481 95.8102C33.1481 95.3102 31.1481 93.8102 29.1481 94.3102" stroke="black" stroke-linecap="round" stroke-linejoin="round"/>
<path d="M39.6481 96.3102C40.6481 98.3102 40.6481 99.8102 39.6481 100.81" stroke="black" stroke-linecap="round" stroke-linejoin="round"/>
<path d="M45 98.3102C45 98.3102 46.5581 97.1937 47.5 97.4034C48.6319 97.6554 48.9313 98.3102 49.9997 98.3102C51.0681 98.3102 51.3679 97.6553 52.5 97.4034C53.4419 97.1938 55 98.3102 55 98.3102" stroke="black" stroke-linecap="round" stroke-linejoin="round"/>
<path d="M66 45.3102C66 44.2545 65.8785 43.2532 65.6476 42.3102M34 45.3102C34 37.2049 41.1634 32.3102 50 32.3102C51.7461 32.3102 53.4269 32.5013 55 32.8706M58.5 34.0701C60.4663 34.9871 62.1448 36.2464 63.4122 37.8102" stroke="white" stroke-opacity="0.66" stroke-linecap="round" stroke-linejoin="round"/>
<path d="M69 46.3102C69 36.3344 60.4934 30.3102 50 30.3102C39.5066 30.3102 31 36.3344 31 46.3102" stroke="black" stroke-linejoin="round"/>
<ellipse cx="50" cy="46.3102" rx="19" ry="3" fill="#35F3FF" stroke="black"/>
<path d="M31 50.3102L28.5 48.8102L28 50.8102L29 53.3102L30.5 54.3102L34 55.3102L39 55.8102H41V55.3102V53.8102L40.5 52.3102L39.5 51.8102H37.5L34 51.3102L31 50.3102Z" fill="#627B94"/>
<path d="M28.5 48.8102C31 50.8102 35.75 51.7388 39.5 52.3102C41.7243 52.6491 40.9375 55.0245 40.9375 56.3102" stroke="black"/>
<circle cx="39.2278" cy="53.5456" r="0.5" fill="black"/>
<ellipse cx="29.8925" cy="52.3102" rx="0.392456" ry="0.5" transform="rotate(-32.0079 29.8925 52.3102)" fill="black"/>
<path d="M69 50.3102L71.5 48.8102L72 50.8102L71 53.3102L69.5 54.3102L66 55.3102L61 55.8102H59V55.3102V53.8102L59.5 52.3102L60.5 51.8102H62.5L66 51.3102L69 50.3102Z" fill="#627B94"/>
<path d="M71.5 48.8102C69 50.8102 64.25 51.7388 60.5 52.3102C58.2757 52.6491 59.0625 55.0245 59.0625 56.3102" stroke="black"/>
<circle cx="0.5" cy="0.5" r="0.5" transform="matrix(-1 0 0 1 61.2722 53.0456)" fill="black"/>
<ellipse cx="0.392456" cy="0.5" rx="0.392456" ry="0.5" transform="matrix(-0.847975 -0.530035 -0.530035 0.847975 70.7053 52.0942)" fill="black"/>
<path d="M30.8545 46.3102C28 46.3102 27.6159 51.3102 28.7352 52.8487C29.9867 54.5687 36.57 56.3102 50.0002 56.3102C63.4305 56.3102 70.0137 54.5688 71.265 52.8487C72.3841 51.3102 72 46.3102 69.1456 46.3102" stroke="black"/>
<path d="M35.8432 55.677C34.5909 59.8542 34.9683 65.4376 34.5909 65.6069C33.3384 66.1687 31.6619 66.0925 30.2825 65.6069C29.6334 65.3785 30.2824 59.9583 30.9775 56.9679" stroke="black" stroke-linecap="round" stroke-linejoin="round"/>
<path d="M64.1616 55.677C65.4139 59.8542 65.0364 65.4376 65.4139 65.6069C66.6664 66.1687 68.3428 66.0925 69.7223 65.6069C70.3713 65.3785 69.7223 59.9583 69.0272 56.9679" stroke="black" stroke-linecap="round" stroke-linejoin="round"/>
<path d="M29.3682 55.0942C27.9855 56.3705 26.4008 62.9197 27.1049 63.1245C27.8091 63.3293 29.8711 63.1245 29.8711 63.1245" stroke="black" stroke-linecap="round" stroke-linejoin="round"/>
<path d="M70.6337 55.0942C72.0164 56.3705 73.6012 62.9197 72.897 63.1245C72.1929 63.3293 70.1309 63.1245 70.1309 63.1245" stroke="black" stroke-linecap="round" stroke-linejoin="round"/>
<path d="M45.4571 37.0173C45.8476 36.6268 45.8476 35.9936 45.4571 35.6031C45.0666 35.2126 44.4334 35.2126 44.0429 35.6031L40.0429 39.6031C39.6524 39.9936 39.6524 40.6268 40.0429 41.0173L44.0429 45.0173C44.4334 45.4078 45.0666 45.4078 45.4571 45.0173C45.8476 44.6268 45.8476 43.9936 45.4571 43.6031L42.1642 40.3102L45.4571 37.0173Z" fill="white" stroke="black" stroke-linecap="round" stroke-linejoin="round"/>
<path d="M54.5429 43.6031C54.1524 43.9936 54.1524 44.6268 54.5429 45.0173C54.9334 45.4078 55.5666 45.4078 55.9571 45.0173L59.9571 41.0173C60.3476 40.6268 60.3476 39.9936 59.9571 39.6031L55.9571 35.6031C55.5666 35.2126 54.9334 35.2126 54.5429 35.6031C54.1524 35.9936 54.1524 36.6268 54.5429 37.0173L57.8358 40.3102L54.5429 43.6031Z" fill="white" stroke="black" stroke-linecap="round" stroke-linejoin="round"/>
<path d="M53.0327 36.64C53.0513 36.6046 53.0656 36.5671 53.0753 36.5283C53.2093 35.9925 52.8835 35.4496 52.3477 35.3156C51.8348 35.1874 51.3153 35.4804 51.1544 35.9758L46.9437 43.9708C46.9251 44.0062 46.9108 44.0437 46.9011 44.0825C46.7671 44.6183 47.0929 45.1613 47.6287 45.2952C48.1416 45.4235 48.6611 45.1304 48.822 44.6351L53.0327 36.64Z" fill="white" stroke="black" stroke-linecap="round" stroke-linejoin="round"/>
<path d="M50 34.3102C42.268 34.3102 36 38.661 36 45.8658C36 45.8658 39.3158 47.3102 50 47.3102C60.6842 47.3102 64 45.8658 64 45.8658C64 38.661 57.732 34.3102 50 34.3102Z" fill="white" fill-opacity="0.44"/>
<path opacity="0.66" d="M38.7059 40.3846C39.5515 38.1622 41.6657 36.3102 43.7798 36.3102C45.8939 36.3102 45.753 37.051 43.7798 38.903C41.8067 40.755 40.2281 42.2365 39.5516 42.2365C38.7059 42.2365 38.2831 41.4957 38.7059 40.3846Z" fill="white"/>
<ellipse opacity="0.66" cx="37.5866" cy="45.2164" rx="1.06066" ry="1.90132" transform="rotate(17.6291 37.5866 45.2164)" fill="white"/>
<path d="M29.5001 46.8102C28 49.3102 41.0001 51.3102 50.0001 51.3102C59.0001 51.3102 71.5001 49.3102 70.5001 46.8102" stroke="black" stroke-linecap="round"/>
<path d="M26.9121 84.4105C27.2896 83.6445 27.3633 83.5836 27.3633 83.5836L26.3272 81.9627L24 80.8102L21.5 80.3102L19.5 81.3102L18 83.3102L17.5 84.8102L16 84.3102L13.5 84.8102L10.5 86.3102L9 88.8102V92.3102L10.5 95.3102L12.5 96.8102L14 97.3102L17.5 97.8102L19.5 97.3102L21.5 97.8102L23.5 98.8102H26.5L29.5 98.3102L32.5 97.3102L35 94.8102L36 95.3102L39.5 96.3102L43 95.3102H45.5L47 93.8102L46 92.8102L43.5 92.3102L41 91.3102H39L37.5 90.3102L34.5 89.3102H32L29 90.8102L27 89.3102L25 88.3102L25.736 87.0785C26.0331 86.277 26.5481 85.1493 26.9121 84.4105Z" fill="white"/>
<path d="M33.8558 93.7235C37.014 97.2427 41.4537 96.1282 43.1691 95.0083C44.5192 95.3759 47 95.5005 47 94.0407C47 92.5809 45.0856 92.2643 43.956 92.4848C43.3924 91.6765 41.4129 90.6556 39.3826 91.4677" stroke="black" stroke-linecap="round" stroke-linejoin="round"/>
<path d="M40.3242 92.9916C39.1495 90.7522 34.1932 87.4114 29.2371 90.5319" stroke="black" stroke-linecap="round"/>
<path d="M30.208 92.4505C28.4912 89.066 24.0278 86.5154 18.9264 89.066" stroke="black" stroke-linecap="round"/>
<path d="M35.1132 94.903C33.7887 97.1593 25.1558 102.506 17.4059 95.3935" stroke="black" stroke-linecap="round"/>
<path d="M19.1717 97.3555C15.7708 98.3365 9.36148 97.6008 9.01815 91.4695C8.62324 84.4171 14.7571 84.0465 17.602 84.7495C18.1906 80.335 24.486 78.8745 27.6723 83.3477" stroke="black" stroke-linecap="round" stroke-linejoin="round"/>
<path d="M21.8204 84.1609C24.7635 84.4552 25.4993 86.9077 25.4993 88.3302" stroke="black" stroke-linecap="round"/>
<path d="M13.1214 93.2233C13.3109 94.6682 14.7795 95.3223 15.3066 95.3223" stroke="black" stroke-linecap="round"/>
<path d="M73.0879 84.4105C72.7104 83.6445 72.6367 83.5836 72.6367 83.5836L73.6728 81.9627L76 80.8102L78.5 80.3102L80.5 81.3102L82 83.3102L82.5 84.8102L84 84.3102L86.5 84.8102L89.5 86.3102L91 88.8102V92.3102L89.5 95.3102L87.5 96.8102L86 97.3102L82.5 97.8102L80.5 97.3102L78.5 97.8102L76.5 98.8102H73.5L70.5 98.3102L67.5 97.3102L65 94.8102L64 95.3102L60.5 96.3102L57 95.3102H54.5L53 93.8102L54 92.8102L56.5 92.3102L59 91.3102H61L62.5 90.3102L65.5 89.3102H68L71 90.8102L73 89.3102L75 88.3102L74.264 87.0785C73.9669 86.277 73.4519 85.1493 73.0879 84.4105Z" fill="white"/>
<path d="M66.1442 93.7235C62.986 97.2427 58.5463 96.1282 56.8309 95.0083C55.4808 95.3759 53 95.5005 53 94.0407C53 92.5809 54.9144 92.2643 56.044 92.4848C56.6076 91.6765 58.5871 90.6556 60.6174 91.4677" stroke="black" stroke-linecap="round" stroke-linejoin="round"/>
<path d="M59.6758 92.9916C60.8505 90.7522 65.8068 87.4114 70.7629 90.5319" stroke="black" stroke-linecap="round"/>
<path d="M69.792 92.4505C71.5088 89.066 75.9722 86.5154 81.0736 89.066" stroke="black" stroke-linecap="round"/>
<path d="M64.8868 94.903C66.2113 97.1593 74.8442 102.506 82.5941 95.3935" stroke="black" stroke-linecap="round"/>
<path d="M80.8283 97.3555C84.2292 98.3365 90.6385 97.6008 90.9819 91.4695C91.3768 84.4171 85.2429 84.0465 82.398 84.7495C81.8094 80.335 75.514 78.8745 72.3277 83.3477" stroke="black" stroke-linecap="round" stroke-linejoin="round"/>
<path d="M78.1796 84.1609C75.2365 84.4552 74.5007 86.9077 74.5007 88.3302" stroke="black" stroke-linecap="round"/>
<path d="M86.8786 93.2233C86.6891 94.6682 85.2205 95.3223 84.6934 95.3223" stroke="black" stroke-linecap="round"/>
<rect x="37.5" y="54.8102" width="11" height="10" rx="5" fill="#495B6D" stroke="black"/>
<rect x="39" y="56.3102" width="8" height="7" rx="3.5" fill="url(#paint0_linear_522_821)" stroke="black"/>
<rect x="51.5" y="54.8102" width="11" height="10" rx="5" fill="#495B6D" stroke="black"/>
<rect x="53" y="56.3102" width="8" height="7" rx="3.5" fill="url(#paint1_linear_522_821)" stroke="black"/>
<path d="M46.9101 63.3108C47.4925 63.3283 48.3255 63.8108 48.3255 63.8108H51.628C51.628 63.8108 52.461 63.3283 53.0434 63.3108C54.7809 63.2585 57.1131 66.9845 55.4024 67.3108C54.4259 67.4971 53.0434 66.3108 53.0434 66.3108C53.0434 66.3108 52.2924 67.3108 51.628 67.3108C50.9637 67.3108 50.2127 66.3108 50.2127 66.3108C50.2127 66.3108 49.4616 67.3108 48.7972 67.3108C48.1329 67.3108 47.3819 66.3108 47.3819 66.3108C47.3819 66.3108 45.6235 67.794 44.5511 67.3108C42.9514 66.5901 45.1726 63.2585 46.9101 63.3108Z" fill="white" stroke="black" stroke-linejoin="round"/>
<path d="M50 64.8102C50.0804 64.8102 50.1637 64.8108 50.2478 64.8115C50.4333 64.8129 50.6227 64.8144 50.7941 64.809C51.0462 64.8012 51.3156 64.7783 51.5619 64.7021C51.8175 64.6231 52.0716 64.4792 52.2533 64.2179C52.4313 63.962 52.5 63.6504 52.5 63.3102C52.5 62.9334 52.3757 62.5336 52.2145 62.1719C52.0498 61.8023 51.8284 61.4327 51.5942 61.1052C51.3607 60.7785 51.1043 60.4796 50.8628 60.2564C50.7427 60.1454 50.616 60.0436 50.4891 59.9665C50.3758 59.8976 50.2013 59.8102 50 59.8102C49.7987 59.8102 49.6242 59.8976 49.5109 59.9665C49.384 60.0436 49.2573 60.1454 49.1372 60.2564C48.8957 60.4796 48.6393 60.7785 48.4058 61.1052C48.1716 61.4327 47.9502 61.8023 47.7855 62.1719C47.6243 62.5336 47.5 62.9334 47.5 63.3102C47.5 63.6504 47.5687 63.962 47.7467 64.2179C47.9284 64.4792 48.1825 64.6231 48.4381 64.7021C48.6844 64.7783 48.9538 64.8012 49.2059 64.809C49.3773 64.8144 49.5667 64.8129 49.7522 64.8115C49.8363 64.8108 49.9196 64.8102 50 64.8102Z" fill="#FF3535" stroke="black"/>
<path d="M27.332 6.91019C27.484 6.91019 27.604 6.95019 27.692 7.03019C27.78 7.11019 27.84 7.20219 27.872 7.30619L30.548 14.9622C30.556 14.9862 30.56 15.0142 30.56 15.0462C30.56 15.1182 30.532 15.1822 30.476 15.2382C30.428 15.2862 30.368 15.3102 30.296 15.3102H28.076C27.836 15.3102 27.68 15.2102 27.608 15.0102L27.32 14.2182H24.74L24.452 15.0102C24.38 15.2102 24.224 15.3102 23.984 15.3102H21.764C21.692 15.3102 21.628 15.2862 21.572 15.2382C21.524 15.1822 21.5 15.1182 21.5 15.0462C21.5 15.0142 21.504 14.9862 21.512 14.9622L24.188 7.30619C24.22 7.20219 24.28 7.11019 24.368 7.03019C24.456 6.95019 24.576 6.91019 24.728 6.91019H27.332ZM26.024 9.64619L25.352 11.8782H26.708L26.024 9.64619ZM38.3759 6.91019C38.4639 6.91019 38.5399 6.94219 38.6039 7.00619C38.6679 7.07019 38.6999 7.14619 38.6999 7.23419V12.1422C38.6999 13.2382 38.3519 14.0622 37.6559 14.6142C36.9599 15.1582 36.0159 15.4302 34.8239 15.4302C33.6239 15.4302 32.6719 15.1582 31.9679 14.6142C31.2719 14.0622 30.9239 13.2382 30.9239 12.1422V7.23419C30.9239 7.14619 30.9559 7.07019 31.0199 7.00619C31.0839 6.94219 31.1599 6.91019 31.2479 6.91019H33.5999C33.6879 6.91019 33.7639 6.94219 33.8279 7.00619C33.8919 7.07019 33.9239 7.14619 33.9239 7.23419V12.0942C33.9239 12.3982 33.9959 12.6302 34.1399 12.7902C34.2919 12.9422 34.5159 13.0182 34.8119 13.0182C35.1079 13.0182 35.3279 12.9422 35.4719 12.7902C35.6239 12.6302 35.6999 12.3982 35.6999 12.0942V7.23419C35.6999 7.14619 35.7319 7.07019 35.7959 7.00619C35.8599 6.94219 35.9359 6.91019 36.0239 6.91019H38.3759ZM47.7371 10.2102C47.7531 10.6582 47.7611 10.9622 47.7611 11.1222C47.7611 11.2742 47.7531 11.5662 47.7371 11.9982C47.6891 13.1022 47.3131 13.9302 46.6091 14.4822C45.9131 15.0342 44.9731 15.3102 43.7891 15.3102H40.2731C40.1851 15.3102 40.1091 15.2782 40.0451 15.2142C39.9811 15.1502 39.9491 15.0742 39.9491 14.9862V7.23419C39.9491 7.14619 39.9811 7.07019 40.0451 7.00619C40.1091 6.94219 40.1851 6.91019 40.2731 6.91019H43.7291C44.4891 6.91019 45.1651 7.03819 45.7571 7.29419C46.3491 7.55019 46.8211 7.92619 47.1731 8.42219C47.5251 8.91819 47.7131 9.51419 47.7371 10.2102ZM42.9491 9.25019V12.9702H43.7291C44.0091 12.9702 44.2331 12.8902 44.4011 12.7302C44.5771 12.5622 44.6731 12.3182 44.6891 11.9982C44.7051 11.7662 44.7131 11.4662 44.7131 11.0982C44.7131 10.7222 44.7051 10.4262 44.6891 10.2102C44.6731 9.89019 44.5691 9.65019 44.3771 9.49019C44.1931 9.33019 43.9571 9.25019 43.6691 9.25019H42.9491ZM49.1559 15.3102C49.0679 15.3102 48.9919 15.2782 48.9279 15.2142C48.8639 15.1502 48.8319 15.0742 48.8319 14.9862V7.23419C48.8319 7.14619 48.8639 7.07019 48.9279 7.00619C48.9919 6.94219 49.0679 6.91019 49.1559 6.91019H51.6039C51.6919 6.91019 51.7679 6.94219 51.8319 7.00619C51.8959 7.07019 51.9279 7.14619 51.9279 7.23419V14.9862C51.9279 15.0742 51.8959 15.1502 51.8319 15.2142C51.7679 15.2782 51.6919 15.3102 51.6039 15.3102H49.1559ZM60.1498 6.91019C60.2378 6.91019 60.3138 6.94219 60.3778 7.00619C60.4418 7.07019 60.4738 7.14619 60.4738 7.23419V9.16619C60.4738 9.25419 60.4418 9.33019 60.3778 9.39419C60.3138 9.45819 60.2378 9.49019 60.1498 9.49019H58.1578V14.9862C58.1578 15.0742 58.1258 15.1502 58.0618 15.2142C57.9978 15.2782 57.9218 15.3102 57.8338 15.3102H55.4338C55.3458 15.3102 55.2698 15.2782 55.2058 15.2142C55.1418 15.1502 55.1098 15.0742 55.1098 14.9862V9.49019H53.1178C53.0298 9.49019 52.9538 9.45819 52.8898 9.39419C52.8258 9.33019 52.7938 9.25419 52.7938 9.16619V7.23419C52.7938 7.14619 52.8258 7.07019 52.8898 7.00619C52.9538 6.94219 53.0298 6.91019 53.1178 6.91019H60.1498ZM69.0538 12.1902C69.0058 13.2462 68.6258 14.0502 67.9138 14.6022C67.2018 15.1542 66.2458 15.4302 65.0458 15.4302C63.8458 15.4302 62.8898 15.1542 62.1777 14.6022C61.4658 14.0502 61.0858 13.2462 61.0378 12.1902C61.0298 11.9742 61.0258 11.6262 61.0258 11.1462C61.0258 10.6582 61.0298 10.3022 61.0378 10.0782C61.0618 9.39019 61.2418 8.79819 61.5778 8.30219C61.9218 7.80619 62.3898 7.43019 62.9818 7.17419C63.5738 6.91819 64.2618 6.79019 65.0458 6.79019C65.8298 6.79019 66.5178 6.91819 67.1098 7.17419C67.7018 7.43019 68.1658 7.80619 68.5018 8.30219C68.8458 8.79819 69.0298 9.39019 69.0538 10.0782C69.0698 10.5262 69.0778 10.8822 69.0778 11.1462C69.0778 11.4102 69.0698 11.7582 69.0538 12.1902ZM65.0458 13.0902C65.3178 13.0902 65.5298 13.0102 65.6818 12.8502C65.8418 12.6902 65.9258 12.4462 65.9338 12.1182C65.9498 11.6542 65.9578 11.3142 65.9578 11.0982C65.9578 10.8662 65.9498 10.5342 65.9338 10.1022C65.9258 9.77419 65.8418 9.53019 65.6818 9.37019C65.5218 9.21019 65.3098 9.13019 65.0458 9.13019C64.7818 9.13019 64.5698 9.21019 64.4098 9.37019C64.2498 9.53019 64.1658 9.77419 64.1578 10.1022C64.1498 10.3182 64.1458 10.6502 64.1458 11.0982C64.1458 11.5462 64.1498 11.8862 64.1578 12.1182C64.1658 12.4462 64.2458 12.6902 64.3978 12.8502C64.5578 13.0102 64.7738 13.0902 65.0458 13.0902ZM77.888 14.9142C77.912 14.9622 77.924 15.0062 77.924 15.0462C77.924 15.1182 77.896 15.1822 77.84 15.2382C77.792 15.2862 77.732 15.3102 77.66 15.3102H75.2C75.056 15.3102 74.94 15.2782 74.852 15.2142C74.772 15.1422 74.716 15.0662 74.684 14.9862L73.652 12.6942H73.16V14.9862C73.16 15.0742 73.128 15.1502 73.064 15.2142C73 15.2782 72.924 15.3102 72.836 15.3102H70.484C70.396 15.3102 70.32 15.2782 70.256 15.2142C70.192 15.1502 70.16 15.0742 70.16 14.9862V7.23419C70.16 7.14619 70.192 7.07019 70.256 7.00619C70.32 6.94219 70.396 6.91019 70.484 6.91019H74.036C75.188 6.91019 76.088 7.17019 76.736 7.69019C77.384 8.20219 77.708 8.91419 77.708 9.82619C77.708 10.3462 77.592 10.8062 77.36 11.2062C77.128 11.5982 76.812 11.9222 76.412 12.1782L77.888 14.9142ZM74.036 10.4142C74.212 10.4142 74.348 10.3582 74.444 10.2462C74.54 10.1262 74.588 9.97819 74.588 9.80219C74.588 9.62619 74.54 9.47419 74.444 9.34619C74.356 9.21019 74.22 9.14219 74.036 9.14219H73.16V10.4142H74.036Z" fill="white"/>
<path d="M48.7721 76.6898C48.9082 76.2815 49.2904 76.006 49.7208 76.006H50.2793C50.7097 76.006 51.0919 76.2815 51.228 76.6898L52 79.006C52 79.006 52.5 81.006 50 81.006C47.5 81.006 48 79.006 48 79.006L48.7721 76.6898Z" fill="#FF3535" stroke="black" stroke-linejoin="round"/>
<path d="M28.3038 51.7072C28.0011 52.3017 27.6484 54.69 27.6484 55.3628" stroke="black" stroke-linejoin="round"/>
<path d="M71.6946 51.7072C71.9973 52.3017 72.35 54.69 72.35 55.3628" stroke="black" stroke-linejoin="round"/>
</g>
<defs>
<linearGradient id="paint0_linear_522_821" x1="43" y1="55.8102" x2="43" y2="63.8102" gradientUnits="userSpaceOnUse">
<stop stop-color="#B3C3FF"/>
<stop offset="1" stop-color="#416BFF"/>
</linearGradient>
<linearGradient id="paint1_linear_522_821" x1="57" y1="55.8102" x2="57" y2="63.8102" gradientUnits="userSpaceOnUse">
<stop stop-color="#B3C3FF"/>
<stop offset="1" stop-color="#416BFF"/>
</linearGradient>
</defs>
</svg>
