<svg width="32" height="32" viewBox="0 0 32 32" fill="none" xmlns="http://www.w3.org/2000/svg">
<g id="Group 11" opacity="0.44">
<g id="Group">
<path id="Vector" d="M5.92652 15.8236L5.94265 21.7376L10.9677 24.6945V28.1569L3.00179 23.4849V14.0942L5.92652 15.8236ZM5.92652 9.90963V13.3559L3 11.6247V8.17845L5.92652 6.44727L8.86737 8.17845L5.92652 9.90963ZM13.0663 8.17845L15.9928 6.44727L18.9337 8.17845L15.9928 9.90963L13.0663 8.17845Z" fill="white"/>
<path id="Vector_2" d="M8.04126 20.5118V17.0494L10.9678 18.7806V22.2268L8.04126 20.5118ZM13.0663 25.9347L15.9929 27.6659L18.9337 25.9347V29.3809L15.9929 31.1121L13.0663 29.3809V25.9347ZM23.1308 8.17845L26.0574 6.44727L28.9982 8.17845V11.6247L26.0574 13.3559V9.90962L23.1308 8.17845ZM26.0574 21.7376L26.0735 15.8236L29 14.0924V23.4831L21.0341 28.1551V24.6928L26.0574 21.7376Z" fill="white"/>
<path id="Vector_3" d="M23.9587 20.5117L21.0322 22.2267V18.7805L23.9587 17.0493V20.5117Z" fill="white"/>
<path id="Vector_4" d="M23.9588 11.1355L23.9749 14.5979L18.9355 17.5548V23.4831L16.009 25.1982L13.0825 23.4831V17.5548L8.04305 14.5979V11.1355L10.9821 9.40431L15.9911 12.3756L21.0305 9.40431L23.9713 11.1355H23.9588ZM8.04126 5.22332L15.9929 0.535156L23.9588 5.22332L21.0323 6.9545L15.9929 3.98318L10.9678 6.9545L8.04126 5.22332Z" fill="white"/>
</g>
</g>
</svg>
