<svg width="32" height="32" viewBox="0 0 32 32" fill="none" xmlns="http://www.w3.org/2000/svg">
<g id="Group 21" opacity="0.44">
<g id="Group 7">
<path id="Vector" d="M20.186 22.6279C18.0472 22.6279 15.9565 21.9937 14.1781 20.8054C12.3998 19.6172 11.0137 17.9283 10.1952 15.9523C9.37676 13.9763 9.1626 11.802 9.57986 9.70426C9.99712 7.60656 11.027 5.6797 12.5394 4.16734C14.0518 2.65498 15.9786 1.62505 18.0763 1.20779C20.174 0.790533 22.3484 1.00469 24.3243 1.82317C26.3003 2.64165 27.9892 4.0277 29.1775 5.80605C30.3657 7.58439 31 9.67516 31 11.814C30.9967 14.681 29.8563 17.4296 27.829 19.4569C25.8017 21.4842 23.053 22.6246 20.186 22.6279ZM20.186 3.09303C18.4612 3.09303 16.7751 3.6045 15.3409 4.56277C13.9068 5.52104 12.789 6.88306 12.1289 8.4766C11.4689 10.0701 11.2962 11.8236 11.6327 13.5153C11.9692 15.207 12.7998 16.7609 14.0194 17.9806C15.239 19.2002 16.793 20.0308 18.4847 20.3673C20.1764 20.7038 21.9298 20.5311 23.5234 19.871C25.1169 19.211 26.4789 18.0932 27.4372 16.659C28.3955 15.2249 28.907 13.5388 28.907 11.814C28.9044 9.50182 27.9847 7.28511 26.3498 5.65018C24.7149 4.01525 22.4982 3.09561 20.186 3.09303Z" fill="white"/>
<path id="Vector_2" d="M11.814 31C9.67516 31 7.58439 30.3657 5.80605 29.1775C4.0277 27.9892 2.64165 26.3003 1.82317 24.3243C1.00469 22.3484 0.790533 20.174 1.20779 18.0763C1.62505 15.9786 2.65498 14.0518 4.16734 12.5394C5.6797 11.027 7.60656 9.99712 9.70426 9.57986C11.802 9.1626 13.9763 9.37676 15.9523 10.1952C17.9283 11.0137 19.6172 12.3998 20.8054 14.1781C21.9937 15.9565 22.6279 18.0472 22.6279 20.186C22.6246 23.053 21.4842 25.8017 19.4569 27.829C17.4296 29.8563 14.681 30.9967 11.814 31ZM11.814 11.4651C10.0891 11.4651 8.40302 11.9766 6.96887 12.9348C5.53472 13.8931 4.41694 15.2551 3.75687 16.8487C3.0968 18.4422 2.9241 20.1957 3.2606 21.8874C3.5971 23.5791 4.42768 25.133 5.64733 26.3527C6.86697 27.5723 8.42089 28.4029 10.1126 28.7394C11.8043 29.0759 13.5578 28.9032 15.1513 28.2431C16.7449 27.583 18.1069 26.4653 19.0651 25.0311C20.0234 23.597 20.5349 21.9109 20.5349 20.186C20.5323 17.8739 19.6127 15.6572 17.9777 14.0223C16.3428 12.3873 14.1261 11.4677 11.814 11.4651Z" fill="white"/>
</g>
</g>
</svg>
