<svg width="16" height="16" viewBox="0 0 16 16" fill="none" xmlns="http://www.w3.org/2000/svg">
<path d="M11 3.5V1L14 4H11.5C11.2239 4 11 3.77614 11 3.5Z" fill="#11B466"/>
<path fill-rule="evenodd" clip-rule="evenodd" d="M2 3C2 1.89543 2.89543 1 4 1H10V4C10 4.55228 10.4477 5 11 5H14V12C14 13.1046 13.1046 14 12 14H4C2.89543 14 2 13.1046 2 12V3ZM4 7.75C4 7.33579 4.33579 7 4.75 7H11.25C11.6642 7 12 7.33579 12 7.75C12 8.16421 11.6642 8.5 11.25 8.5H4.75C4.33579 8.5 4 8.16421 4 7.75ZM4.75 10C4.33579 10 4 10.3358 4 10.75C4 11.1642 4.33579 11.5 4.75 11.5H11.25C11.6642 11.5 12 11.1642 12 10.75C12 10.3358 11.6642 10 11.25 10H4.75Z" fill="#11B466"/>
</svg>
