<svg width="16" height="16" viewBox="0 0 16 16" fill="none" xmlns="http://www.w3.org/2000/svg">
<path d="M5 5.5C5 3.84315 6.34315 2.5 8 2.5V2.5C9.65685 2.5 11 3.84315 11 5.5V7H5V5.5Z" stroke="#FFB524" stroke-width="1.5"/>
<path fill-rule="evenodd" clip-rule="evenodd" d="M4 6C2.89543 6 2 6.89543 2 8V12C2 13.1046 2.89543 14 4 14H12C13.1046 14 14 13.1046 14 12V8C14 6.89543 13.1046 6 12 6H4ZM8 11.5C8.82843 11.5 9.5 10.8284 9.5 10C9.5 9.17157 8.82843 8.5 8 8.5C7.17157 8.5 6.5 9.17157 6.5 10C6.5 10.8284 7.17157 11.5 8 11.5Z" fill="#FFB524"/>
</svg>
