<svg width="1373" height="512" viewBox="0 0 1373 512" fill="none" xmlns="http://www.w3.org/2000/svg">
<path d="M0 0H1373V512H0V0Z" fill="#190A43"/>
<path d="M111.432 276.749L111.434 214.813C111.434 201.09 118.683 188.388 130.497 181.406L198.406 141.278C210.583 134.082 225.711 134.082 237.889 141.278L305.797 181.406C317.612 188.387 324.86 201.09 324.86 214.814L324.86 296.645C324.86 310.368 317.612 323.071 305.797 330.053L237.889 370.181C225.711 377.377 210.583 377.377 198.406 370.181L138.113 334.554" stroke="#9246FF" stroke-width="38.8053" stroke-linecap="round" stroke-linejoin="round"/>
<ellipse cx="218.149" cy="255.729" rx="48.5065" ry="48.5066" stroke="#0CC4FF" stroke-width="38.8053"/>
<path fill-rule="evenodd" clip-rule="evenodd" d="M195.687 304.411L151.817 348.28C144.24 355.858 131.955 355.858 124.378 348.28C116.801 340.703 116.801 328.418 124.378 320.841L168.247 276.972L195.687 304.411Z" fill="#0CC4FF"/>
<path d="M522.352 239.782C522.652 243.375 522.802 248.693 522.802 255.736C522.802 262.778 522.652 268.096 522.352 271.689C521.152 290.517 515.08 305.176 504.134 315.668C493.189 326.016 477.22 331.19 456.229 331.19H399.552C397.903 331.19 396.478 330.615 395.279 329.466C394.079 328.316 393.479 326.951 393.479 325.37V186.102C393.479 184.521 394.079 183.155 395.279 182.006C396.478 180.856 397.903 180.281 399.552 180.281H455.104C476.546 180.281 492.814 185.527 503.909 196.019C515.005 206.367 521.152 220.955 522.352 239.782ZM423.842 207.229V304.242H455.104C466.95 304.242 475.871 301.296 481.868 295.403C488.016 289.511 491.39 281.606 491.989 271.689C492.289 268.096 492.439 262.778 492.439 255.736C492.439 248.693 492.289 243.375 491.989 239.782C491.39 229.865 487.941 221.961 481.644 216.068C475.496 210.175 466.275 207.229 453.98 207.229H423.842Z" fill="white"/>
<path d="M590.072 216.93C601.018 216.93 610.689 219.445 619.085 224.476C627.482 229.362 633.929 235.974 638.427 244.31C643.075 252.646 645.399 261.772 645.399 271.689V281.39C645.399 282.971 644.8 284.337 643.6 285.486C642.401 286.636 640.976 287.211 639.327 287.211H564.208C564.208 293.391 566.757 298.35 571.854 302.086C576.952 305.679 583.025 307.476 590.072 307.476C598.319 307.476 604.691 305.823 609.189 302.518C610.839 301.368 612.188 300.577 613.238 300.146C614.287 299.715 615.712 299.499 617.511 299.499H635.504C637.153 299.499 638.577 300.074 639.777 301.224C640.976 302.23 641.576 303.452 641.576 304.889C641.576 307.907 639.477 311.716 635.279 316.315C631.23 320.914 625.308 324.938 617.511 328.388C609.714 331.693 600.568 333.346 590.072 333.346C578.977 333.346 569.231 330.903 560.834 326.016C552.587 321.13 546.215 314.303 541.717 305.536C537.219 296.769 534.97 286.636 534.97 275.138C534.97 264.359 537.219 254.586 541.717 245.819C546.215 236.908 552.662 229.865 561.059 224.691C569.455 219.517 579.127 216.93 590.072 216.93ZM615.037 262.634C613.388 249.412 605.066 242.8 590.072 242.8C582.275 242.8 576.128 244.813 571.63 248.837C567.281 252.861 564.807 257.46 564.208 262.634H615.037Z" fill="white"/>
<path d="M784.442 277.725C786.241 277.725 787.741 278.3 788.94 279.45C790.14 280.456 790.664 281.821 790.514 283.546C789.915 291.882 787.141 299.859 782.193 307.476C777.395 315.093 770.048 321.345 760.152 326.232C750.406 330.975 738.186 333.346 723.492 333.346C703.4 333.346 687.656 327.957 676.261 317.177C664.866 306.254 658.568 291.81 657.369 273.845C657.069 266.659 656.919 260.622 656.919 255.736C656.919 250.849 657.069 244.813 657.369 237.626C658.568 219.661 664.866 205.289 676.261 194.509C687.656 183.586 703.4 178.125 723.492 178.125C738.186 178.125 750.406 180.568 760.152 185.455C770.048 190.198 777.395 196.378 782.193 203.995C787.141 211.613 789.915 219.589 790.514 227.925C790.664 229.65 790.14 231.087 788.94 232.237C787.741 233.243 786.241 233.746 784.442 233.746H766.224C764.725 233.746 763.301 233.243 761.951 232.237C760.602 231.231 759.777 229.865 759.477 228.141C758.278 221.673 754.679 216.212 748.682 211.756C742.834 207.301 734.437 205.073 723.492 205.073C712.396 205.073 703.775 208.091 697.627 214.128C691.63 220.164 688.331 227.997 687.731 237.626C687.432 244.813 687.282 250.849 687.282 255.736C687.282 260.622 687.432 266.659 687.731 273.845C688.331 283.474 691.63 291.307 697.627 297.344C703.775 303.38 712.396 306.398 723.492 306.398C734.437 306.398 742.909 304.17 748.906 299.715C754.904 295.26 758.502 289.798 759.702 283.33C760.002 281.606 760.752 280.24 761.951 279.234C763.301 278.228 764.725 277.725 766.224 277.725H784.442Z" fill="white"/>
<path d="M915.472 325.37C915.472 326.951 914.872 328.316 913.673 329.466C912.473 330.615 911.049 331.19 909.4 331.19H892.306C890.657 331.19 889.233 330.615 888.033 329.466C886.834 328.316 886.234 326.951 886.234 325.37V270.611C886.234 261.7 884.06 254.73 879.712 249.699C875.363 244.669 868.991 242.154 860.594 242.154C852.798 242.154 846.575 244.741 841.927 249.915C837.279 255.089 834.955 261.988 834.955 270.611V325.37C834.955 326.951 834.355 328.316 833.156 329.466C831.956 330.615 830.532 331.19 828.882 331.19H811.789C810.14 331.19 808.716 330.615 807.516 329.466C806.317 328.316 805.717 326.951 805.717 325.37V183.946C805.717 182.365 806.317 180.999 807.516 179.85C808.716 178.7 810.14 178.125 811.789 178.125H828.882C830.532 178.125 831.956 178.7 833.156 179.85C834.355 180.999 834.955 182.365 834.955 183.946V229.865C843.951 221.242 854.747 216.93 867.342 216.93C884.285 216.93 896.505 221.601 904.002 230.943C911.649 240.285 915.472 252.43 915.472 267.377V325.37Z" fill="white"/>
<path d="M985.664 216.93C996.61 216.93 1006.28 219.445 1014.68 224.476C1023.07 229.362 1029.52 235.974 1034.02 244.31C1038.67 252.646 1040.99 261.772 1040.99 271.689V281.39C1040.99 282.971 1040.39 284.337 1039.19 285.486C1037.99 286.636 1036.57 287.211 1034.92 287.211H959.8C959.8 293.391 962.349 298.35 967.447 302.086C972.545 305.679 978.617 307.476 985.664 307.476C993.911 307.476 1000.28 305.823 1004.78 302.518C1006.43 301.368 1007.78 300.577 1008.83 300.146C1009.88 299.715 1011.3 299.499 1013.1 299.499H1031.1C1032.75 299.499 1034.17 300.074 1035.37 301.224C1036.57 302.23 1037.17 303.452 1037.17 304.889C1037.17 307.907 1035.07 311.716 1030.87 316.315C1026.82 320.914 1020.9 324.938 1013.1 328.388C1005.31 331.693 996.16 333.346 985.664 333.346C974.569 333.346 964.823 330.903 956.426 326.016C948.18 321.13 941.807 314.303 937.309 305.536C932.811 296.769 930.562 286.636 930.562 275.138C930.562 264.359 932.811 254.586 937.309 245.819C941.807 236.908 948.255 229.865 956.651 224.691C965.048 219.517 974.719 216.93 985.664 216.93ZM1010.63 262.634C1008.98 249.412 1000.66 242.8 985.664 242.8C977.868 242.8 971.72 244.813 967.222 248.837C962.874 252.861 960.4 257.46 959.8 262.634H1010.63Z" fill="white"/>
<path d="M1080.18 282.684C1081.07 291.02 1084 297.272 1088.95 301.44C1094.04 305.464 1100.04 307.476 1106.94 307.476C1113.69 307.476 1118.71 306.542 1122.01 304.673C1125.31 302.805 1128.38 299.859 1131.23 295.834C1132.43 293.966 1133.55 292.529 1134.6 291.523C1135.8 290.517 1137.15 290.014 1138.65 290.014H1155.74C1157.39 290.014 1158.82 290.589 1160.02 291.738C1161.37 292.888 1161.97 294.253 1161.82 295.834C1161.52 300.577 1159.34 305.895 1155.29 311.788C1151.25 317.68 1145.1 322.783 1136.85 327.094C1128.76 331.262 1118.78 333.346 1106.94 333.346C1096.29 333.346 1086.85 331.118 1078.6 326.663C1070.5 322.208 1064.06 316.243 1059.26 308.77C1054.46 301.152 1051.69 292.888 1050.94 283.977C1050.79 282.253 1050.71 279.378 1050.71 275.354C1050.71 271.186 1050.79 268.24 1050.94 266.515C1051.69 257.604 1054.39 249.412 1059.03 241.938C1063.83 234.321 1070.35 228.284 1078.6 223.829C1086.85 219.23 1096.29 216.93 1106.94 216.93C1118.78 216.93 1128.76 219.086 1136.85 223.398C1145.1 227.566 1151.25 232.596 1155.29 238.489C1159.34 244.381 1161.52 249.699 1161.82 254.442C1161.97 256.023 1161.37 257.388 1160.02 258.538C1158.82 259.688 1157.39 260.263 1155.74 260.263H1138.65C1137.15 260.263 1135.8 259.76 1134.6 258.754C1133.55 257.748 1132.43 256.31 1131.23 254.442C1128.38 250.418 1125.31 247.472 1122.01 245.603C1118.71 243.735 1113.69 242.8 1106.94 242.8C1100.04 242.8 1094.04 244.884 1088.95 249.052C1084 253.077 1081.07 259.257 1080.18 267.593C1080.03 269.03 1079.95 271.545 1079.95 275.138C1079.95 278.731 1080.03 281.246 1080.18 282.684Z" fill="white"/>
<path d="M1206.61 325.37C1206.61 326.951 1206.01 328.316 1204.81 329.466C1203.61 330.615 1202.18 331.19 1200.53 331.19H1183.44C1181.79 331.19 1180.37 330.615 1179.17 329.466C1177.97 328.316 1177.37 326.951 1177.37 325.37V183.946C1177.37 182.365 1177.97 180.999 1179.17 179.85C1180.37 178.7 1181.79 178.125 1183.44 178.125H1200.53C1202.18 178.125 1203.61 178.7 1204.81 179.85C1206.01 180.999 1206.61 182.365 1206.61 183.946V251.855L1244.17 222.751C1245.82 221.601 1247.24 220.739 1248.44 220.164C1249.64 219.445 1251.14 219.086 1252.94 219.086H1275.88C1277.38 219.086 1278.65 219.589 1279.7 220.595C1280.75 221.601 1281.28 222.823 1281.28 224.26C1281.28 225.841 1280.45 227.278 1278.8 228.572L1226.4 269.102L1283.75 321.92C1285.25 323.357 1286 324.723 1286 326.016C1286 327.454 1285.47 328.675 1284.43 329.681C1283.38 330.687 1282.1 331.19 1280.6 331.19H1258.79C1255.64 331.19 1252.56 329.969 1249.56 327.525L1206.61 288.289V325.37Z" fill="white"/>
</svg>
