<svg width="147" height="40" viewBox="0 0 147 40" fill="none" xmlns="http://www.w3.org/2000/svg">
<g id="Group 234">
<path id="Polygon 11 (Stroke)" fill-rule="evenodd" clip-rule="evenodd" d="M35.6493 16.1845C37.0401 18.5381 37.0401 21.4619 35.6493 23.8155L30.4789 32.5655C29.1295 34.849 26.6743 36.25 24.0219 36.25L16.2501 36.25C14.8694 36.25 13.7501 35.1307 13.7501 33.75C13.7501 32.3693 14.8694 31.25 16.2501 31.25L24.0219 31.25C24.9061 31.25 25.7245 30.783 26.1742 30.0218L31.3447 21.2718C31.8083 20.4873 31.8083 19.5127 31.3447 18.7282L26.1742 9.97818C25.7245 9.217 24.9061 8.75 24.0219 8.75L13.4782 8.75C12.5941 8.75 11.7757 9.21699 11.3259 9.97817L6.15546 18.7282C5.69188 19.5127 5.69188 20.4873 6.15546 21.2718L7.15239 22.9589C7.8548 24.1476 7.46059 25.6807 6.2719 26.3831C5.08321 27.0855 3.55017 26.6913 2.84776 25.5026L1.85082 23.8155C0.460089 21.4619 0.46009 18.5381 1.85083 16.1845L7.02128 7.43453C8.37065 5.15098 10.8258 3.75 13.4782 3.75L24.0219 3.75C26.6743 3.75 29.1295 5.15099 30.4789 7.43453L35.6493 16.1845Z" fill="white"/>
<path id="Polygon 12 (Stroke)" fill-rule="evenodd" clip-rule="evenodd" d="M35.6493 16.1845C37.0401 18.5381 37.0401 21.4619 35.6493 23.8155L30.4789 32.5655C29.1295 34.849 26.6743 36.25 24.0219 36.25L16.2501 36.25C14.8694 36.25 13.7501 35.1307 13.7501 33.75C13.7501 32.3693 14.8694 31.25 16.2501 31.25L24.0219 31.25C24.9061 31.25 25.7245 30.783 26.1742 30.0218L31.3447 21.2718C31.8083 20.4873 31.8083 19.5127 31.3447 18.7282L26.1742 9.97818C25.7245 9.217 24.9061 8.75 24.0219 8.75L13.4782 8.75C12.5941 8.75 11.7757 9.21699 11.3259 9.97817L6.15546 18.7282C5.69188 19.5127 5.69188 20.4873 6.15546 21.2718L10.5615 28.7282C11.2639 29.9169 10.8697 31.4499 9.68099 32.1523C8.4923 32.8547 6.95926 32.4605 6.25685 31.2718L1.85083 23.8155C0.460089 21.4619 0.460092 18.5381 1.85083 16.1845L7.02128 7.43453C8.37065 5.15098 10.8258 3.75 13.4782 3.75L24.0219 3.75C26.6743 3.75 29.1295 5.15099 30.4789 7.43453L35.6493 16.1845Z" fill="url(#paint0_linear_91_3153)"/>
<path id="Union" fill-rule="evenodd" clip-rule="evenodd" d="M15 20C15 17.9289 16.6789 16.25 18.75 16.25C20.821 16.25 22.5 17.9289 22.5 20C22.5 22.0711 20.821 23.75 18.75 23.75C16.6789 23.75 15 22.0711 15 20ZM18.75 11.25C13.9175 11.25 9.99998 15.1675 9.99998 20C9.99998 21.7214 10.4971 23.3267 11.3555 24.6802L6.85937 29.1764C6.00758 30.0282 6.10852 31.5101 7.08483 32.4865C8.06114 33.4628 9.54311 33.5637 10.3949 32.7119L15.1358 27.971C16.2375 28.4714 17.4612 28.75 18.75 28.75C23.5825 28.75 27.5 24.8325 27.5 20C27.5 15.1675 23.5825 11.25 18.75 11.25Z" fill="url(#paint1_linear_91_3153)"/>
<g id="DeCheck">
<path d="M45.0416 13.0321L46.8186 13.0046C49.9164 13.0046 52.0926 13.5 53.3469 14.4908C53.613 14.6804 53.9044 14.9985 54.2212 15.445C55.1397 16.7355 55.599 18.1606 55.599 19.7202C55.599 22.5031 54.6076 24.5612 52.6247 25.8945C51.44 26.6957 50.078 27.1024 48.5386 27.1147L48.5005 27.1514H48.263L45.7353 27.1239C44.5886 27.1239 43.1537 27.1514 41.4306 27.2064C41.3102 26.9862 41.25 26.7263 41.25 26.4266L41.2595 26.0963V24.6651L41.2785 22.6284V19.2706C41.2658 18.5 41.2595 17.9251 41.2595 17.5459V16.0413L41.269 15.8303V13.2064C41.269 13.1575 41.6143 13.1177 42.3048 13.0872C42.9953 13.0505 43.5465 13.0321 43.9583 13.0321H45.0416ZM49.0707 16.2064C48.7096 15.9557 48.3105 15.815 47.8734 15.7844C47.7213 15.7783 47.5123 15.7722 47.2462 15.7661C46.9864 15.7599 46.7964 15.7538 46.676 15.7477C46.562 15.9128 46.486 16.0352 46.448 16.1147L46.2769 16.4541V16.9679C46.2769 18.026 46.3023 19.4602 46.3529 21.2706L46.41 23.922C46.448 24.1116 46.5747 24.2248 46.7901 24.2615C47.4426 24.2492 47.9462 24.2064 48.301 24.133C49.549 23.7049 50.173 22.2401 50.173 19.7385C50.173 17.8853 49.8056 16.708 49.0707 16.2064Z" fill="url(#paint2_linear_91_3153)"/>
<path d="M61.851 15.656C62.1361 15.5765 62.4402 15.5367 62.7633 15.5367C63.0864 15.5367 63.3936 15.5489 63.6851 15.5734L64.0842 15.6101C64.7113 15.6651 65.1928 15.7355 65.5286 15.8211V15.8119L65.7281 15.8945C67.0585 16.292 68.0943 16.8976 68.8355 17.711V17.7018C69.0066 17.8976 69.2156 18.1942 69.4627 18.5917C69.7161 18.9832 69.8428 19.2554 69.8428 19.4083L69.9188 19.656L69.9663 19.922C70.0867 20.3318 70.1469 20.6743 70.1469 20.9495C70.1469 21.2248 70.15 21.4358 70.1564 21.5826H62.3262V21.8853C62.3642 22.026 62.3832 22.1728 62.3832 22.3257C62.3832 22.4786 62.3832 22.6009 62.3832 22.6927C62.3895 22.7783 62.399 22.8639 62.4117 22.9495C62.4244 23.0291 62.4307 23.0963 62.4307 23.1514C62.437 23.2003 62.4529 23.2615 62.4782 23.3349C62.5036 23.4021 62.5162 23.448 62.5162 23.4725C62.5226 23.4969 62.5416 23.5459 62.5732 23.6193C62.6113 23.6927 62.6398 23.763 62.6588 23.8303C62.6841 23.8914 62.7285 23.9526 62.7918 24.0138V24.0046L62.8963 24.1972C63.0167 24.3257 63.1814 24.4174 63.3905 24.4725C63.7389 24.3991 63.9733 24.2248 64.0937 23.9495C64.2204 23.6743 64.3249 23.3318 64.4073 22.922C64.6353 22.8609 64.9584 22.8303 65.3765 22.8303L66.5929 22.8578H70.0994C70.0233 23.604 69.7953 24.289 69.4152 24.9128H69.4247C69.0952 25.4144 68.5821 25.8456 67.8852 26.2064C65.915 26.8731 64.6512 27.2064 64.0937 27.2064C63.9923 27.2064 63.91 27.2003 63.8466 27.1881H63.628L63.5425 27.1972H63.457C63.4063 27.1972 63.343 27.1911 63.2669 27.1789C63.2036 27.2156 63.1276 27.2339 63.0389 27.2339L62.2121 27.1422C62.1678 27.1606 62.0759 27.1697 61.9366 27.1697C61.8035 27.1697 61.4488 27.0872 60.8723 26.922V26.9312L60.6442 26.867L60.4161 26.7936C59.4659 26.5245 58.6518 26.0535 57.9739 25.3807C57.2961 24.7018 56.8621 23.9128 56.6721 23.0138C56.6531 22.9037 56.6182 22.7385 56.5676 22.5183C56.5169 22.292 56.4915 22.1391 56.4915 22.0596V21.6193C56.4915 21.5153 56.4947 21.4358 56.501 21.3807V21.2431C56.501 19.9465 56.9001 18.8272 57.6984 17.8853C58.4966 16.9373 59.5672 16.2706 60.9103 15.8853L61.1383 15.8211C61.4741 15.7661 61.7148 15.708 61.8605 15.6468L61.851 15.656ZM64.6923 20.3716L64.8919 20.2523C64.7842 19.5917 64.6828 19.1697 64.5878 18.9862C64.4928 18.7966 64.4009 18.6346 64.3122 18.5C64.1475 18.2431 63.929 18.1147 63.6565 18.1147C63.3905 18.1147 63.1624 18.2431 62.9724 18.5C62.6366 18.9526 62.4244 19.5887 62.3357 20.4083C62.7411 20.3838 63.1149 20.3716 63.457 20.3716H64.6923Z" fill="url(#paint3_linear_91_3153)"/>
<path d="M71.8661 19.5917C72.0181 18.1972 72.2715 17.1483 72.6263 16.445C73.3042 15.0872 74.3146 14.1239 75.6577 13.555C76.855 13.0474 78.1569 12.7936 79.5633 12.7936C81.9199 12.7936 83.6399 13.4174 84.7232 14.6651C85.3757 15.4052 85.7527 16.3257 85.854 17.4266L85.9396 18.289C85.8319 18.3869 85.1508 18.4358 83.8965 18.4358L82.3856 18.4174H82.262L81.4353 18.3991L81.2072 18.4083H81.0172C80.8398 18.4083 80.7036 18.1575 80.6086 17.656C80.5199 17.1544 80.3805 16.8242 80.1904 16.6651C80.0067 16.5 79.7913 16.4174 79.5443 16.4174C79.2972 16.4174 79.0786 16.4602 78.8886 16.5459C78.7049 16.6315 78.5528 16.7355 78.4324 16.8578C78.3121 16.974 78.2107 17.1422 78.1284 17.3624C77.9763 17.7416 77.8845 18.1453 77.8528 18.5734C77.8211 18.9954 77.8053 19.4694 77.8053 19.9954V20.2156L77.7673 21.1422C77.7673 22.8303 78.2614 23.6927 79.2497 23.7294C79.5031 23.7294 79.6805 23.6865 79.7818 23.6009C80.0542 23.3685 80.2918 22.9006 80.4945 22.1972C80.5389 22.0505 80.5927 21.9312 80.6561 21.8394H81.0172L81.4543 21.8486H82.9937L83.4594 21.8394L84.3621 21.8486H84.9133L85.4739 21.8578H85.854C85.9301 21.8639 85.9839 21.9281 86.0156 22.0505L85.9871 22.3532C85.9301 23.0749 85.7558 23.7294 85.4644 24.3165C84.9259 25.393 84.077 26.1942 82.9177 26.7202C81.7647 27.2401 80.4977 27.5 79.1166 27.5C76.703 27.5 74.8911 26.8119 73.6811 25.4358C72.4711 24.0596 71.8661 22.1116 71.8661 19.5917Z" fill="url(#paint4_linear_91_3153)"/>
<path d="M100.012 20.8028L100.022 23.656V25.3349L100.031 26.9128H94.6337L94.6242 22.2156L94.6528 21.1972C94.6528 20.6407 94.5672 20.2278 94.3962 19.9587C94.2315 19.6835 94.0256 19.5459 93.7785 19.5459C93.3097 19.5459 93.0183 19.7722 92.9043 20.2248C92.8219 20.5428 92.7807 20.9587 92.7807 21.4725V22.6468L92.7902 23.0321V26.9037L90.063 26.9128H87.3547L87.3452 19.7202V12.5183C88.6186 12.5061 90.4526 12.5 92.8472 12.5L92.8567 17.1239C93.3002 16.6407 93.8387 16.2554 94.4722 15.9679C95.112 15.6804 95.6949 15.5367 96.2207 15.5367C96.7465 15.5367 97.2628 15.659 97.7696 15.9037C98.2764 16.1483 98.6946 16.4725 99.024 16.8761C99.3027 17.2982 99.5403 17.8089 99.7367 18.4083C99.9331 19.0015 100.031 19.4969 100.031 19.8945L100.012 20.8028Z" fill="url(#paint5_linear_91_3153)"/>
<path d="M106.663 15.656C106.948 15.5765 107.253 15.5367 107.576 15.5367C107.899 15.5367 108.206 15.5489 108.497 15.5734L108.896 15.6101C109.524 15.6651 110.005 15.7355 110.341 15.8211V15.8119L110.54 15.8945C111.871 16.292 112.907 16.8976 113.648 17.711V17.7018C113.819 17.8976 114.028 18.1942 114.275 18.5917C114.528 18.9832 114.655 19.2554 114.655 19.4083L114.731 19.656L114.779 19.922C114.899 20.3318 114.959 20.6743 114.959 20.9495C114.959 21.2248 114.962 21.4358 114.969 21.5826H107.139V21.8853C107.177 22.026 107.196 22.1728 107.196 22.3257C107.196 22.4786 107.196 22.6009 107.196 22.6927C107.202 22.7783 107.211 22.8639 107.224 22.9495C107.237 23.0291 107.243 23.0963 107.243 23.1514C107.249 23.2003 107.265 23.2615 107.291 23.3349C107.316 23.4021 107.329 23.448 107.329 23.4725C107.335 23.4969 107.354 23.5459 107.386 23.6193C107.424 23.6927 107.452 23.763 107.471 23.8303C107.496 23.8914 107.541 23.9526 107.604 24.0138V24.0046L107.709 24.1972C107.829 24.3257 107.994 24.4174 108.203 24.4725C108.551 24.3991 108.786 24.2248 108.906 23.9495C109.033 23.6743 109.137 23.3318 109.22 22.922C109.448 22.8609 109.771 22.8303 110.189 22.8303L111.405 22.8578H114.912C114.836 23.604 114.608 24.289 114.227 24.9128H114.237C113.908 25.4144 113.394 25.8456 112.698 26.2064C110.727 26.8731 109.463 27.2064 108.906 27.2064C108.805 27.2064 108.722 27.2003 108.659 27.1881H108.44L108.355 27.1972H108.269C108.219 27.1972 108.155 27.1911 108.079 27.1789C108.016 27.2156 107.94 27.2339 107.851 27.2339L107.024 27.1422C106.98 27.1606 106.888 27.1697 106.749 27.1697C106.616 27.1697 106.261 27.0872 105.685 26.922V26.9312L105.457 26.867L105.228 26.7936C104.278 26.5245 103.464 26.0535 102.786 25.3807C102.108 24.7018 101.674 23.9128 101.484 23.0138C101.465 22.9037 101.431 22.7385 101.38 22.5183C101.329 22.292 101.304 22.1391 101.304 22.0596V21.6193C101.304 21.5153 101.307 21.4358 101.313 21.3807V21.2431C101.313 19.9465 101.712 18.8272 102.511 17.8853C103.309 16.9373 104.38 16.2706 105.723 15.8853L105.951 15.8211C106.286 15.7661 106.527 15.708 106.673 15.6468L106.663 15.656ZM109.505 20.3716L109.704 20.2523C109.597 19.5917 109.495 19.1697 109.4 18.9862C109.305 18.7966 109.213 18.6346 109.125 18.5C108.96 18.2431 108.741 18.1147 108.469 18.1147C108.203 18.1147 107.975 18.2431 107.785 18.5C107.449 18.9526 107.237 19.5887 107.148 20.4083C107.553 20.3838 107.927 20.3716 108.269 20.3716H109.505Z" fill="url(#paint6_linear_91_3153)"/>
<path d="M123.682 27.1881L122.922 27.2339C122.535 27.2339 122.155 27.1911 121.781 27.1055C121.528 27.1055 121.186 27.0413 120.755 26.9128C119.311 26.5826 118.234 26.0107 117.524 25.1972L117.353 25.0046C116.802 24.3196 116.444 23.3991 116.279 22.2431L116.251 22.0505C116.225 21.8547 116.213 21.6223 116.213 21.3532C116.213 21.078 116.267 20.708 116.374 20.2431C116.773 18.5245 117.613 17.3379 118.893 16.6835L120.175 16.0229C121.126 15.6927 122.31 15.5275 123.729 15.5275C124.268 15.5275 124.765 15.5948 125.221 15.7294L125.411 15.7844C125.405 15.7844 125.402 15.7813 125.402 15.7752H125.421C127.568 16.3257 128.997 17.237 129.707 18.5092L129.726 18.5734C130.042 19.1911 130.255 19.8823 130.362 20.6468L130.144 20.5734H124.195L124.148 20.2339C124.046 19.5306 123.875 19.0627 123.634 18.8303L123.444 18.7202C122.887 18.7569 122.573 19.4908 122.504 20.922C122.497 21.1177 122.488 21.2339 122.475 21.2706L122.485 21.5642L122.513 22.0963C122.513 22.1391 122.516 22.185 122.523 22.2339L122.618 22.3257H122.513C122.545 22.7844 122.643 23.1361 122.808 23.3807C122.979 23.6254 123.15 23.7477 123.321 23.7477C123.644 23.7477 123.866 23.5581 123.986 23.1789C124.106 22.7997 124.167 22.4541 124.167 22.1422C124.654 22.1177 125.389 22.1055 126.371 22.1055H126.732L127.645 22.1147H128.557L130.391 22.1239C130.194 24.0872 129.235 25.4755 127.511 26.289C127.385 26.3318 127.211 26.4021 126.989 26.5L126.628 26.6651C125.62 27.0382 124.699 27.2248 123.862 27.2248C123.774 27.2248 123.714 27.2125 123.682 27.1881Z" fill="url(#paint7_linear_91_3153)"/>
<path d="M144.425 15.9128L144.606 15.922H145.338C145.376 15.922 145.43 15.919 145.499 15.9128C145.575 15.9067 145.639 15.9037 145.689 15.9037C145.632 16.1911 145.445 16.5765 145.129 17.0596C145.021 17.182 144.923 17.3287 144.834 17.5V17.4908C144.511 17.9618 143.903 18.9465 143.01 20.445C143.466 21.393 143.877 22.2309 144.245 22.9587C144.612 23.6804 144.897 24.2431 145.1 24.6468L146.25 26.9128H139.712L139.056 25.0229C138.79 24.2768 138.464 23.292 138.078 22.0688L137.717 22.8578V26.8945C137.102 26.9128 136.123 26.922 134.78 26.922C133.437 26.922 132.386 26.9159 131.625 26.9037V12.5092H134.647L137.669 12.5C137.669 13.2401 137.675 14.5703 137.688 16.4908C137.707 18.4113 137.717 19.7599 137.717 20.5367L138.078 19.5092C138.306 18.8058 138.724 17.607 139.332 15.9128H144.425Z" fill="url(#paint8_linear_91_3153)"/>
</g>
</g>
<defs>
<linearGradient id="paint0_linear_91_3153" x1="31.8751" y1="30.625" x2="10.6251" y2="3.75" gradientUnits="userSpaceOnUse">
<stop stop-color="#1E50FF"/>
<stop offset="1" stop-color="#1EC9FF"/>
</linearGradient>
<linearGradient id="paint1_linear_91_3153" x1="23.8276" y1="14.2088" x2="7.11672" y2="28.2544" gradientUnits="userSpaceOnUse">
<stop stop-color="#1E50FF"/>
<stop offset="1" stop-color="#1EC9FF"/>
</linearGradient>
<linearGradient id="paint2_linear_91_3153" x1="155.933" y1="17.3917" x2="40.1152" y2="11.8024" gradientUnits="userSpaceOnUse">
<stop stop-color="#1E50FF"/>
<stop offset="1" stop-color="#1EC9FF"/>
</linearGradient>
<linearGradient id="paint3_linear_91_3153" x1="155.933" y1="17.3917" x2="40.1152" y2="11.8024" gradientUnits="userSpaceOnUse">
<stop stop-color="#1E50FF"/>
<stop offset="1" stop-color="#1EC9FF"/>
</linearGradient>
<linearGradient id="paint4_linear_91_3153" x1="155.933" y1="17.3917" x2="40.1152" y2="11.8024" gradientUnits="userSpaceOnUse">
<stop stop-color="#1E50FF"/>
<stop offset="1" stop-color="#1EC9FF"/>
</linearGradient>
<linearGradient id="paint5_linear_91_3153" x1="155.933" y1="17.3917" x2="40.1152" y2="11.8024" gradientUnits="userSpaceOnUse">
<stop stop-color="#1E50FF"/>
<stop offset="1" stop-color="#1EC9FF"/>
</linearGradient>
<linearGradient id="paint6_linear_91_3153" x1="155.933" y1="17.3917" x2="40.1152" y2="11.8024" gradientUnits="userSpaceOnUse">
<stop stop-color="#1E50FF"/>
<stop offset="1" stop-color="#1EC9FF"/>
</linearGradient>
<linearGradient id="paint7_linear_91_3153" x1="155.933" y1="17.3917" x2="40.1152" y2="11.8024" gradientUnits="userSpaceOnUse">
<stop stop-color="#1E50FF"/>
<stop offset="1" stop-color="#1EC9FF"/>
</linearGradient>
<linearGradient id="paint8_linear_91_3153" x1="155.933" y1="17.3917" x2="40.1152" y2="11.8024" gradientUnits="userSpaceOnUse">
<stop stop-color="#1E50FF"/>
<stop offset="1" stop-color="#1EC9FF"/>
</linearGradient>
</defs>
</svg>
