<svg width="42" height="32" viewBox="0 0 42 32" fill="none" xmlns="http://www.w3.org/2000/svg">
<g id="Group 89">
<path id="Union" fill-rule="evenodd" clip-rule="evenodd" d="M0.00341799 20.998C0.00365104 7.3502 2.37712 6.05791 12.6928 0.441309C12.9576 0.297149 13.2276 0.15014 13.5029 0L17.0029 7C10.8745 9.68135 9.44107 11.4823 9.10578 16H17V32L0 32L0 21L0.00341799 20.998Z" fill="#2D78E8" fill-opacity="0.22"/>
<path id="Union_2" fill-rule="evenodd" clip-rule="evenodd" d="M24.0034 20.998C24.0037 7.3502 26.3771 6.05791 36.6928 0.441309C36.9576 0.297149 37.2276 0.15014 37.5029 0L41.0029 7C34.8745 9.68135 33.4411 11.4823 33.1058 16H41V32L24 32V21L24.0034 20.998Z" fill="#2D78E8" fill-opacity="0.22"/>
</g>
</svg>
