<svg width="32" height="32" viewBox="0 0 32 32" fill="none" xmlns="http://www.w3.org/2000/svg">
<g id="Group 15">
<g id="Group 9">
<path id="Vector" d="M16.1274 7.66346C18.8165 7.66346 20.9963 6.39565 20.9963 4.83173C20.9963 3.26781 18.8165 2 16.1274 2C13.4384 2 11.2585 3.26781 11.2585 4.83173C11.2585 6.39565 13.4384 7.66346 16.1274 7.66346Z" fill="white" fill-opacity="0.44"/>
<path id="Vector_2" d="M16.1274 28.9999C18.8165 28.9999 20.9963 27.7321 20.9963 26.1682C20.9963 24.6042 18.8165 23.3364 16.1274 23.3364C13.4384 23.3364 11.2585 24.6042 11.2585 26.1682C11.2585 27.7321 13.4384 28.9999 16.1274 28.9999Z" fill="white" fill-opacity="0.44"/>
<path id="Vector_3" d="M9.34232 11.583C10.6868 9.25432 10.6781 6.73221 9.32283 5.94972C7.96756 5.16723 5.77895 6.42067 4.43445 8.74936C3.08994 11.078 3.09866 13.6002 4.45394 14.3826C5.80921 15.1651 7.99781 13.9117 9.34232 11.583Z" fill="white" fill-opacity="0.44"/>
<path id="Vector_4" d="M27.8185 22.25C29.163 19.9213 29.155 17.3997 27.8007 16.6177C26.4463 15.8357 24.2584 17.0896 22.9139 19.4183C21.5694 21.747 21.5774 24.2687 22.9318 25.0506C24.2861 25.8326 26.474 24.5787 27.8185 22.25Z" fill="white" fill-opacity="0.44"/>
<path id="Vector_5" d="M9.32356 25.0503C10.6788 24.2678 10.6876 21.7457 9.34305 19.417C7.99854 17.0883 5.80994 15.8349 4.45467 16.6174C3.0994 17.3998 3.09067 19.922 4.43518 22.2506C5.77969 24.5793 7.96829 25.8328 9.32356 25.0503Z" fill="white" fill-opacity="0.44"/>
<path id="Vector_6" d="M27.8016 14.3838C29.156 13.6018 29.164 11.0801 27.8195 8.75143C26.475 6.42274 24.2871 5.16887 22.9327 5.95083C21.5784 6.7328 21.5704 9.25447 22.9149 11.5832C24.2594 13.9118 26.4473 15.1657 27.8016 14.3838Z" fill="white" fill-opacity="0.44"/>
</g>
</g>
</svg>
