<svg width="100" height="100" viewBox="0 0 100 100" fill="none" xmlns="http://www.w3.org/2000/svg">
<rect width="100" height="100" fill="#00C2FF"/>
<mask id="mask0_431_257" style="mask-type:alpha" maskUnits="userSpaceOnUse" x="0" y="0" width="100" height="100">
<rect width="100" height="100" fill="#1BC8FF"/>
</mask>
<g mask="url(#mask0_431_257)">
<path d="M20.5668 74.8848L18.8844 70.6828C18.8844 70.6828 17.8257 63.3435 23.1437 59.103C29.5497 53.9949 46.4828 51.6396 54.0886 53.0264C63.9593 54.8262 75.9955 57.9177 75.9955 57.9177L79.8641 62.4468L81.1517 67.557L80.7317 72.3874L78.8883 76.3707L81.4182 79.0772L86.9228 85.9097L89.1846 96.2573L88.7158 100.67H11.1546L10.8887 98.2387L11.1546 95.2753L15.4549 82.3907L18.8844 78.6377L21.5373 76.0172L20.5668 74.8848Z" fill="#656D89"/>
<path d="M24.6617 57.4396C17.7983 61.9631 17.2995 71.9147 21.5421 76.1574C16.0306 80.5249 6.66093 92.6603 13.2748 106.262" stroke="black" stroke-linecap="round" stroke-linejoin="round"/>
<path d="M21.3892 76.0314C22.6039 76.4652 26.0226 77.2027 29.979 76.6821" stroke="black" stroke-linecap="round" stroke-linejoin="round"/>
<path d="M26.0198 61.5806C22.4596 64.0987 22.7203 71.4794 24.7174 76.4289" stroke="black" stroke-linecap="round" stroke-linejoin="round"/>
<path d="M21.3627 84.2342C18.7166 87.5457 16.3776 94.7968 17.6507 101.127" stroke="black" stroke-linecap="round" stroke-linejoin="round"/>
<path d="M75.3383 57.4396C82.2017 61.9631 82.7005 71.9147 78.4579 76.1574C83.9694 80.5249 93.3391 92.6603 86.7252 106.262" stroke="black" stroke-linecap="round" stroke-linejoin="round"/>
<path d="M78.6108 76.0314C77.3961 76.4652 73.9774 77.2027 70.021 76.6821" stroke="black" stroke-linecap="round" stroke-linejoin="round"/>
<path d="M73.9802 61.5806C77.5404 64.0987 77.2797 71.4794 75.2826 76.4289" stroke="black" stroke-linecap="round" stroke-linejoin="round"/>
<path d="M78.6373 84.2342C81.2834 87.5457 83.6224 94.7968 82.3493 101.127" stroke="black" stroke-linecap="round" stroke-linejoin="round"/>
<path d="M74.2545 69.8701L73.8593 66.8304L72.4306 67.0736L69.7556 66.8304L67.8711 65.2194V66.4048L66.6856 68.7454L65.3177 70.5996L67.3543 70.9947L68.6918 71.6331V72.4538L67.0807 74.7335V75.7366L68.2662 76.0406L69.7556 75.5542L70.3636 74.0344V72.4538H70.9108L72.4306 73.5481L73.6465 73.2745L74.4368 72.1194L74.2545 69.8701Z" fill="#00D6AC"/>
<path d="M25.6816 69.8701L26.0767 66.8304L27.5055 67.0736L30.1805 66.8304L32.065 65.2194V66.4048L33.2504 68.7454L34.6183 70.5996L32.5817 70.9947L31.2443 71.6331V72.4538L32.8553 74.7335V75.7366L31.6699 76.0406L30.1805 75.5542L29.5725 74.0344V72.4538H29.0253L27.5055 73.5481L26.2895 73.2745L25.4992 72.1194L25.6816 69.8701Z" fill="#00D6AC"/>
<rect x="44" y="71" width="11" height="29" fill="white"/>
<path d="M29.5 79.5L30 77.5L31.5 79L30.5 80L29.5 79.5Z" fill="#2E3035"/>
<path d="M70.5 79.5L70 77.5L69 79L70 80L70.5 79.5Z" fill="#2E3035"/>
<path d="M47 97L44.5 97.5L45 98.5L45.5 101H54.5V99.5L55 98L53 97L50 98L47 97Z" fill="#FFDDCF"/>
<path d="M35.5 44L31 45.5L31.5 41.5L34 37L37.5 33.5L42.5 31L49 30L55 30.5L61 32.5L66 36.5L68.5 41.5L69 45.5L67.5 45L59.5 43.5L51.5 43L41 43.5L35.5 44Z" fill="#00D6AC"/>
<path d="M29 47L31 45.5L31.5 46.5L33.5 47.5L39 48.5L43.5 49H48.5H54L60.5 48.5L65 48L68.5 47L69 46L71 47L72 49.5L71.5 52.5L68.5 54L64.5 55L56 56H46L37 55.5L30.5 54L28.5 52.5L28 50L29 47Z" fill="#495B6D"/>
<path d="M29.5 46.5L31 46L32 47L36 48L44 49H55L66.5 47.5L69 46L71 47L68.5 48.5L63 50L57.5 50.5L52 51H48L43 50.5L37.5 50L33 49L29.5 47.5V46.5Z" fill="#627B94"/>
<path d="M24 57L26.5 55L29 53L34.5 55L40 55.5L46.5 56H56L66.5 55L71 53L73 55L75.5 56.5L76.5 58.5V62L76 64.5L74.5 66.5L71.5 67L69.5 66.5L68 65.5L66.5 69L64 71.5L60 73.5L54 74.5H47L40.5 73.5L37.5 72.5L34 70L32.5 67.5L32 65L31 66L29 67H26.5L24.5 65.5L23.5 63.5L23 61L24 57Z" fill="white"/>
<path d="M27.2213 54.7645L28.9586 53.0672L30.7159 53.806L38.0843 55.4235L46.4911 55.9427L59.0513 55.6831L66.0603 54.7246L71.0325 52.8675L72.0509 53.5864L72.7897 54.425L72.3305 54.9243L69.2952 55.743L68.177 57.8197L67.8575 59.3573L67.3383 62.3741L66.26 63.1729H64.7224L63.4644 61.7152L63.0251 59.0578L62.2663 57.6999L60.6289 59.0578H58.8916L57.6735 58.1192L56.7949 57.4403L56.1559 58.3988L54.199 59.4372L50.8842 59.8765H47.8889L44.8337 59.0777L43.1164 57.2207L42.6771 57.7598L41.6187 58.8181L40.6203 59.0777H39.2025L38.0843 58.299L37.3255 57.2207L37.1657 58.5985L36.5447 61.4403L35.5547 63.2552L33.6573 63.5026L32.5436 61.8527L31.914 57.9595L30.7159 56.0026L28.5792 55.104L27.2213 54.7645Z" fill="#00D6AC"/>
<path d="M32.1771 62.6891L31.8562 65.5066L29.8947 66.8262L27.2555 67.1471L25.0443 66.3625L23.5821 63.9374L23.1898 60.2283L24.0458 57.0542L26.0073 55.3066L28.5751 54.8787L30.501 55.9129L31.8562 57.3752L32.1771 59.4437V61.4403V62.6891Z" fill="#FFDDCF"/>
<path d="M67.64 62.7145L67.9609 65.532L69.9225 66.8515L72.5616 67.1725L74.7728 66.3879L76.235 63.9627L76.6273 60.2537L75.7713 57.0796L73.8099 55.332L71.2421 54.9041L69.3162 55.9383L67.9609 57.4005V59.4347V61.4092L67.64 62.7145Z" fill="#FFDDCF"/>
<path d="M47 74.5L42 74L43 75.5L45.5 76.5L48 77H52L54 76.5L56.5 75.5L58 74L52 74.5H47Z" fill="#E9CEA5"/>
<path d="M48 77V80V82.7416L48.6136 89.5463L48 96.5979V97.5L46 97L45.5 97.5L45 98L45.5 101H24.5L24 100.5V95.5L24.5 92L25.5 88.5L27.5 84L30 80L35 76.5L36.5 76L38.5 75L39 75.5L38.5 76.5L37 78L37.5 79.5L38.5 80L41.5 79.5L46 77.5L48 77Z" fill="#8D47FF"/>
<path d="M52 77L54 80L52 80.2523L51.3495 88.7443L52 97.5L52.5706 97H54L55 97.5L54.5 98.5L54 101H75.5L76 100.5V95.5L75.5 92L74.5 88.5L72.5 84L70 80L65 76.5L63.5 76L61.5 75L61 75.5L61.5 76.5L63 78L62.5 79.5L61.5 80L58.5 79.5L54 77.5L52 77Z" fill="#8D47FF"/>
<path d="M32.28 62C32.28 62 28.3422 74.5 50 74.5C71.6578 74.5 67.72 62 67.72 62" stroke="black" stroke-linecap="round"/>
<ellipse cx="38.0001" cy="67.8891" rx="2" ry="3.5" transform="rotate(-60 38.0001 67.8891)" fill="#EDEBE9"/>
<ellipse cx="2" cy="3.5" rx="2" ry="3.5" transform="matrix(-0.5 -0.866025 -0.866025 0.5 66.03 67.8711)" fill="#EDEBE9"/>
<path d="M50.0009 69.6757C61.5622 69.6757 62.2882 63.2133 62.1203 60.6453C62.0865 60.1282 61.53 59.8878 61.088 60.1582L60.6598 60.4201C60.1794 60.7139 59.6273 60.8693 59.0642 60.8693H41.4697C41.0406 60.8693 40.6163 60.779 40.2244 60.6043L38.8367 59.9855C38.4002 59.7909 37.9075 60.043 37.8703 60.5195C37.6775 62.9948 38.2457 69.6757 50.0009 69.6757Z" fill="#FF3535"/>
<path d="M59.517 62.3217H40.8229L40.1174 62.9022L41.1756 64.9337L42.9392 66.3848L45.4082 67.5457L48.5827 68.1261H51.7571L55.637 67.2555L57.7534 65.8044L59.517 63.1924V62.3217Z" fill="#416BFF"/>
<path d="M42.9391 64.3533V62.3217H57.7533L57.4005 63.4826L57.0478 64.9337L56.5 66L56.1309 66.675L54.2261 67.5457L51.4043 68.1261H48.5826L46.819 67.8359L45.0554 67.5457L43.9972 66.675L43.6445 65.2239L42.9391 64.3533Z" fill="white"/>
<path d="M59.0733 62.3217H40.9138C40.4904 62.3217 40.1776 62.6896 40.3191 63.0886C40.8785 64.6657 42.9126 68.1261 49.9936 68.1261C57.0745 68.1261 59.1086 64.6657 59.668 63.0886C59.8095 62.6896 59.4967 62.3217 59.0733 62.3217Z" stroke="black" stroke-linecap="round" stroke-linejoin="round"/>
<path d="M42.9391 62.612C42.8216 63.3859 42.6751 64.9337 43.6445 65.2239C44.35 65.4351 49.6021 65.2533 53.5207 65.2239C53.5207 65.2239 54.9315 66.0946 55.2843 66.0946C55.8216 66.0946 55.8921 65.8847 56.6951 65.2239C57.0479 64.9337 57.7533 63.7728 57.4006 62.3217" stroke="black" stroke-linecap="round" stroke-linejoin="round"/>
<path d="M43.6446 65.2239C43.6446 65.5142 43.497 66.4403 43.997 66.9403" stroke="black" stroke-linecap="round" stroke-linejoin="round"/>
<path d="M56.3424 65.5142C56.3424 65.8044 56.598 66.5638 56.2246 66.8603" stroke="black" stroke-linecap="round" stroke-linejoin="round"/>
<path d="M72 24.8871C72 26.325 69.1794 30.6388 67.7689 29.9198C66.3583 29.2009 67.0635 24.8871 68.4741 23.4492C69.5569 22.3454 72 23.4492 72 24.8871Z" fill="white" stroke="black"/>
<path d="M79.9046 30C78.1158 30 76.6748 31.3542 76.1779 32.0313C75.1841 30.6771 73.4205 28.7576 71.7056 31.3542C69.4697 34.7397 73.1962 35.4168 73.9419 33.3855C76.1779 36.771 78.7497 36.466 80.6499 34.7397C82.8859 32.7084 82.1406 30 79.9046 30Z" fill="white" stroke="black" stroke-linejoin="round"/>
<path d="M28 24.8871C28 26.325 30.8206 30.6388 32.2311 29.9198C33.6417 29.2009 32.9365 24.8871 31.5259 23.4492C30.4431 22.3454 28 23.4492 28 24.8871Z" fill="white" stroke="black"/>
<path d="M20.0954 30C21.8842 30 23.3252 31.3542 23.8221 32.0313C24.8159 30.6771 26.5795 28.7576 28.2944 31.3542C30.5303 34.7397 26.8038 35.4168 26.0581 33.3855C23.8221 36.771 21.2503 36.466 19.3501 34.7397C17.1141 32.7084 17.8594 30 20.0954 30Z" fill="white" stroke="black" stroke-linejoin="round"/>
<path d="M68 58.0766C68.5 56.5766 70.0408 54.5834 73 55.0766C75.9592 55.5698 77.0833 59.0766 76.5 62.5766C76.0833 65.0766 75 67.0766 72 67.0766C69.6819 67.0766 68 65.8502 68 64.5212" stroke="black" stroke-linecap="round"/>
<path d="M69 60.5766C70.5 58.5766 73 58.0766 75 60.0766" stroke="black" stroke-linecap="round"/>
<path d="M72 59.0766C73.5 60.5766 72.5 63.5766 71 64.0766" stroke="black" stroke-linecap="round"/>
<path d="M32 58.0766C31.5 56.5766 29.9592 54.5834 27 55.0766C24.0408 55.5698 22.9167 59.0766 23.5 62.5766C23.9167 65.0766 25 67.0766 28 67.0766C30.3181 67.0766 32 65.8502 32 64.5212" stroke="black" stroke-linecap="round"/>
<path d="M31 60.5766C29.5 58.5766 27 58.0766 25 60.0766" stroke="black" stroke-linecap="round"/>
<path d="M28 59.0766C26.5 60.5766 27.5 63.5766 29 64.0766" stroke="black" stroke-linecap="round"/>
<path d="M42 74C42 74 43.9394 77 50 77C56.0606 77 58 74 58 74" stroke="black" stroke-linecap="round" stroke-linejoin="round"/>
<path d="M61.85 75.5C72.85 77.5 76.85 92.5 75.85 100.5" stroke="black" stroke-linecap="round" stroke-linejoin="round"/>
<path d="M68.35 76.5L69.85 77.5L68.35 79.5L67.35 82L66.35 85.5V88.5L66.85 92L67.85 95L64.35 95.5L63.35 93L62.35 89V86.5L62.85 84L63.35 81.5L64.35 78.5L65.85 76.5L66.85 76L68.35 76.5Z" fill="#495B6D"/>
<path d="M57.5196 73.2757L62.2001 72.8009C62.2001 72.8009 63.2127 72.538 64.0293 71.9919C64.6308 71.5895 64.9707 71.2849 64.9707 71.2849L66.2306 70.3282L69.2612 71.9919L67.7703 74.0359L67 76L65.4702 76.3538L64.3002 77.8884L64.0293 79.1114L60.9365 80.0591L56.7056 80.5H53.7887H52.5706L52.0711 78.8092L52.5706 76.3538L53.7887 74.0359L57.5196 73.2757Z" fill="#8D47FF"/>
<path d="M69.85 80C71.85 78.5 68.7041 75.7044 66.778 76.0254C63.7779 76.5254 60.35 87.5002 64.35 95.5002" stroke="black"/>
<path d="M69.7779 77.5252C65.278 82.5252 65.85 91 67.35 93.5" stroke="black"/>
<path d="M68.7778 76.5252C64.2779 81.5252 63.778 91.5252 66.7779 95.0252" stroke="black"/>
<path d="M71.85 97C66.85 95 57.35 95.5 55.85 97C54.5851 98.2649 54.35 100 54.35 100.5" stroke="black" stroke-linecap="round" stroke-linejoin="round"/>
<path d="M66.35 95.5C66.85 94 67.35 92 69.85 90" stroke="black" stroke-linecap="round" stroke-linejoin="round"/>
<path d="M66.35 95.5C66.85 94 69.35 91.5 73.35 92" stroke="black" stroke-linecap="round" stroke-linejoin="round"/>
<path d="M66.35 95.5C66.85 95 68.85 93.5 70.85 94" stroke="black" stroke-linecap="round" stroke-linejoin="round"/>
<path d="M60.35 96C59.35 98 59.35 99.5 60.35 100.5" stroke="black" stroke-linecap="round" stroke-linejoin="round"/>
<path d="M38.1481 75.5C27.1481 77.5 23.1481 92.5 24.1481 100.5" stroke="black" stroke-linecap="round" stroke-linejoin="round"/>
<path d="M31.6481 76.5L30.1481 77.5L31.6481 79.5L32.6481 82L33.6481 85.5V88.5L33.1481 92L32.1481 95L35.6481 95.5L36.6481 93L37.6481 89V86.5L37.1481 84L36.6481 81.5L35.6481 78.5L34.1481 76.5L33.1481 76L31.6481 76.5Z" fill="#495B6D"/>
<path d="M42.2128 73.0963L37.5323 72.6215C37.5323 72.6215 36.5197 72.3586 35.7031 71.8125C35.1016 71.4102 34.7617 71.1055 34.7617 71.1055L33.5 71L31.2202 71.6114L32.0977 73.0963L32.9752 75.6479L34.2622 76.1745L35.4322 77.709L37.9873 79.8797H40.5803L43.0268 80.3206H45.9437L47.3003 79.8797L47.7752 77.709L47.029 74.7582L45.5706 73.0963H42.2128Z" fill="#8D47FF"/>
<path d="M30.1481 80C28.1481 78.5 31.294 75.7044 33.22 76.0254C36.2202 76.5254 39.648 87.5002 35.6481 95.5002" stroke="black"/>
<path d="M30.2201 77.5252C34.7201 82.5252 34.1481 91 32.6481 93.5" stroke="black"/>
<path d="M31.2202 76.5252C35.7202 81.5252 36.2201 91.5252 33.2202 95.0252" stroke="black"/>
<path d="M28.1481 97C33.1481 95 42.6481 95.5 44.1481 97C45.413 98.2649 45.6481 100 45.6481 100.5" stroke="black" stroke-linecap="round" stroke-linejoin="round"/>
<path d="M33.6482 95.5C33.1482 94 32.6482 92 30.1482 90" stroke="black" stroke-linecap="round" stroke-linejoin="round"/>
<path d="M33.6482 95.5C33.1482 94 30.6482 91.5 26.6482 92" stroke="black" stroke-linecap="round" stroke-linejoin="round"/>
<path d="M33.6482 95.5C33.1482 95 31.1482 93.5 29.1482 94" stroke="black" stroke-linecap="round" stroke-linejoin="round"/>
<path d="M39.6482 96C40.6482 98 40.6482 99.5 39.6482 100.5" stroke="black" stroke-linecap="round" stroke-linejoin="round"/>
<path d="M45 98C45 98 46.5581 96.8835 47.5 97.0932C48.6319 97.3452 48.9313 98 49.9997 98C51.0681 98 51.3679 97.3452 52.5 97.0932C53.4419 96.8836 55 98 55 98" stroke="black" stroke-linecap="round" stroke-linejoin="round"/>
<path d="M66 45C66 43.9443 65.8785 42.9431 65.6476 42M34 45C34 36.8947 41.1634 32 50 32C51.7461 32 53.4269 32.1911 55 32.5604M58.5 33.7599C60.4663 34.6769 62.1448 35.9362 63.4122 37.5" stroke="white" stroke-opacity="0.44" stroke-linecap="round" stroke-linejoin="round"/>
<path d="M69 46C69 36.0242 60.4934 30 50 30C39.5066 30 31 36.0242 31 46" stroke="black" stroke-linejoin="round"/>
<ellipse cx="50" cy="46" rx="19" ry="3" fill="#00D6AC" stroke="black"/>
<path d="M31 50L28.5 48.5L28 50.5L29 53L30.5 54L34 55L39 55.5H41V55V53.5L40.5 52L39.5 51.5H37.5L34 51L31 50Z" fill="#627B94"/>
<path d="M28.5 48.5C31 50.5 35.75 51.4286 39.5 52C41.7243 52.3389 40.9375 54.7143 40.9375 56" stroke="black"/>
<circle cx="39.2278" cy="53.2354" r="0.5" fill="black"/>
<ellipse cx="29.8925" cy="52" rx="0.392456" ry="0.5" transform="rotate(-32.0079 29.8925 52)" fill="black"/>
<path d="M69 50L71.5 48.5L72 50.5L71 53L69.5 54L66 55L61 55.5H59V55V53.5L59.5 52L60.5 51.5H62.5L66 51L69 50Z" fill="#627B94"/>
<path d="M71.5 48.5C69 50.5 64.25 51.4286 60.5 52C58.2757 52.3389 59.0625 54.7143 59.0625 56" stroke="black"/>
<circle cx="0.5" cy="0.5" r="0.5" transform="matrix(-1 0 0 1 61.2722 52.7354)" fill="black"/>
<ellipse cx="0.392456" cy="0.5" rx="0.392456" ry="0.5" transform="matrix(-0.847975 -0.530035 -0.530035 0.847975 70.7053 51.784)" fill="black"/>
<path d="M30.8545 46C28 46 27.6159 51 28.7352 52.5385C29.9867 54.2585 36.57 56 50.0002 56C63.4305 56 70.0137 54.2586 71.265 52.5385C72.3841 51 72 46 69.1456 46" stroke="black"/>
<path d="M52.0234 43.4111L53.5672 42.0119L56.3656 45.0993C56.752 45.5256 56.7197 46.1844 56.2934 46.5708C55.8671 46.9572 55.2083 46.9249 54.8219 46.4986L52.0234 43.4111Z" fill="white" stroke="black"/>
<ellipse cx="49.9969" cy="39.624" rx="7.29225" ry="7.29225" transform="rotate(-42.1885 49.9969 39.624)" fill="white" stroke="black"/>
<path d="M53.486 36.4617C55.2324 38.3886 55.0862 41.3664 53.1593 43.1129C51.2325 44.8593 48.2546 44.7131 46.5082 42.7862C44.7617 40.8594 44.9079 37.8815 46.8348 36.1351C48.7617 34.3886 51.7395 34.5348 53.486 36.4617Z" fill="#AEFFEF" stroke="black"/>
<path d="M50 34C42.268 34 36 38.3508 36 45.5556C36 45.5556 39.3158 47 50 47C60.6842 47 64 45.5556 64 45.5556C64 38.3508 57.732 34 50 34Z" fill="white" fill-opacity="0.44"/>
<path opacity="0.66" d="M38.7059 40.0744C39.5515 37.852 41.6657 36 43.7798 36C45.8939 36 45.753 36.7408 43.7798 38.5928C41.8067 40.4448 40.2281 41.9263 39.5516 41.9263C38.7059 41.9263 38.2831 41.1855 38.7059 40.0744Z" fill="white"/>
<ellipse opacity="0.66" cx="37.5866" cy="44.9062" rx="1.06066" ry="1.90132" transform="rotate(17.6291 37.5866 44.9062)" fill="white"/>
<path d="M29.5001 46.5C28 49 41.0001 51 50.0001 51C59.0001 51 71.5001 49 70.5001 46.5" stroke="black" stroke-linecap="round"/>
<path d="M43 56.9055C43 56.9055 43.9452 59.9781 50 59.9781C56.0548 59.9781 57 57.0498 57 57.0498" stroke="black" stroke-linecap="round" stroke-linejoin="round"/>
<path d="M57 56.9055C57 56.9055 57.3736 59.0766 59.767 59.0766C62.1604 59.0766 62.5341 57.0074 62.5341 57.0074" stroke="black" stroke-linecap="round" stroke-linejoin="round"/>
<path d="M62.5901 57.0628C62.5901 57.0628 62.5901 63.494 65.5313 63.494C68.4726 63.494 68.0118 58.0457 68.0118 58.0457" stroke="black" stroke-linecap="round" stroke-linejoin="round"/>
<path d="M43 56.9055C43 56.9055 42.6264 59.0766 40.233 59.0766C37.8396 59.0766 37.4659 57.0074 37.4659 57.0074" stroke="black" stroke-linecap="round" stroke-linejoin="round"/>
<path d="M37.41 57.0628C37.41 57.0628 37.41 63.494 34.4688 63.494C31.5276 63.494 31.9883 58.0457 31.9883 58.0457" stroke="black" stroke-linecap="round" stroke-linejoin="round"/>
<path d="M19.62 6.6C20.74 6.6 21.62 6.848 22.26 7.344C22.908 7.84 23.232 8.572 23.232 9.54C23.232 10.5 22.912 11.216 22.272 11.688C21.632 12.152 20.748 12.384 19.62 12.384H18.78V14.676C18.78 14.764 18.748 14.84 18.684 14.904C18.62 14.968 18.544 15 18.456 15H15.984C15.896 15 15.82 14.968 15.756 14.904C15.692 14.84 15.66 14.764 15.66 14.676V6.924C15.66 6.836 15.692 6.76 15.756 6.696C15.82 6.632 15.896 6.6 15.984 6.6H19.62ZM19.56 10.164C19.704 10.164 19.832 10.112 19.944 10.008C20.056 9.896 20.112 9.732 20.112 9.516C20.112 9.332 20.068 9.172 19.98 9.036C19.892 8.9 19.752 8.832 19.56 8.832H18.72V10.164H19.56ZM31.8489 14.604C31.8729 14.652 31.8849 14.696 31.8849 14.736C31.8849 14.808 31.8569 14.872 31.8009 14.928C31.7529 14.976 31.6929 15 31.6209 15H29.1609C29.0169 15 28.9009 14.968 28.8129 14.904C28.7329 14.832 28.6769 14.756 28.6449 14.676L27.6129 12.384H27.1209V14.676C27.1209 14.764 27.0889 14.84 27.0249 14.904C26.9609 14.968 26.8849 15 26.7969 15H24.4449C24.3569 15 24.2809 14.968 24.2169 14.904C24.1529 14.84 24.1209 14.764 24.1209 14.676V6.924C24.1209 6.836 24.1529 6.76 24.2169 6.696C24.2809 6.632 24.3569 6.6 24.4449 6.6H27.9969C29.1489 6.6 30.0489 6.86 30.6969 7.38C31.3449 7.892 31.6689 8.604 31.6689 9.516C31.6689 10.036 31.5529 10.496 31.3209 10.896C31.0889 11.288 30.7729 11.612 30.3729 11.868L31.8489 14.604ZM27.9969 10.104C28.1729 10.104 28.3089 10.048 28.4049 9.936C28.5009 9.816 28.5489 9.668 28.5489 9.492C28.5489 9.316 28.5009 9.164 28.4049 9.036C28.3169 8.9 28.1809 8.832 27.9969 8.832H27.1209V10.104H27.9969ZM40.5225 11.88C40.4745 12.936 40.0945 13.74 39.3825 14.292C38.6705 14.844 37.7145 15.12 36.5145 15.12C35.3145 15.12 34.3585 14.844 33.6465 14.292C32.9345 13.74 32.5545 12.936 32.5065 11.88C32.4985 11.664 32.4945 11.316 32.4945 10.836C32.4945 10.348 32.4985 9.992 32.5065 9.768C32.5305 9.08 32.7105 8.488 33.0465 7.992C33.3905 7.496 33.8585 7.12 34.4505 6.864C35.0425 6.608 35.7305 6.48 36.5145 6.48C37.2985 6.48 37.9865 6.608 38.5785 6.864C39.1705 7.12 39.6345 7.496 39.9705 7.992C40.3145 8.488 40.4985 9.08 40.5225 9.768C40.5385 10.216 40.5465 10.572 40.5465 10.836C40.5465 11.1 40.5385 11.448 40.5225 11.88ZM36.5145 12.78C36.7865 12.78 36.9985 12.7 37.1505 12.54C37.3105 12.38 37.3945 12.136 37.4025 11.808C37.4185 11.344 37.4265 11.004 37.4265 10.788C37.4265 10.556 37.4185 10.224 37.4025 9.792C37.3945 9.464 37.3105 9.22 37.1505 9.06C36.9905 8.9 36.7785 8.82 36.5145 8.82C36.2505 8.82 36.0385 8.9 35.8785 9.06C35.7185 9.22 35.6345 9.464 35.6265 9.792C35.6185 10.008 35.6145 10.34 35.6145 10.788C35.6145 11.236 35.6185 11.576 35.6265 11.808C35.6345 12.136 35.7145 12.38 35.8665 12.54C36.0265 12.7 36.2425 12.78 36.5145 12.78ZM49.4168 9.9C49.4328 10.348 49.4408 10.652 49.4408 10.812C49.4408 10.964 49.4328 11.256 49.4168 11.688C49.3688 12.792 48.9928 13.62 48.2888 14.172C47.5928 14.724 46.6528 15 45.4688 15H41.9528C41.8648 15 41.7888 14.968 41.7248 14.904C41.6608 14.84 41.6288 14.764 41.6288 14.676V6.924C41.6288 6.836 41.6608 6.76 41.7248 6.696C41.7888 6.632 41.8648 6.6 41.9528 6.6H45.4088C46.1688 6.6 46.8448 6.728 47.4368 6.984C48.0288 7.24 48.5008 7.616 48.8528 8.112C49.2048 8.608 49.3928 9.204 49.4168 9.9ZM44.6288 8.94V12.66H45.4088C45.6888 12.66 45.9128 12.58 46.0808 12.42C46.2568 12.252 46.3528 12.008 46.3688 11.688C46.3848 11.456 46.3928 11.156 46.3928 10.788C46.3928 10.412 46.3848 10.116 46.3688 9.9C46.3528 9.58 46.2488 9.34 46.0568 9.18C45.8728 9.02 45.6368 8.94 45.3488 8.94H44.6288ZM57.8916 6.6C57.9796 6.6 58.0556 6.632 58.1196 6.696C58.1836 6.76 58.2156 6.836 58.2156 6.924V11.832C58.2156 12.928 57.8676 13.752 57.1716 14.304C56.4756 14.848 55.5316 15.12 54.3396 15.12C53.1396 15.12 52.1876 14.848 51.4836 14.304C50.7876 13.752 50.4396 12.928 50.4396 11.832V6.924C50.4396 6.836 50.4716 6.76 50.5356 6.696C50.5996 6.632 50.6756 6.6 50.7636 6.6H53.1156C53.2036 6.6 53.2796 6.632 53.3436 6.696C53.4076 6.76 53.4396 6.836 53.4396 6.924V11.784C53.4396 12.088 53.5116 12.32 53.6556 12.48C53.8076 12.632 54.0316 12.708 54.3276 12.708C54.6236 12.708 54.8436 12.632 54.9876 12.48C55.1396 12.32 55.2156 12.088 55.2156 11.784V6.924C55.2156 6.836 55.2476 6.76 55.3116 6.696C55.3756 6.632 55.4516 6.6 55.5396 6.6H57.8916ZM62.3687 11.808C62.3767 12.16 62.4567 12.412 62.6087 12.564C62.7607 12.708 62.9767 12.78 63.2567 12.78C63.7127 12.78 64.0127 12.564 64.1567 12.132C64.1967 11.996 64.2447 11.904 64.3007 11.856C64.3647 11.808 64.4647 11.784 64.6007 11.784H67.0487C67.1207 11.784 67.1807 11.812 67.2287 11.868C67.2847 11.916 67.3127 11.976 67.3127 12.048C67.3047 12.744 67.1087 13.324 66.7247 13.788C66.3487 14.244 65.8567 14.58 65.2487 14.796C64.6487 15.012 63.9887 15.12 63.2687 15.12C62.0607 15.12 61.1007 14.856 60.3887 14.328C59.6767 13.792 59.2967 12.972 59.2487 11.868C59.2407 11.652 59.2367 11.3 59.2367 10.812C59.2367 10.316 59.2407 9.956 59.2487 9.732C59.2967 8.66 59.6847 7.852 60.4127 7.308C61.1407 6.756 62.0927 6.48 63.2687 6.48C63.9887 6.48 64.6487 6.588 65.2487 6.804C65.8567 7.02 66.3487 7.36 66.7247 7.824C67.1087 8.28 67.3047 8.856 67.3127 9.552C67.3127 9.624 67.2847 9.688 67.2287 9.744C67.1807 9.792 67.1207 9.816 67.0487 9.816H64.6007C64.4727 9.816 64.3767 9.792 64.3127 9.744C64.2567 9.696 64.2047 9.604 64.1567 9.468C64.0687 9.228 63.9527 9.06 63.8087 8.964C63.6647 8.868 63.4807 8.82 63.2567 8.82C62.9767 8.82 62.7607 8.896 62.6087 9.048C62.4567 9.192 62.3767 9.44 62.3687 9.792C62.3607 10.008 62.3567 10.34 62.3567 10.788C62.3567 11.236 62.3607 11.576 62.3687 11.808ZM71.1455 11.904H74.4815C74.5695 11.904 74.6455 11.872 74.7095 11.808C74.7735 11.744 74.8055 11.668 74.8055 11.58V10.02C74.8055 9.932 74.7735 9.856 74.7095 9.792C74.6455 9.728 74.5695 9.696 74.4815 9.696H71.1455V8.94H74.7455C74.8335 8.94 74.9095 8.908 74.9735 8.844C75.0375 8.78 75.0695 8.704 75.0695 8.616V6.924C75.0695 6.836 75.0375 6.76 74.9735 6.696C74.9095 6.632 74.8335 6.6 74.7455 6.6H68.5895C68.5015 6.6 68.4255 6.632 68.3615 6.696C68.2975 6.76 68.2655 6.836 68.2655 6.924V14.676C68.2655 14.764 68.2975 14.84 68.3615 14.904C68.4255 14.968 68.5015 15 68.5895 15H74.8415C74.9295 15 75.0055 14.968 75.0695 14.904C75.1335 14.84 75.1655 14.764 75.1655 14.676V12.984C75.1655 12.896 75.1335 12.82 75.0695 12.756C75.0055 12.692 74.9295 12.66 74.8415 12.66H71.1455V11.904ZM83.9974 14.604C84.0214 14.652 84.0334 14.696 84.0334 14.736C84.0334 14.808 84.0054 14.872 83.9494 14.928C83.9014 14.976 83.8414 15 83.7694 15H81.3094C81.1654 15 81.0494 14.968 80.9614 14.904C80.8814 14.832 80.8254 14.756 80.7934 14.676L79.7614 12.384H79.2694V14.676C79.2694 14.764 79.2374 14.84 79.1734 14.904C79.1094 14.968 79.0334 15 78.9454 15H76.5934C76.5054 15 76.4294 14.968 76.3654 14.904C76.3014 14.84 76.2694 14.764 76.2694 14.676V6.924C76.2694 6.836 76.3014 6.76 76.3654 6.696C76.4294 6.632 76.5054 6.6 76.5934 6.6H80.1454C81.2974 6.6 82.1974 6.86 82.8454 7.38C83.4934 7.892 83.8174 8.604 83.8174 9.516C83.8174 10.036 83.7014 10.496 83.4694 10.896C83.2374 11.288 82.9214 11.612 82.5214 11.868L83.9974 14.604ZM80.1454 10.104C80.3214 10.104 80.4574 10.048 80.5534 9.936C80.6494 9.816 80.6974 9.668 80.6974 9.492C80.6974 9.316 80.6494 9.164 80.5534 9.036C80.4654 8.9 80.3294 8.832 80.1454 8.832H79.2694V10.104H80.1454Z" fill="white"/>
<path d="M45.9996 97.102C47.2986 93.2266 46.5776 84.034 45.9996 80.5C45.9996 80.5 46.5 76.5 44.9996 75C36.0545 75 33.5 74 31.0545 72C32.0392 70.8916 33.8656 70.6032 34.8656 70.6032" stroke="black" stroke-linecap="round" stroke-linejoin="round"/>
<path d="M38.0973 79.5895C40.2738 80.8248 43.886 80.8528 45.9886 80.4871C46.7066 80.4871 47.4578 80.33 47.7422 79.5723" stroke="black" stroke-linecap="round" stroke-linejoin="round"/>
<path d="M33.9066 71.9881C35.4265 72.8275 37.4209 73.5 45.1866 73.5C47.0446 73.5 48.08 77.275 47.7109 80.1017C48.5381 84.8532 48.9467 94.7513 47.7109 97.0215" stroke="black" stroke-linecap="round" stroke-linejoin="round"/>
<path d="M31.0763 72.0323C31.743 72.699 32.9621 74.8505 32.9621 75.6505" stroke="black" stroke-linecap="round" stroke-linejoin="round"/>
<path d="M54.005 97.102C52.7059 93.2266 53.4269 84.034 54.0049 80.5C54.0049 80.5 53.5045 76.5 55.0049 75C63.95 75 66.5045 74 68.95 72C67.9653 70.8916 66.1389 70.6032 65.1389 70.6032" stroke="black" stroke-linecap="round" stroke-linejoin="round"/>
<path d="M61.9072 79.5895C59.7308 80.8248 56.1185 80.8528 54.0159 80.4871C53.2979 80.4871 52.5467 80.33 52.2623 79.5723" stroke="black" stroke-linecap="round" stroke-linejoin="round"/>
<path d="M66.0979 71.9881C64.578 72.8275 62.5837 73.5 54.8179 73.5C52.9599 73.5 51.9245 77.275 52.2937 80.1017C51.4664 84.8532 51.0578 94.7513 52.2936 97.0215" stroke="black" stroke-linecap="round" stroke-linejoin="round"/>
<path d="M68.9282 72.0323C68.2616 72.699 67.0424 74.8505 67.0424 75.6505" stroke="black" stroke-linecap="round" stroke-linejoin="round"/>
<path d="M26.9121 84.1003C27.2896 83.3343 27.3633 83.2734 27.3633 83.2734L26.3272 81.6525L24 80.5L21.5 80L19.5 81L18 83L17.5 84.5L16 84L13.5 84.5L10.5 86L9 88.5V92L10.5 95L12.5 96.5L14 97L17.5 97.5L19.5 97L21.5 97.5L23.5 98.5H26.5L29.5 98L32.5 97L35 94.5L36 95L39.5 96L43 95H45.5L47 93.5L46 92.5L43.5 92L41 91H39L37.5 90L34.5 89H32L29 90.5L27 89L25 88L25.736 86.7683C26.0331 85.9668 26.5481 84.8391 26.9121 84.1003Z" fill="white"/>
<path d="M33.8558 93.4134C37.014 96.9325 41.4537 95.818 43.1691 94.6981C44.5192 95.0657 47 95.1903 47 93.7305C47 92.2707 45.0856 91.9541 43.956 92.1746C43.3924 91.3663 41.4129 90.3454 39.3826 91.1575" stroke="black" stroke-linecap="round" stroke-linejoin="round"/>
<path d="M40.3242 92.6815C39.1495 90.442 34.1932 87.1012 29.2371 90.2217" stroke="black" stroke-linecap="round"/>
<path d="M30.208 92.1403C28.4912 88.7558 24.0278 86.2052 18.9264 88.7558" stroke="black" stroke-linecap="round"/>
<path d="M35.1132 94.5928C33.7887 96.8491 25.1558 102.196 17.4059 95.0833" stroke="black" stroke-linecap="round"/>
<path d="M19.1717 97.0453C15.7708 98.0263 9.36148 97.2906 9.01815 91.1593C8.62324 84.1069 14.7571 83.7363 17.602 84.4393C18.1906 80.0248 24.486 78.5643 27.6723 83.0375" stroke="black" stroke-linecap="round" stroke-linejoin="round"/>
<path d="M21.8204 83.8507C24.7635 84.145 25.4993 86.5975 25.4993 88.02" stroke="black" stroke-linecap="round"/>
<path d="M13.1214 92.9131C13.3109 94.358 14.7795 95.0121 15.3066 95.0121" stroke="black" stroke-linecap="round"/>
<path d="M73.0879 84.1003C72.7104 83.3343 72.6367 83.2734 72.6367 83.2734L73.6728 81.6525L76 80.5L78.5 80L80.5 81L82 83L82.5 84.5L84 84L86.5 84.5L89.5 86L91 88.5V92L89.5 95L87.5 96.5L86 97L82.5 97.5L80.5 97L78.5 97.5L76.5 98.5H73.5L70.5 98L67.5 97L65 94.5L64 95L60.5 96L57 95H54.5L53 93.5L54 92.5L56.5 92L59 91H61L62.5 90L65.5 89H68L71 90.5L73 89L75 88L74.264 86.7683C73.9669 85.9668 73.4519 84.8391 73.0879 84.1003Z" fill="white"/>
<path d="M66.1442 93.4134C62.986 96.9325 58.5463 95.818 56.8309 94.6981C55.4808 95.0657 53 95.1903 53 93.7305C53 92.2707 54.9144 91.9541 56.044 92.1746C56.6076 91.3663 58.5871 90.3454 60.6174 91.1575" stroke="black" stroke-linecap="round" stroke-linejoin="round"/>
<path d="M59.6758 92.6815C60.8505 90.442 65.8068 87.1012 70.7629 90.2217" stroke="black" stroke-linecap="round"/>
<path d="M69.792 92.1403C71.5088 88.7558 75.9722 86.2052 81.0736 88.7558" stroke="black" stroke-linecap="round"/>
<path d="M64.8868 94.5928C66.2113 96.8491 74.8442 102.196 82.5941 95.0833" stroke="black" stroke-linecap="round"/>
<path d="M80.8283 97.0453C84.2292 98.0263 90.6385 97.2906 90.9819 91.1593C91.3768 84.1069 85.2429 83.7363 82.398 84.4393C81.8094 80.0248 75.514 78.5643 72.3277 83.0375" stroke="black" stroke-linecap="round" stroke-linejoin="round"/>
<path d="M78.1796 83.8507C75.2365 84.145 74.5007 86.5975 74.5007 88.02" stroke="black" stroke-linecap="round"/>
<path d="M86.8786 92.9131C86.6891 94.358 85.2205 95.0121 84.6934 95.0121" stroke="black" stroke-linecap="round"/>
<path d="M71.3751 53.035C71.9335 53.4225 72.5705 54.2188 72.889 55.0349" stroke="black" stroke-linecap="round" stroke-linejoin="round"/>
<path d="M28.62 53.035C28.0617 53.4225 27.4246 54.2188 27.1061 55.0349" stroke="black" stroke-linecap="round" stroke-linejoin="round"/>
<path d="M73.8771 67.0766C73.8771 70.4663 75.2071 71.9439 73.8771 73.111C72.5687 74.2593 70.2131 72.065 69.6437 69.8508" stroke="black" stroke-linecap="round" stroke-linejoin="round"/>
<path d="M70.0236 70.8415C70.3399 72.1067 70.8256 73.9371 70.0236 75.1648C69.5724 75.8555 68.542 76.1326 67.5321 75.8033" stroke="black" stroke-linecap="round" stroke-linejoin="round"/>
<path d="M26.1249 67.0766C26.1249 70.4663 24.795 71.9439 26.1249 73.111C27.4334 74.2593 29.789 72.065 30.3584 69.8508" stroke="black" stroke-linecap="round" stroke-linejoin="round"/>
<path d="M29.9784 70.8415C29.6622 72.1067 29.1765 73.9371 29.9784 75.1648C30.4296 75.8555 31.4601 76.1326 32.47 75.8033" stroke="black" stroke-linecap="round" stroke-linejoin="round"/>
<path d="M53.5 61.0129C53.5 61.4662 53.1153 61.9938 52.3639 62.4452C51.6392 62.8804 50.7272 63.1446 50 63.1446C49.2728 63.1446 48.3608 62.8804 47.6361 62.4452C46.8847 61.9938 46.5 61.4662 46.5 61.0129C46.5 60.5596 46.8847 60.032 47.6361 59.5807C48.3608 59.1454 49.2728 58.8813 50 58.8813C50.7272 58.8813 51.6392 59.1454 52.3639 59.5807C53.1153 60.032 53.5 60.5596 53.5 61.0129Z" fill="#FF3535" stroke="black"/>
<path d="M71.9363 41.2203L71.7157 41.6952L71.105 40.3891L69.9685 39.965L68.4588 40.6605L67.6616 41.8988L67.9669 42.8657L68.2383 43.612H67L66.576 44.2566L66.4063 45.7833L66.7117 47.2591L67.5259 47.5644L67.9669 47.9036L67.7125 48.9553L68.6285 50.007L70.2908 50.465L71.139 49.7526L71.4273 50.2954H72.1228L73.4968 49.5151L74.1753 48.8928V47.9036L73.8293 46.7502H75.227L75.5833 45.6476V43.9343L74.9896 43.3746L74.0905 43.612L74.3789 42.4925L73.87 40.9658L72.5978 40.2364L71.9363 41.2203Z" fill="white"/>
<path d="M73.0468 47.7443C73.8481 46.9429 74.064 45.7775 73.7518 44.7595C73.0792 42.5663 70.9039 42.7104 69.9665 43.4918C68.9124 44.3705 68.7306 46.1798 69.3934 47.3295C70.2443 48.8055 72.0794 48.7119 73.0468 47.7443Z" fill="#FFEA1B" stroke="black"/>
<path d="M71.668 42.9362C71.668 42.7973 71.979 40.4123 70.574 40.0189C69.2716 39.6542 67.4201 41.2881 67.6914 42.2763C67.9345 43.1618 68.8143 43.8103 69.3584 44.2386M71.6964 42.1973C71.6964 41.5575 72.1021 40.2967 72.6404 40.2967C73.2656 40.2967 74.5554 41.437 74.3267 42.5348C74.1072 43.588 73.8907 43.9434 73.6129 44.2386" stroke="black"/>
<path d="M73.9654 43.7454C74.2132 43.6433 75.2547 42.8685 75.4961 43.9203C75.7002 44.8096 75.6112 46.3518 75.1607 46.763C74.7102 47.1743 73.7321 46.3694 73.7321 46.3694" stroke="black"/>
<path d="M73.8762 46.7652C74.4863 47.5396 74.4656 48.6648 74.0856 49.136C73.7057 49.6072 72.6388 50.291 71.7204 50.291C71.0497 50.291 71.1373 49.0519 71.1373 48.3667" stroke="black"/>
<path d="M69.2019 47.2226C68.3626 47.6423 67.4968 48.1179 67.7008 48.8368C67.9333 49.6565 69.2584 50.4348 70.0897 50.4348C70.5663 50.4348 71.0849 49.9784 71.1606 49.6565" stroke="black"/>
<path d="M69.1964 44.1209C68.6623 43.7648 67.5644 43.2752 66.9858 43.6461C66.279 44.0992 66.3082 46.8959 66.8568 47.3915C67.2045 47.7055 68.3507 47.6668 69.0777 47.2514" stroke="black"/>
<path d="M28.0631 41.2203L28.2837 41.6952L28.8943 40.3891L30.0309 39.965L31.5405 40.6605L32.3378 41.8988L32.0325 42.8657L31.7611 43.612H32.9993L33.4234 44.2566L33.593 45.7833L33.2877 47.2591L32.4735 47.5644L32.0325 47.9036L32.2869 48.9553L31.3709 50.007L29.7086 50.465L28.8604 49.7526L28.572 50.2954H27.8766L26.5026 49.5151L25.8241 48.8928V47.9036L26.1701 46.7502H24.7724L24.4161 45.6476V43.9343L25.0098 43.3746L25.9089 43.612L25.6205 42.4925L26.1294 40.9658L27.4016 40.2364L28.0631 41.2203Z" fill="white"/>
<path d="M26.9526 47.7443C26.1513 46.9429 25.9354 45.7775 26.2476 44.7595C26.9202 42.5663 29.0955 42.7104 30.0329 43.4918C31.087 44.3705 31.2688 46.1798 30.606 47.3295C29.7551 48.8055 27.92 48.7119 26.9526 47.7443Z" fill="#FFEA1B" stroke="black"/>
<path d="M28.3314 42.9362C28.3314 42.7973 28.0204 40.4123 29.4254 40.0189C30.7278 39.6542 32.5793 41.2881 32.308 42.2763C32.0649 43.1618 31.1851 43.8103 30.641 44.2386M28.303 42.1973C28.303 41.5575 27.8973 40.2967 27.359 40.2967C26.7338 40.2967 25.444 41.437 25.6727 42.5348C25.8921 43.588 26.1087 43.9434 26.3865 44.2386" stroke="black"/>
<path d="M26.034 43.7454C25.7862 43.6433 24.7447 42.8685 24.5033 43.9203C24.2992 44.8096 24.3882 46.3518 24.8387 46.763C25.2892 47.1743 26.2673 46.3694 26.2673 46.3694" stroke="black"/>
<path d="M26.1232 46.7652C25.5131 47.5396 25.5338 48.6648 25.9138 49.136C26.2937 49.6072 27.3606 50.291 28.279 50.291C28.9497 50.291 28.8621 49.0519 28.8621 48.3667" stroke="black"/>
<path d="M30.7975 47.2226C31.6368 47.6423 32.5026 48.1179 32.2986 48.8368C32.0661 49.6565 30.741 50.4348 29.9097 50.4348C29.433 50.4348 28.9145 49.9784 28.8387 49.6565" stroke="black"/>
<path d="M30.803 44.1209C31.3371 43.7648 32.435 43.2752 33.0136 43.6461C33.7204 44.0992 33.6912 46.8959 33.1426 47.3915C32.7949 47.7055 31.6487 47.6668 30.9217 47.2514" stroke="black"/>
</g>
</svg>
