<svg width="100" height="100" viewBox="0 0 100 100" fill="none" xmlns="http://www.w3.org/2000/svg">
<rect width="100" height="100" fill="#8D47FF"/>
<mask id="mask0_522_1616" style="mask-type:alpha" maskUnits="userSpaceOnUse" x="0" y="0" width="100" height="100">
<rect width="100" height="100" fill="#8D47FF"/>
</mask>
<g mask="url(#mask0_522_1616)">
<path d="M71.75 74.125H80.7638C81.6209 74.125 82.3507 74.7455 82.4411 75.5979C82.572 76.8326 82.6906 78.6113 82.5 80C82.3723 80.9303 82.056 82.0666 81.7118 83.1209C81.058 85.1228 79.1326 86.375 77.0266 86.375H71.75V74.125Z" fill="#FFA41B" stroke="black"/>
<path d="M75.25 68.875C75.25 68.875 76.5 67.875 79.625 67.875C81.8012 67.875 83.0681 68.36 83.6368 68.6544C83.8855 68.7832 84.0599 69.0085 84.1406 69.2767C84.2885 69.7684 84.5 70.6991 84.5 72C84.5 73.2652 84.2999 74.4803 84.1529 75.2024C84.0644 75.6372 83.7834 75.9976 83.356 76.1168C82.7252 76.2926 81.5691 76.5 79.625 76.5C76.25 76.5 75.25 75.875 75.25 75.875V68.875Z" fill="#FFA41B" stroke="black"/>
<path d="M28.25 74.125H19.2362C18.3791 74.125 17.6493 74.7455 17.5589 75.5979C17.428 76.8326 17.3094 78.6113 17.5 80C17.6277 80.9303 17.944 82.0666 18.2882 83.1209C18.942 85.1228 20.8674 86.375 22.9734 86.375H28.25V74.125Z" fill="#FFA41B" stroke="black"/>
<path d="M24.75 68.875C24.75 68.875 23.5 67.875 20.375 67.875C18.1988 67.875 16.9319 68.36 16.3632 68.6544C16.1145 68.7832 15.9401 69.0085 15.8594 69.2767C15.7115 69.7684 15.5 70.6991 15.5 72C15.5 73.2652 15.7001 74.4803 15.8471 75.2024C15.9356 75.6372 16.2166 75.9976 16.644 76.1168C17.2748 76.2926 18.4309 76.5 20.375 76.5C23.75 76.5 24.75 75.875 24.75 75.875V68.875Z" fill="#FFA41B" stroke="black"/>
<path d="M24.25 54.375C24.25 50.7851 27.1601 47.875 30.75 47.875H36.114C36.6561 47.875 37.1924 47.8163 37.7184 47.7085C39.8174 47.2782 45.8398 46.125 50 46.125C54.1602 46.125 60.1826 47.2782 62.2816 47.7085C62.8076 47.8163 63.3439 47.875 63.886 47.875H69.25C72.8399 47.875 75.75 50.7851 75.75 54.375V61.375C75.75 64.9649 72.8399 67.875 69.25 67.875H30.75C27.1601 67.875 24.25 64.9649 24.25 61.375V54.375Z" fill="#FFEA1B" stroke="black"/>
<path d="M21.5575 68.54C22.0555 65.883 24.4523 64.125 27.2253 64.125H27.3193H27.4132H27.5071H27.6009H27.6947H27.7884H27.882H27.9756H28.0691H28.1626H28.256H28.3494H28.4427H28.5359H28.6291H28.7222H28.8153H28.9083H29.0013H29.0942H29.1871H29.2799H29.3726H29.4653H29.558H29.6506H29.7431H29.8356H29.928H30.0204H30.1127H30.205H30.2972H30.3894H30.4815H30.5735H30.6656H30.7575H30.8494H30.9413H31.0331H31.1249H31.2166H31.3082H31.3999H31.4914H31.5829H31.6744H31.7658H31.8572H31.9485H32.0398H32.131H32.2222H32.3134H32.4044H32.4955H32.5865H32.6774H32.7683H32.8592H32.95H33.0408H33.1315H33.2222H33.3128H33.4034H33.494H33.5845H33.6749H33.7654H33.8557H33.9461H34.0364H34.1266H34.2168H34.307H34.3971H34.4872H34.5772H34.6672H34.7572H34.8471H34.937H35.0268H35.1166H35.2064H35.2961H35.3858H35.4754H35.565H35.6546H35.7441H35.8336H35.9231H36.0125H36.1019H36.1912H36.2805H36.3698H36.459H36.5482H36.6374H36.7265H36.8156H36.9047H36.9937H37.0827H37.1716H37.2605H37.3494H37.4383H37.5271H37.6159H37.7046H37.7934H37.882H37.9707H38.0593H38.1479H38.2365H38.325H38.4135H38.502H38.5904H38.6788H38.7672H38.8555H38.9438H39.0321H39.1204H39.2086H39.2968H39.385H39.4731H39.5612H39.6493H39.7374H39.8254H39.9134H40.0014H40.0894H40.1773H40.2652H40.3531H40.4409H40.5287H40.6165H40.7043H40.792H40.8798H40.9675H41.0551H41.1428H41.2304H41.318H41.4056H41.4931H41.5807H41.6682H41.7557H41.8431H41.9306H42.018H42.1054H42.1928H42.2802H42.3675H42.4548H42.5421H42.6294H42.7167H42.8039H42.8911H42.9783H43.0655H43.1527H43.2398H43.3269H43.4141H43.5011H43.5882H43.6753H43.7623H43.8493H43.9364H44.0233H44.1103H44.1973H44.2842H44.3712H44.4581H44.545H44.6319H44.7187H44.8056H44.8924H44.9793H45.0661H45.1529H45.2397H45.3264H45.4132H45.5H45.5867H45.6734H45.7601H45.8468H45.9335H46.0202H46.1069H46.1936H46.2802H46.3668H46.4535H46.5401H46.6267H46.7133H46.7999H46.8865H46.9731H47.0597H47.1462H47.2328H47.3193H47.4059H47.4924H47.5789H47.6654H47.752H47.8385H47.925H48.0115H48.0979H48.1844H48.2709H48.3574H48.4439H48.5303H48.6168H48.7033H48.7897H48.8762H48.9626H49.0491H49.1355H49.222H49.3084H49.3948H49.4813H49.5677H49.6541H49.7406H49.827H49.9134H49.9999H50.0863H50.1727H50.2592H50.3456H50.432H50.5185H50.6049H50.6914H50.7778H50.8642H50.9507H51.0371H51.1236H51.21H51.2965H51.383H51.4694H51.5559H51.6424H51.7288H51.8153H51.9018H51.9883H52.0748H52.1613H52.2478H52.3343H52.4208H52.5074H52.5939H52.6804H52.767H52.8535H52.9401H53.0267H53.1133H53.1998H53.2864H53.373H53.4597H53.5463H53.6329H53.7195H53.8062H53.8929H53.9795H54.0662H54.1529H54.2396H54.3263H54.4131H54.4998H54.5866H54.6733H54.7601H54.8469H54.9337H55.0205H55.1073H55.1942H55.281H55.3679H55.4548H55.5417H55.6286H55.7155H55.8025H55.8894H55.9764H56.0634H56.1504H56.2374H56.3245H56.4115H56.4986H56.5857H56.6728H56.7599H56.8471H56.9343H57.0214H57.1086H57.1959H57.2831H57.3704H57.4576H57.5449H57.6323H57.7196H57.807H57.8943H57.9817H58.0692H58.1566H58.2441H58.3316H58.4191H58.5066H58.5942H58.6817H58.7694H58.857H58.9446H59.0323H59.12H59.2077H59.2955H59.3832H59.471H59.5589H59.6467H59.7346H59.8225H59.9104H59.9984H60.0863H60.1743H60.2624H60.3504H60.4385H60.5266H60.6148H60.7029H60.7911H60.8794H60.9676H61.0559H61.1442H61.2326H61.3209H61.4094H61.4978H61.5863H61.6748H61.7633H61.8518H61.9404H62.0291H62.1177H62.2064H62.2951H62.3839H62.4727H62.5615H62.6503H62.7392H62.8281H62.9171H63.0061H63.0951H63.1841H63.2732H63.3624H63.4515H63.5407H63.63H63.7192H63.8085H63.8979H63.9873H64.0767H64.1661H64.2556H64.3451H64.4347H64.5243H64.614H64.7036H64.7934H64.8831H64.9729H65.0628H65.1526H65.2426H65.3325H65.4225H65.5126H65.6027H65.6928H65.7829H65.8731H65.9634H66.0537H66.144H66.2344H66.3248H66.4153H66.5058H66.5963H66.6869H66.7776H66.8682H66.959H67.0497H67.1406H67.2314H67.3223H67.4133H67.5043H67.5953H67.6864H67.7775H67.8687H67.96H68.0512H68.1426H68.2339H68.3253H68.4168H68.5083H68.5999H68.6915H68.7832H68.8749H68.9667H69.0585H69.1503H69.2422H69.3342H69.4262H69.5183H69.6104H69.7026H69.7948H69.8871H69.9794H70.0718H70.1642H70.2567H70.3492H70.4418H70.5344H70.6271H70.7199H70.8127H70.9055H70.9984H71.0914H71.1844H71.2775H71.3706H71.4638H71.5571H71.6504H71.7437H71.8372H71.9306H72.0242H72.1177H72.2114H72.3051H72.3988H72.4927H72.5865H72.6805H72.7745C75.5474 64.125 77.9442 65.883 78.4422 68.54C79.1557 72.3465 79.8295 78.2341 79.2514 85.4601C78.6883 92.499 77.7213 98.2746 76.9486 102.106C76.3784 104.934 73.8587 106.875 70.9406 106.875H29.059C26.141 106.875 23.6213 104.934 23.0511 102.106C22.2784 98.2746 21.3113 92.499 20.7483 85.4601C20.1702 78.2342 20.8441 72.3465 21.5575 68.54Z" fill="#FFEA1B" stroke="black"/>
<path d="M69 49.5L71.5 50L71.5 66.5L71.5 67.5L71 68.5L71 69.5L71.5 72L71.5 74L70 74.5L68.5 73.5L68.5 71.5L69 69.5L68.5 68.5L68.5 60L68.5 56.5L68 50.5L69 49.5Z" fill="#416BFF"/>
<path d="M71.0003 53C72 53.5 72.5 55.5 71.0002 56.5" stroke="black" stroke-linecap="round" stroke-linejoin="round"/>
<path d="M68.9468 53C67.947 53.5 67.447 55.5 68.9468 56.5" stroke="black" stroke-linecap="round" stroke-linejoin="round"/>
<path d="M71.0003 56.5C72 57 72.5 59 71.0002 60" stroke="black" stroke-linecap="round" stroke-linejoin="round"/>
<path d="M68.9468 56.5C67.947 57 67.447 59 68.9468 60" stroke="black" stroke-linecap="round" stroke-linejoin="round"/>
<path d="M71.0003 60C72 60.5 72.5 62.5 71.0002 63.5" stroke="black" stroke-linecap="round" stroke-linejoin="round"/>
<path d="M68.9468 60C67.947 60.5 67.447 62.5 68.9468 63.5" stroke="black" stroke-linecap="round" stroke-linejoin="round"/>
<path d="M71.0003 63.5C72 64 72.5 66 71.0002 67" stroke="black" stroke-linecap="round" stroke-linejoin="round"/>
<path d="M68.9468 63.5C67.947 64 67.447 66 68.9468 67" stroke="black" stroke-linecap="round" stroke-linejoin="round"/>
<rect width="3" height="2" rx="1" transform="matrix(-1 -8.74228e-08 -8.74228e-08 1 71.5 66.5)" fill="#00D6AC" stroke="black"/>
<path d="M70.9998 68.5C70.9998 68.5 71.9997 72.5 71.4998 73.5C71 74.5 68.9999 74.5 68.4998 73.5C67.9997 72.5 68.9998 68.5 68.9998 68.5" stroke="black" stroke-linecap="round" stroke-linejoin="round"/>
<path d="M71.0003 49.5C72 50 72.5 52 71.0002 53" stroke="black" stroke-linecap="round" stroke-linejoin="round"/>
<path d="M68.9468 49.5C67.947 50 67.447 52 68.9468 53" stroke="black" stroke-linecap="round" stroke-linejoin="round"/>
<path d="M68.9468 46C67.947 46.5 67.447 48.5 68.9468 49.5" stroke="black" stroke-linecap="round" stroke-linejoin="round"/>
<path d="M31 49.5L28.5 50L28.5 66.5L28.5 67.5L29 68.5L29 69.5L28.5 72L28.5 74L30 74.5L31.5 73.5L31.5 71.5L31 69.5L31.5 68.5L31.5 60L31.5 56.5L32 50.5L31 49.5Z" fill="#416BFF"/>
<path d="M28.9997 53C28 53.5 27.5 55.5 28.9998 56.5" stroke="black" stroke-linecap="round" stroke-linejoin="round"/>
<path d="M31.0532 53C32.053 53.5 32.553 55.5 31.0532 56.5" stroke="black" stroke-linecap="round" stroke-linejoin="round"/>
<path d="M28.9997 56.5C28 57 27.5 59 28.9998 60" stroke="black" stroke-linecap="round" stroke-linejoin="round"/>
<path d="M31.0532 56.5C32.053 57 32.553 59 31.0532 60" stroke="black" stroke-linecap="round" stroke-linejoin="round"/>
<path d="M28.9997 60C28 60.5 27.5 62.5 28.9998 63.5" stroke="black" stroke-linecap="round" stroke-linejoin="round"/>
<path d="M31.0532 60C32.053 60.5 32.553 62.5 31.0532 63.5" stroke="black" stroke-linecap="round" stroke-linejoin="round"/>
<path d="M28.9997 63.5C28 64 27.5 66 28.9998 67" stroke="black" stroke-linecap="round" stroke-linejoin="round"/>
<path d="M31.0532 63.5C32.053 64 32.553 66 31.0532 67" stroke="black" stroke-linecap="round" stroke-linejoin="round"/>
<rect x="28.5" y="66.5" width="3" height="2" rx="1" fill="#00D6AC" stroke="black"/>
<path d="M29.0002 68.5C29.0002 68.5 28.0003 72.5 28.5002 73.5C29 74.5 31.0001 74.5 31.5002 73.5C32.0003 72.5 31.0002 68.5 31.0002 68.5" stroke="black" stroke-linecap="round" stroke-linejoin="round"/>
<path d="M28.9997 49.5C28 50 27.5 52 28.9998 53" stroke="black" stroke-linecap="round" stroke-linejoin="round"/>
<path d="M31.0532 49.5C32.053 50 32.553 52 31.0532 53" stroke="black" stroke-linecap="round" stroke-linejoin="round"/>
<path d="M31.0532 46C32.053 46.5 32.553 48.5 31.0532 49.5" stroke="black" stroke-linecap="round" stroke-linejoin="round"/>
<path d="M48 77L49 78.5L50 79.5V97.5L49.5 98L46 97L45 97.5L45.5 98.5L46 101H24.5L24 100.5V95.5L24.5 92L25.5 88.5L27.5 84L30 80L35 76.5L36.5 76L38.5 75L39 75.5L38.5 76.5L37 78L37.5 79.5L38.5 80L41.5 79.5L46 77.5L48 77Z" fill="#46484F"/>
<path d="M52 77L51 78.5L50 79.5V97.5L50.5 98L54 97.5H55.5L55 98L54.5 101H75.5L76 100.5V95.5L75.5 92L74.5 88.5L72.5 84L70 80L65 76.5L63.5 76L61.5 75L61 75.5L61.5 76.5L63 78L62.5 79.5L61.5 80L58.5 79.5L54 77.5L52 77Z" fill="#46484F"/>
<path d="M15.388 14.604C15.412 14.652 15.424 14.696 15.424 14.736C15.424 14.808 15.396 14.872 15.34 14.928C15.292 14.976 15.232 15 15.16 15H12.7C12.556 15 12.44 14.968 12.352 14.904C12.272 14.832 12.216 14.756 12.184 14.676L11.152 12.384H10.66V14.676C10.66 14.764 10.628 14.84 10.564 14.904C10.5 14.968 10.424 15 10.336 15H7.984C7.896 15 7.82 14.968 7.756 14.904C7.692 14.84 7.66 14.764 7.66 14.676V6.92399C7.66 6.83599 7.692 6.75999 7.756 6.69599C7.82 6.63199 7.896 6.59999 7.984 6.59999H11.536C12.688 6.59999 13.588 6.85999 14.236 7.37999C14.884 7.89199 15.208 8.60399 15.208 9.51599C15.208 10.036 15.092 10.496 14.86 10.896C14.628 11.288 14.312 11.612 13.912 11.868L15.388 14.604ZM11.536 10.104C11.712 10.104 11.848 10.048 11.944 9.93599C12.04 9.81599 12.088 9.66799 12.088 9.49199C12.088 9.31599 12.04 9.16399 11.944 9.03599C11.856 8.89999 11.72 8.83199 11.536 8.83199H10.66V10.104H11.536ZM19.2002 11.904H22.5362C22.6242 11.904 22.7002 11.872 22.7642 11.808C22.8282 11.744 22.8602 11.668 22.8602 11.58V10.02C22.8602 9.93199 22.8282 9.85599 22.7642 9.79199C22.7002 9.72799 22.6242 9.69599 22.5362 9.69599H19.2002V8.93999H22.8002C22.8882 8.93999 22.9642 8.90799 23.0282 8.84399C23.0922 8.77999 23.1242 8.70399 23.1242 8.61599V6.92399C23.1242 6.83599 23.0922 6.75999 23.0282 6.69599C22.9642 6.63199 22.8882 6.59999 22.8002 6.59999H16.6442C16.5562 6.59999 16.4802 6.63199 16.4162 6.69599C16.3522 6.75999 16.3202 6.83599 16.3202 6.92399V14.676C16.3202 14.764 16.3522 14.84 16.4162 14.904C16.4802 14.968 16.5562 15 16.6442 15H22.8962C22.9842 15 23.0602 14.968 23.1242 14.904C23.1882 14.84 23.2202 14.764 23.2202 14.676V12.984C23.2202 12.896 23.1882 12.82 23.1242 12.756C23.0602 12.692 22.9842 12.66 22.8962 12.66H19.2002V11.904ZM31.5121 8.96399C31.5121 9.03599 31.4841 9.09999 31.4281 9.15599C31.3801 9.20399 31.3241 9.22799 31.2601 9.22799H28.8601C28.7481 9.22799 28.6601 9.21599 28.5961 9.19199C28.5321 9.15999 28.4601 9.10799 28.3801 9.03599C28.2121 8.89199 28.0001 8.81999 27.7441 8.81999C27.3601 8.81999 27.1681 8.93199 27.1681 9.15599C27.1681 9.27599 27.2601 9.37599 27.4441 9.45599C27.6361 9.53599 27.9881 9.60799 28.5001 9.67199C29.3001 9.77599 29.9401 9.93199 30.4201 10.14C30.9081 10.348 31.2601 10.628 31.4761 10.98C31.7001 11.324 31.8121 11.76 31.8121 12.288C31.8121 12.856 31.6401 13.356 31.2961 13.788C30.9521 14.212 30.4761 14.54 29.8681 14.772C29.2681 15.004 28.5881 15.12 27.8281 15.12C26.9801 15.12 26.2601 15.004 25.6681 14.772C25.0841 14.54 24.6441 14.232 24.3481 13.848C24.0521 13.456 23.8961 13.028 23.8801 12.564C23.8801 12.492 23.9041 12.432 23.9521 12.384C24.0081 12.328 24.0721 12.3 24.1441 12.3H26.4241C26.5361 12.3 26.6241 12.316 26.6881 12.348C26.7601 12.372 26.8441 12.424 26.9401 12.504C27.1721 12.688 27.4681 12.78 27.8281 12.78C28.1001 12.78 28.3161 12.752 28.4761 12.696C28.6441 12.632 28.7281 12.548 28.7281 12.444C28.7281 12.3 28.6201 12.192 28.4041 12.12C28.1881 12.04 27.7801 11.96 27.1801 11.88C25.1161 11.608 24.0841 10.728 24.0841 9.23999C24.0841 8.70399 24.2361 8.22799 24.5401 7.81199C24.8521 7.38799 25.2841 7.05999 25.8361 6.82799C26.3881 6.59599 27.0241 6.47999 27.7441 6.47999C28.4961 6.47999 29.1561 6.60799 29.7241 6.86399C30.2921 7.11999 30.7281 7.44399 31.0321 7.83599C31.3361 8.21999 31.4961 8.59599 31.5121 8.96399ZM35.5713 11.904H38.9073C38.9953 11.904 39.0713 11.872 39.1353 11.808C39.1993 11.744 39.2313 11.668 39.2313 11.58V10.02C39.2313 9.93199 39.1993 9.85599 39.1353 9.79199C39.0713 9.72799 38.9953 9.69599 38.9073 9.69599H35.5713V8.93999H39.1713C39.2593 8.93999 39.3353 8.90799 39.3993 8.84399C39.4633 8.77999 39.4953 8.70399 39.4953 8.61599V6.92399C39.4953 6.83599 39.4633 6.75999 39.3993 6.69599C39.3353 6.63199 39.2593 6.59999 39.1713 6.59999H33.0153C32.9273 6.59999 32.8513 6.63199 32.7873 6.69599C32.7233 6.75999 32.6913 6.83599 32.6913 6.92399V14.676C32.6913 14.764 32.7233 14.84 32.7873 14.904C32.8513 14.968 32.9273 15 33.0153 15H39.2673C39.3553 15 39.4313 14.968 39.4953 14.904C39.5593 14.84 39.5913 14.764 39.5913 14.676V12.984C39.5913 12.896 39.5593 12.82 39.4953 12.756C39.4313 12.692 39.3553 12.66 39.2673 12.66H35.5713V11.904ZM45.8672 6.59999C46.0192 6.59999 46.1392 6.63999 46.2272 6.71999C46.3152 6.79999 46.3752 6.89199 46.4072 6.99599L49.0832 14.652C49.0912 14.676 49.0952 14.704 49.0952 14.736C49.0952 14.808 49.0672 14.872 49.0112 14.928C48.9632 14.976 48.9032 15 48.8312 15H46.6112C46.3712 15 46.2152 14.9 46.1432 14.7L45.8552 13.908H43.2752L42.9872 14.7C42.9152 14.9 42.7592 15 42.5192 15H40.2992C40.2272 15 40.1632 14.976 40.1072 14.928C40.0592 14.872 40.0352 14.808 40.0352 14.736C40.0352 14.704 40.0392 14.676 40.0472 14.652L42.7232 6.99599C42.7552 6.89199 42.8152 6.79999 42.9032 6.71999C42.9912 6.63999 43.1112 6.59999 43.2632 6.59999H45.8672ZM44.5592 9.33599L43.8872 11.568H45.2432L44.5592 9.33599ZM57.4818 14.604C57.5058 14.652 57.5178 14.696 57.5178 14.736C57.5178 14.808 57.4898 14.872 57.4338 14.928C57.3858 14.976 57.3258 15 57.2538 15H54.7938C54.6498 15 54.5338 14.968 54.4458 14.904C54.3658 14.832 54.3098 14.756 54.2778 14.676L53.2458 12.384H52.7538V14.676C52.7538 14.764 52.7218 14.84 52.6578 14.904C52.5938 14.968 52.5178 15 52.4298 15H50.0778C49.9898 15 49.9138 14.968 49.8498 14.904C49.7858 14.84 49.7538 14.764 49.7538 14.676V6.92399C49.7538 6.83599 49.7858 6.75999 49.8498 6.69599C49.9138 6.63199 49.9898 6.59999 50.0778 6.59999H53.6298C54.7818 6.59999 55.6818 6.85999 56.3298 7.37999C56.9778 7.89199 57.3018 8.60399 57.3018 9.51599C57.3018 10.036 57.1858 10.496 56.9538 10.896C56.7218 11.288 56.4058 11.612 56.0058 11.868L57.4818 14.604ZM53.6298 10.104C53.8058 10.104 53.9418 10.048 54.0378 9.93599C54.1338 9.81599 54.1818 9.66799 54.1818 9.49199C54.1818 9.31599 54.1338 9.16399 54.0378 9.03599C53.9498 8.89999 53.8138 8.83199 53.6298 8.83199H52.7538V10.104H53.6298ZM61.2593 11.808C61.2673 12.16 61.3473 12.412 61.4993 12.564C61.6513 12.708 61.8673 12.78 62.1473 12.78C62.6033 12.78 62.9033 12.564 63.0473 12.132C63.0873 11.996 63.1353 11.904 63.1913 11.856C63.2553 11.808 63.3553 11.784 63.4913 11.784H65.9393C66.0113 11.784 66.0713 11.812 66.1193 11.868C66.1753 11.916 66.2033 11.976 66.2033 12.048C66.1953 12.744 65.9993 13.324 65.6153 13.788C65.2393 14.244 64.7473 14.58 64.1393 14.796C63.5393 15.012 62.8793 15.12 62.1593 15.12C60.9513 15.12 59.9913 14.856 59.2793 14.328C58.5673 13.792 58.1873 12.972 58.1393 11.868C58.1313 11.652 58.1273 11.3 58.1273 10.812C58.1273 10.316 58.1313 9.95599 58.1393 9.73199C58.1873 8.65999 58.5753 7.85199 59.3033 7.30799C60.0313 6.75599 60.9833 6.47999 62.1593 6.47999C62.8793 6.47999 63.5393 6.58799 64.1393 6.80399C64.7473 7.01999 65.2393 7.35999 65.6153 7.82399C65.9993 8.27999 66.1953 8.85599 66.2033 9.55199C66.2033 9.62399 66.1753 9.68799 66.1193 9.74399C66.0713 9.79199 66.0113 9.81599 65.9393 9.81599H63.4913C63.3633 9.81599 63.2673 9.79199 63.2033 9.74399C63.1473 9.69599 63.0953 9.60399 63.0473 9.46799C62.9593 9.22799 62.8433 9.05999 62.6993 8.96399C62.5553 8.86799 62.3713 8.81999 62.1473 8.81999C61.8673 8.81999 61.6513 8.89599 61.4993 9.04799C61.3473 9.19199 61.2673 9.43999 61.2593 9.79199C61.2513 10.008 61.2473 10.34 61.2473 10.788C61.2473 11.236 61.2513 11.576 61.2593 11.808ZM74.7761 6.59999C74.8641 6.59999 74.9401 6.63199 75.0041 6.69599C75.0681 6.75999 75.1001 6.83599 75.1001 6.92399V14.676C75.1001 14.764 75.0681 14.84 75.0041 14.904C74.9401 14.968 74.8641 15 74.7761 15H72.4241C72.3361 15 72.2601 14.968 72.1961 14.904C72.1321 14.84 72.1001 14.764 72.1001 14.676V12.084H70.1561V14.676C70.1561 14.764 70.1241 14.84 70.0601 14.904C69.9961 14.968 69.9201 15 69.8321 15H67.4801C67.3921 15 67.3161 14.972 67.2521 14.916C67.1881 14.852 67.1561 14.772 67.1561 14.676V6.92399C67.1561 6.83599 67.1881 6.75999 67.2521 6.69599C67.3161 6.63199 67.3921 6.59999 67.4801 6.59999H69.8321C69.9201 6.59999 69.9961 6.63199 70.0601 6.69599C70.1241 6.75999 70.1561 6.83599 70.1561 6.92399V9.44399H72.1001V6.92399C72.1001 6.83599 72.1321 6.75999 72.1961 6.69599C72.2601 6.63199 72.3361 6.59999 72.4241 6.59999H74.7761ZM79.3056 11.904H82.6416C82.7296 11.904 82.8056 11.872 82.8696 11.808C82.9336 11.744 82.9656 11.668 82.9656 11.58V10.02C82.9656 9.93199 82.9336 9.85599 82.8696 9.79199C82.8056 9.72799 82.7296 9.69599 82.6416 9.69599H79.3056V8.93999H82.9056C82.9936 8.93999 83.0696 8.90799 83.1336 8.84399C83.1976 8.77999 83.2296 8.70399 83.2296 8.61599V6.92399C83.2296 6.83599 83.1976 6.75999 83.1336 6.69599C83.0696 6.63199 82.9936 6.59999 82.9056 6.59999H76.7496C76.6616 6.59999 76.5856 6.63199 76.5216 6.69599C76.4576 6.75999 76.4256 6.83599 76.4256 6.92399V14.676C76.4256 14.764 76.4576 14.84 76.5216 14.904C76.5856 14.968 76.6616 15 76.7496 15H83.0016C83.0896 15 83.1656 14.968 83.2296 14.904C83.2936 14.84 83.3256 14.764 83.3256 14.676V12.984C83.3256 12.896 83.2936 12.82 83.2296 12.756C83.1656 12.692 83.0896 12.66 83.0016 12.66H79.3056V11.904ZM92.1575 14.604C92.1815 14.652 92.1935 14.696 92.1935 14.736C92.1935 14.808 92.1655 14.872 92.1095 14.928C92.0615 14.976 92.0015 15 91.9295 15H89.4695C89.3255 15 89.2095 14.968 89.1215 14.904C89.0415 14.832 88.9855 14.756 88.9535 14.676L87.9215 12.384H87.4295V14.676C87.4295 14.764 87.3975 14.84 87.3335 14.904C87.2695 14.968 87.1935 15 87.1055 15H84.7535C84.6655 15 84.5895 14.968 84.5255 14.904C84.4615 14.84 84.4295 14.764 84.4295 14.676V6.92399C84.4295 6.83599 84.4615 6.75999 84.5255 6.69599C84.5895 6.63199 84.6655 6.59999 84.7535 6.59999H88.3055C89.4575 6.59999 90.3575 6.85999 91.0055 7.37999C91.6535 7.89199 91.9775 8.60399 91.9775 9.51599C91.9775 10.036 91.8615 10.496 91.6295 10.896C91.3975 11.288 91.0815 11.612 90.6815 11.868L92.1575 14.604ZM88.3055 10.104C88.4815 10.104 88.6175 10.048 88.7135 9.93599C88.8095 9.81599 88.8575 9.66799 88.8575 9.49199C88.8575 9.31599 88.8095 9.16399 88.7135 9.03599C88.6255 8.89999 88.4895 8.83199 88.3055 8.83199H87.4295V10.104H88.3055Z" fill="white"/>
<path d="M47 97L44.5 98L45 98.5L45.5 101H54.5V99.5L55 98L53 97L50 98L47 97Z" fill="#F49797"/>
<path d="M24 57L26.5 55L30 55.5L34.5 55L40 55.5L46.5 56H56L66.5 55L68.5 54L69 56L74 55L76.5 58.5V62L76 64.5L74.5 66.5L71.5 67L69.5 66.5L68 65.5L66.5 69L64 71.5L60 73.5L54 74.5H47L40.5 73.5L37.5 72.5L34 70L32.5 67.5L32 65L31 66L29 67H26.5L24.5 65.5L23.5 63.5L23 61L24 57Z" fill="#F49797"/>
<path d="M32.28 62C32.28 62 28.3422 74.5 50 74.5C71.6578 74.5 67.72 62 67.72 62" stroke="black" stroke-linecap="round"/>
<path d="M45 66C45 66 47 66 50 66C53 66 55 66 55 66" stroke="black" stroke-linecap="round"/>
<path d="M52.5257 67.577L52 66H54L53.4743 67.577C53.3224 68.0328 52.6776 68.0328 52.5257 67.577Z" fill="white" stroke="black" stroke-linecap="round" stroke-linejoin="round"/>
<path d="M46.5257 67.577L46 66H48L47.4743 67.577C47.3224 68.0328 46.6776 68.0328 46.5257 67.577Z" fill="white" stroke="black" stroke-linecap="round" stroke-linejoin="round"/>
<path d="M31.65 76.5L30.15 77.5L31.65 79.5L32.65 82L33.65 85.5V88.5L33.15 92L32.15 95L35.65 95.5L36.65 93L37.65 89V86.5L37.15 84L36.65 81.5L35.65 78.5L34.15 76.5L33.15 76L31.65 76.5Z" fill="#FFA41B"/>
<path d="M30.15 80C28.15 78.5 31.2959 75.7044 33.222 76.0254C36.2221 76.5254 39.65 87.5002 35.65 95.5002" stroke="black"/>
<path d="M30.2221 77.5252C34.722 82.5252 34.15 91 32.65 93.5" stroke="black"/>
<path d="M31.2222 76.5252C35.7221 81.5252 36.222 91.5252 33.2221 95.0252" stroke="black"/>
<path d="M68.35 76.5L69.85 77.5L68.35 79.5L67.35 82L66.35 85.5V88.5L66.85 92L67.85 95L64.35 95.5L63.35 93L62.35 89V86.5L62.85 84L63.35 81.5L64.35 78.5L65.85 76.5L66.85 76L68.35 76.5Z" fill="#FFA41B"/>
<path d="M69.85 80C71.85 78.5 68.7041 75.7044 66.778 76.0254C63.7779 76.5254 60.35 87.5002 64.35 95.5002" stroke="black"/>
<path d="M69.7779 77.5252C65.278 82.5252 65.85 91 67.35 93.5" stroke="black"/>
<path d="M68.7778 76.5252C64.2779 81.5252 63.778 91.5252 66.7779 95.0252" stroke="black"/>
<ellipse cx="38.0001" cy="67.8891" rx="2" ry="3.5" transform="rotate(-60 38.0001 67.8891)" fill="#DC7F7F"/>
<ellipse cx="2" cy="3.5" rx="2" ry="3.5" transform="matrix(-0.5 -0.866025 -0.866025 0.5 66.03 67.8711)" fill="#DC7F7F"/>
<path d="M72 24.8871C72 26.325 69.1794 30.6388 67.7689 29.9198C66.3583 29.2009 67.0635 24.8871 68.4741 23.4492C69.5569 22.3454 72 23.4492 72 24.8871Z" fill="white" stroke="black"/>
<path d="M79.9046 30C78.1158 30 76.6748 31.3542 76.1779 32.0313C75.1841 30.6771 73.4205 28.7576 71.7056 31.3542C69.4697 34.7397 73.1962 35.4168 73.9419 33.3855C76.1779 36.771 78.7497 36.466 80.6499 34.7397C82.8859 32.7084 82.1406 30 79.9046 30Z" fill="white" stroke="black" stroke-linejoin="round"/>
<path d="M28 24.8871C28 26.325 30.8206 30.6388 32.2311 29.9198C33.6417 29.2009 32.9365 24.8871 31.5259 23.4492C30.4431 22.3454 28 23.4492 28 24.8871Z" fill="white" stroke="black"/>
<path d="M20.0954 30C21.8842 30 23.3252 31.3542 23.8221 32.0313C24.8159 30.6771 26.5795 28.7576 28.2944 31.3542C30.5303 34.7397 26.8038 35.4168 26.0581 33.3855C23.8221 36.771 21.2503 36.466 19.3501 34.7397C17.1141 32.7084 17.8594 30 20.0954 30Z" fill="white" stroke="black" stroke-linejoin="round"/>
<path d="M68 58.0766C68.5 56.5766 70.0408 54.5834 73 55.0766C75.9592 55.5698 77.0833 59.0766 76.5 62.5766C76.0833 65.0766 75 67.0766 72 67.0766C69.6819 67.0766 68 65.8502 68 64.5212" stroke="black" stroke-linecap="round"/>
<path d="M69 60.5766C70.5 58.5766 73 58.0766 75 60.0766" stroke="black" stroke-linecap="round"/>
<path d="M72 59.0766C73.5 60.5766 72.5 63.5766 71 64.0766" stroke="black" stroke-linecap="round"/>
<path d="M32 58.0766C31.5 56.5766 29.9592 54.5834 27 55.0766C24.0408 55.5698 22.9167 59.0766 23.5 62.5766C23.9167 65.0766 25 67.0766 28 67.0766C30.3181 67.0766 32 65.8502 32 64.5212" stroke="black" stroke-linecap="round"/>
<path d="M31 60.5766C29.5 58.5766 27 58.0766 25 60.0766" stroke="black" stroke-linecap="round"/>
<path d="M28 59.0766C26.5 60.5766 27.5 63.5766 29 64.0766" stroke="black" stroke-linecap="round"/>
<path d="M51 63.5C51 64.0523 50.5523 64.5 50 64.5C49.4477 64.5 49 64.0523 49 63.5C49 62.9477 49.4477 62 50 62C50.5523 62 51 62.9477 51 63.5Z" fill="black"/>
<path d="M61.85 75.5C72.85 77.5 76.85 92.5 75.85 100.5" stroke="black" stroke-linecap="round" stroke-linejoin="round"/>
<path d="M71.85 97C66.85 95 57.35 95.5 55.85 97C54.5851 98.2649 54.35 100 54.35 100.5" stroke="black" stroke-linecap="round" stroke-linejoin="round"/>
<path d="M66.35 95.5C66.85 94 67.35 92 69.85 90" stroke="black" stroke-linecap="round" stroke-linejoin="round"/>
<path d="M66.35 95.5C66.85 94 69.35 91.5 73.35 92" stroke="black" stroke-linecap="round" stroke-linejoin="round"/>
<path d="M66.35 95.5C66.85 95 68.85 93.5 70.85 94" stroke="black" stroke-linecap="round" stroke-linejoin="round"/>
<path d="M60.35 96C59.35 98 59.35 99.5 60.35 100.5" stroke="black" stroke-linecap="round" stroke-linejoin="round"/>
<path d="M38.1481 75.5C27.1481 77.5 23.1481 92.5 24.1481 100.5" stroke="black" stroke-linecap="round" stroke-linejoin="round"/>
<path d="M28.1481 97C33.1481 95 42.6481 95.5 44.1481 97C45.413 98.2649 45.6481 100 45.6481 100.5" stroke="black" stroke-linecap="round" stroke-linejoin="round"/>
<path d="M33.6481 95.5C33.1481 94 32.6481 92 30.1481 90" stroke="black" stroke-linecap="round" stroke-linejoin="round"/>
<path d="M33.6481 95.5C33.1481 94 30.6481 91.5 26.6481 92" stroke="black" stroke-linecap="round" stroke-linejoin="round"/>
<path d="M33.6481 95.5C33.1481 95 31.1481 93.5 29.1481 94" stroke="black" stroke-linecap="round" stroke-linejoin="round"/>
<path d="M39.6481 96C40.6481 98 40.6481 99.5 39.6481 100.5" stroke="black" stroke-linecap="round" stroke-linejoin="round"/>
<path d="M45 98C45 98 46.5581 96.8835 47.5 97.0932C48.6319 97.3452 48.9313 98 49.9997 98C51.0681 98 51.3679 97.3452 52.5 97.0932C53.4419 96.8836 55 98 55 98" stroke="black" stroke-linecap="round" stroke-linejoin="round"/>
<rect x="43.5" y="59.5" width="4" height="3" rx="1.5" fill="white" stroke="black"/>
<rect x="52.5" y="59.5" width="4" height="3" rx="1.5" fill="white" stroke="black"/>
<path d="M42.7125 57.885L47.5292 59.8117C47.8135 59.9254 48 60.2008 48 60.5071C48 61.0047 47.5237 61.3639 47.0453 61.2272L42.0571 59.802C41.4876 59.6393 41.178 59.0252 41.386 58.4706C41.5858 57.938 42.1843 57.6737 42.7125 57.885Z" fill="#416BFF" stroke="black" stroke-linejoin="round"/>
<path d="M57.2875 57.885L52.4708 59.8117C52.1865 59.9254 52 60.2008 52 60.5071C52 61.0047 52.4763 61.3639 52.9547 61.2272L57.9429 59.802C58.5124 59.6393 58.822 59.0252 58.614 58.4706C58.4142 57.938 57.8157 57.6737 57.2875 57.885Z" fill="#416BFF" stroke="black" stroke-linejoin="round"/>
<path d="M26.9121 84.1003C27.2896 83.3343 27.3633 83.2734 27.3633 83.2734L26.3272 81.6525L24 80.5L21.5 80L19.5 81L18 83L17.5 84.5L16 84L13.5 84.5L10.5 86L9 88.5V92L10.5 95L12.5 96.5L14 97L17.5 97.5L19.5 97L21.5 97.5L23.5 98.5H26.5L29.5 98L32.5 97L35 94.5L36 95L39.5 96L43 95H45.5L47 93.5L46 92.5L43.5 92L41 91H39L37.5 90L34.5 89H32L29 90.5L27 89L25 88L25.736 86.7683C26.0331 85.9668 26.5481 84.8391 26.9121 84.1003Z" fill="white"/>
<path d="M33.8558 93.4134C37.014 96.9325 41.4537 95.818 43.1691 94.6981C44.5192 95.0657 47 95.1903 47 93.7305C47 92.2707 45.0856 91.9541 43.956 92.1746C43.3924 91.3663 41.4129 90.3454 39.3826 91.1575" stroke="black" stroke-linecap="round" stroke-linejoin="round"/>
<path d="M40.3242 92.6815C39.1495 90.442 34.1932 87.1012 29.2371 90.2217" stroke="black" stroke-linecap="round"/>
<path d="M30.208 92.1403C28.4912 88.7558 24.0278 86.2052 18.9264 88.7558" stroke="black" stroke-linecap="round"/>
<path d="M35.1132 94.5928C33.7887 96.8491 25.1558 102.196 17.4059 95.0833" stroke="black" stroke-linecap="round"/>
<path d="M19.1717 97.0453C15.7708 98.0263 9.36148 97.2906 9.01815 91.1593C8.62324 84.1069 14.7571 83.7363 17.602 84.4393C18.1906 80.0248 24.486 78.5643 27.6723 83.0375" stroke="black" stroke-linecap="round" stroke-linejoin="round"/>
<path d="M21.8204 83.8507C24.7635 84.145 25.4993 86.5975 25.4993 88.02" stroke="black" stroke-linecap="round"/>
<path d="M13.1214 92.9131C13.3109 94.358 14.7795 95.0121 15.3066 95.0121" stroke="black" stroke-linecap="round"/>
<path d="M73.0879 84.1003C72.7104 83.3343 72.6367 83.2734 72.6367 83.2734L73.6728 81.6525L76 80.5L78.5 80L80.5 81L82 83L82.5 84.5L84 84L86.5 84.5L89.5 86L91 88.5V92L89.5 95L87.5 96.5L86 97L82.5 97.5L80.5 97L78.5 97.5L76.5 98.5H73.5L70.5 98L67.5 97L65 94.5L64 95L60.5 96L57 95H54.5L53 93.5L54 92.5L56.5 92L59 91H61L62.5 90L65.5 89H68L71 90.5L73 89L75 88L74.264 86.7683C73.9669 85.9668 73.4519 84.8391 73.0879 84.1003Z" fill="white"/>
<path d="M66.1442 93.4134C62.986 96.9325 58.5463 95.818 56.8309 94.6981C55.4808 95.0657 53 95.1903 53 93.7305C53 92.2707 54.9144 91.9541 56.044 92.1746C56.6076 91.3663 58.5871 90.3454 60.6174 91.1575" stroke="black" stroke-linecap="round" stroke-linejoin="round"/>
<path d="M59.6758 92.6815C60.8505 90.442 65.8068 87.1012 70.7629 90.2217" stroke="black" stroke-linecap="round"/>
<path d="M69.792 92.1403C71.5088 88.7558 75.9722 86.2052 81.0736 88.7558" stroke="black" stroke-linecap="round"/>
<path d="M64.8868 94.5928C66.2113 96.8491 74.8442 102.196 82.5941 95.0833" stroke="black" stroke-linecap="round"/>
<path d="M80.8283 97.0453C84.2292 98.0263 90.6385 97.2906 90.9819 91.1593C91.3768 84.1069 85.2429 83.7363 82.398 84.4393C81.8094 80.0248 75.514 78.5643 72.3277 83.0375" stroke="black" stroke-linecap="round" stroke-linejoin="round"/>
<path d="M78.1796 83.8507C75.2365 84.145 74.5007 86.5975 74.5007 88.02" stroke="black" stroke-linecap="round"/>
<path d="M86.8786 92.9131C86.6891 94.358 85.2205 95.0121 84.6934 95.0121" stroke="black" stroke-linecap="round"/>
<path d="M31.5 68.5H33L34.4999 70.5L38.4999 72.5L42.9999 74L49.9999 74.5L55.4999 74L61.4999 72.5L63.9999 71.5L65.9999 69.5L66.9999 68L68.5 68.5L69.5 70.5L70 72.5V74V75.5L70.5 75H72L73.5 76.5L74 80.5L72 82L66.9999 83.5L62 85H57L53 84.5H47.5H46.5L42.5 85L36 84.5L29.5 82.5L26 81L27.5 75H30V71L30.5 69.5L31.5 68.5Z" fill="#46484F"/>
<path d="M49.9999 74.75L42.9999 74L43.5 75.5L49.9999 77L56.5 75.5L56.9999 74L49.9999 74.75Z" fill="#DC7F7F"/>
<path d="M43 74L37.5 75.5L39.4999 76.5L43 78.5L48.5 80H51.5L56.5 79L59.5 77.5L62.5 75.5L58.4999 74L57.9999 73.5L57.4999 74.5L55 76L50 77L44 75.5L43 74Z" fill="white"/>
<path d="M42 74C42 74 43.9394 77 50 77C56.0606 77 58 74 58 74" stroke="black" stroke-linecap="round" stroke-linejoin="round"/>
<path d="M57.5 74.5C59 74.5 60.5 74.5 62 75.5" stroke="black" stroke-linecap="round" stroke-linejoin="round"/>
<path d="M42.5 74.5C41 74.5 39.5 74.5 38 75.5" stroke="black" stroke-linecap="round" stroke-linejoin="round"/>
<path d="M32.28 62C32.28 62 28.3422 74.5 50 74.5C71.6578 74.5 67.72 62 67.72 62" stroke="black" stroke-linecap="round"/>
<path d="M65 71C65 71 65.5 71 65.5 72.5C65.5 74 56.9328 79.8549 50 80" stroke="black" stroke-linecap="round" stroke-linejoin="round"/>
<path d="M47.9999 81.5C40.4999 81.5 33.4999 78 30 75.5C29.4999 72.5 29.9999 71 30.4999 69.5C30.9999 68 32.5 68.5 32.9999 68.5" stroke="black" stroke-linecap="round" stroke-linejoin="round"/>
<path d="M29.5 75C28.5 74.5 27.5 75 27.0054 76.0956C26.5094 77.1943 26 78.949 26 80.7425C26 81.5228 30.1947 83.1423 35.5 84.1372C38.8172 84.7592 42.5685 85.1371 46 84.9129" stroke="black" stroke-linecap="round" stroke-linejoin="round"/>
<path d="M52.0001 81.5C59.5001 81.5 66.5001 78 70 75.5C70.5001 72.5 70.0001 71 69.5001 69.5C69.0001 68 67.5 68.5 67.0001 68.5" stroke="black" stroke-linecap="round" stroke-linejoin="round"/>
<path d="M70.5 75C71.5 74.5 72.5 75 72.9946 76.0956C73.4906 77.1943 74 78.949 74 80.7425C74 82.0106 62.9198 85.4957 54 84.9129" stroke="black" stroke-linecap="round" stroke-linejoin="round"/>
<path d="M35 71C35 71 34.5 71 34.5 72.5C34.5 74 43.0672 79.8549 50 80" stroke="black" stroke-linecap="round" stroke-linejoin="round"/>
<path d="M33.9468 50L31.4468 50.5V63.5V64.5L31.9468 65.5V66.5L31.4468 69V71L32.9468 71.5L34.4468 70.5V68.5L33.9468 66.5L34.4468 65.5V57V53.5L34.9468 51L33.9468 50Z" fill="#416BFF"/>
<path d="M31.9465 50C30.9468 50.5 30.4468 52.5 31.9466 53.5" stroke="black" stroke-linecap="round" stroke-linejoin="round"/>
<path d="M34 50C34.9998 50.5 35.4998 52.5 34 53.5" stroke="black" stroke-linecap="round" stroke-linejoin="round"/>
<path d="M31.9465 53.5C30.9468 54 30.4468 56 31.9466 57" stroke="black" stroke-linecap="round" stroke-linejoin="round"/>
<path d="M34 53.5C34.9998 54 35.4998 56 34 57" stroke="black" stroke-linecap="round" stroke-linejoin="round"/>
<path d="M31.9465 57C30.9468 57.5 30.4468 59.5 31.9466 60.5" stroke="black" stroke-linecap="round" stroke-linejoin="round"/>
<path d="M34 57C34.9998 57.5 35.4998 59.5 34 60.5" stroke="black" stroke-linecap="round" stroke-linejoin="round"/>
<path d="M31.9465 60.5C30.9468 61 30.4468 63 31.9466 64" stroke="black" stroke-linecap="round" stroke-linejoin="round"/>
<path d="M34 60.5C34.9998 61 35.4998 63 34 64" stroke="black" stroke-linecap="round" stroke-linejoin="round"/>
<rect x="31.4468" y="63.5" width="3" height="2" rx="1" fill="#FF3535" stroke="black"/>
<path d="M31.947 65.5C31.947 65.5 30.9471 69.5 31.447 70.5C31.9468 71.5 33.9468 71.5 34.4469 70.5C34.947 69.5 33.9469 65.5 33.9469 65.5" stroke="black" stroke-linecap="round" stroke-linejoin="round"/>
<path d="M36.4468 53L33.9468 53.5V66.5V67.5L34.4468 68.5V69.5L33.9468 72V74L35.4468 74.5L36.9468 73.5V71.5L36.4468 69.5L36.9468 68.5V60V56.5L37.4468 54L36.4468 53Z" fill="#416BFF"/>
<path d="M34.4465 53C33.4468 53.5 32.9468 55.5 34.4466 56.5" stroke="black" stroke-linecap="round" stroke-linejoin="round"/>
<path d="M36.5 53C37.4998 53.5 37.9998 55.5 36.5 56.5" stroke="black" stroke-linecap="round" stroke-linejoin="round"/>
<path d="M34.4465 56.5C33.4468 57 32.9468 59 34.4466 60" stroke="black" stroke-linecap="round" stroke-linejoin="round"/>
<path d="M36.5 56.5C37.4998 57 37.9998 59 36.5 60" stroke="black" stroke-linecap="round" stroke-linejoin="round"/>
<path d="M34.4465 60C33.4468 60.5 32.9468 62.5 34.4466 63.5" stroke="black" stroke-linecap="round" stroke-linejoin="round"/>
<path d="M36.5 60C37.4998 60.5 37.9998 62.5 36.5 63.5" stroke="black" stroke-linecap="round" stroke-linejoin="round"/>
<path d="M34.4465 63.5C33.4468 64 32.9468 66 34.4466 67" stroke="black" stroke-linecap="round" stroke-linejoin="round"/>
<path d="M36.5 63.5C37.4998 64 37.9998 66 36.5 67" stroke="black" stroke-linecap="round" stroke-linejoin="round"/>
<rect x="33.9468" y="66.5" width="3" height="2" rx="1" fill="#FFEA1B" stroke="black"/>
<path d="M34.447 68.5C34.447 68.5 33.4471 72.5 33.947 73.5C34.4468 74.5 36.4468 74.5 36.9469 73.5C37.447 72.5 36.4469 68.5 36.4469 68.5" stroke="black" stroke-linecap="round" stroke-linejoin="round"/>
<path d="M66.0532 50L68.5532 50.5V63.5V64.5L68.0532 65.5V66.5L68.5532 69V71L67.0532 71.5L65.5532 70.5V68.5L66.0532 66.5L65.5532 65.5V57V53.5L65.0532 51L66.0532 50Z" fill="#416BFF"/>
<path d="M68.0535 50C69.0532 50.5 69.5532 52.5 68.0534 53.5" stroke="black" stroke-linecap="round" stroke-linejoin="round"/>
<path d="M66 50C65.0002 50.5 64.5002 52.5 66 53.5" stroke="black" stroke-linecap="round" stroke-linejoin="round"/>
<path d="M68.0535 53.5C69.0532 54 69.5532 56 68.0534 57" stroke="black" stroke-linecap="round" stroke-linejoin="round"/>
<path d="M66 53.5C65.0002 54 64.5002 56 66 57" stroke="black" stroke-linecap="round" stroke-linejoin="round"/>
<path d="M68.0535 57C69.0532 57.5 69.5532 59.5 68.0534 60.5" stroke="black" stroke-linecap="round" stroke-linejoin="round"/>
<path d="M66 57C65.0002 57.5 64.5002 59.5 66 60.5" stroke="black" stroke-linecap="round" stroke-linejoin="round"/>
<path d="M68.0535 60.5C69.0532 61 69.5532 63 68.0534 64" stroke="black" stroke-linecap="round" stroke-linejoin="round"/>
<path d="M66 60.5C65.0002 61 64.5002 63 66 64" stroke="black" stroke-linecap="round" stroke-linejoin="round"/>
<rect width="3" height="2" rx="1" transform="matrix(-1 0 0 1 68.5532 63.5)" fill="#FF3535" stroke="black"/>
<path d="M68.053 65.5C68.053 65.5 69.0529 69.5 68.553 70.5C68.0532 71.5 66.0532 71.5 65.5531 70.5C65.053 69.5 66.0531 65.5 66.0531 65.5" stroke="black" stroke-linecap="round" stroke-linejoin="round"/>
<path d="M63.5532 53L66.0532 53.5V66.5V67.5L65.5532 68.5V69.5L66.0532 72V74L64.5532 74.5L63.0532 73.5V71.5L63.5532 69.5L63.0532 68.5V60V56.5L62.5532 54L63.5532 53Z" fill="#416BFF"/>
<path d="M65.5535 53C66.5532 53.5 67.0532 55.5 65.5534 56.5" stroke="black" stroke-linecap="round" stroke-linejoin="round"/>
<path d="M63.5 53C62.5002 53.5 62.0002 55.5 63.5 56.5" stroke="black" stroke-linecap="round" stroke-linejoin="round"/>
<path d="M65.5535 56.5C66.5532 57 67.0532 59 65.5534 60" stroke="black" stroke-linecap="round" stroke-linejoin="round"/>
<path d="M63.5 56.5C62.5002 57 62.0002 59 63.5 60" stroke="black" stroke-linecap="round" stroke-linejoin="round"/>
<path d="M65.5535 60C66.5532 60.5 67.0532 62.5 65.5534 63.5" stroke="black" stroke-linecap="round" stroke-linejoin="round"/>
<path d="M63.5 60C62.5002 60.5 62.0002 62.5 63.5 63.5" stroke="black" stroke-linecap="round" stroke-linejoin="round"/>
<path d="M65.5535 63.5C66.5532 64 67.0532 66 65.5534 67" stroke="black" stroke-linecap="round" stroke-linejoin="round"/>
<path d="M63.5 63.5C62.5002 64 62.0002 66 63.5 67" stroke="black" stroke-linecap="round" stroke-linejoin="round"/>
<rect width="3" height="2" rx="1" transform="matrix(-1 0 0 1 66.0532 66.5)" fill="#FFEA1B" stroke="black"/>
<path d="M65.553 68.5C65.553 68.5 66.5529 72.5 66.053 73.5C65.5532 74.5 63.5532 74.5 63.0531 73.5C62.553 72.5 63.5531 68.5 63.5531 68.5" stroke="black" stroke-linecap="round" stroke-linejoin="round"/>
<path d="M35.5 44L31 45.5L31.5 41.5L34 37L37.5 33.5L42.5 31L49 30L55 30.5L61 32.5L66 36.5L68.5 41.5L69 45.5L67.5 45L59.5 43.5L51.5 43L41 43.5L35.5 44Z" fill="#416BFF"/>
<path d="M29 47L31 45.5L31.5 46.5L33.5 47.5L39 48.5L43.5 49H48.5H54L60.5 48.5L65 48L68.5 47L69 46L71 47L72 49.5L71.5 52.5L68.5 54L64.5 55L56 56H46L37 55.5L30.5 54L28.5 52.5L28 50L29 47Z" fill="#495B6D"/>
<path d="M29.5 46.5L31 46L32 47L36 48L44 49H55L66.5 47.5L69 46L71 47L68.5 48.5L63 50L57.5 50.5L52 51H48L43 50.5L37.5 50L33 49L29.5 47.5V46.5Z" fill="#627B94"/>
<path d="M31 50.0078L28.5 48.5078L28 50.5078L29 53.0078L30.5 54.0078L34 55.0078L39 55.5078H41V55.0078V53.5078L40.5 52.0078L39.5 51.5078H37.5L34 51.0078L31 50.0078Z" fill="#627B94"/>
<path d="M69 50.0078L71.5 48.5078L72 50.5078L71 53.0078L69.5 54.0078L66 55.0078L61 55.5078H59V55.0078V53.5078L59.5 52.0078L60.5 51.5078H62.5L66 51.0078L69 50.0078Z" fill="#627B94"/>
<path d="M66 45C66 43.9443 65.8785 42.9431 65.6476 42M34 45C34 36.8947 41.1634 32 50 32C51.7461 32 53.4269 32.1911 55 32.5604M58.5 33.7599C60.4663 34.6769 62.1448 35.9362 63.4122 37.5" stroke="white" stroke-opacity="0.44" stroke-linecap="round" stroke-linejoin="round"/>
<path d="M69 46C69 36.0242 60.4934 30 50 30C39.5066 30 31 36.0242 31 46" stroke="black" stroke-linejoin="round"/>
<path d="M69 46C69 47.6569 60.4934 49 50 49C39.5066 49 31 47.6569 31 46C31 44.6164 36.9323 43.4515 45 43.105C46.5931 43.0365 48.2696 43 50 43C52.0967 43 54.114 43.0536 56 43.1527C63.5532 43.5493 69 44.6742 69 46Z" fill="#416BFF"/>
<path d="M69 46C69 47.6569 60.4934 49 50 49C39.5066 49 31 47.6569 31 46C31 44.6164 36.9323 43.4515 45 43.105C46.5931 43.0365 48.2696 43 50 43C51.7304 43 53.4069 43.0365 55 43.105C63.0677 43.4515 69 44.6164 69 46Z" stroke="black"/>
<path d="M30.8545 46C28 46 27.6159 51 28.7352 52.5385C29.9867 54.2585 36.57 56 50.0002 56C63.4305 56 70.0137 54.2586 71.265 52.5385C72.3841 51 72 46 69.1456 46" stroke="black"/>
<path d="M46 39.1429L50 32L54 39.1429L50 41.4921L46 39.1429Z" fill="#F7F7F7" stroke="black" stroke-linecap="round" stroke-linejoin="round"/>
<path d="M50.4445 37.2136V33.658L53.0278 38.3143L50.4445 37.2136Z" fill="#D0D7F2"/>
<path d="M50 37.658L46.4445 38.9914L50 41.2136V37.658Z" fill="#D0D7F2"/>
<path d="M50 37.658L53.5555 38.9914L50 41.2136V37.658Z" fill="#A7B6EB"/>
<path d="M54 41.0776L50 45.8446L46 41.0776L50 43.4818L54 41.0776Z" fill="#F7F7F7" stroke="black" stroke-linecap="round" stroke-linejoin="round"/>
<path d="M50.004 45.1489V43.9254L51.9514 42.8247L50.004 45.1489Z" fill="#D0D7F2"/>
<path d="M46.5 39L50 37.5L53.5 39" stroke="black" stroke-linecap="round" stroke-linejoin="round"/>
<path d="M50 32.5V41.5" stroke="black" stroke-linecap="round" stroke-linejoin="round"/>
<path opacity="0.66" d="M38.6707 40.0744C39.5163 37.852 41.6306 36 43.7447 36C45.8587 36 45.7178 36.7408 43.7447 38.5928C41.7715 40.4448 40.1929 41.9263 39.5164 41.9263C38.6708 41.9263 38.2479 41.1855 38.6707 40.0744Z" fill="white"/>
<ellipse opacity="0.66" cx="37.5515" cy="44.9062" rx="1.06066" ry="1.90132" transform="rotate(17.6291 37.5515 44.9062)" fill="white"/>
<path d="M49.9648 34C42.2329 34 35.9648 38.3508 35.9648 45.5556C35.9648 45.5556 39.2806 47 49.9648 47C60.6491 47 63.9648 45.5556 63.9648 45.5556C63.9648 38.3508 57.6968 34 49.9648 34Z" fill="white" fill-opacity="0.44"/>
<path d="M29.5001 46.5C28 49 41.0001 51 50.0001 51C59.0001 51 71.5001 49 70.5001 46.5" stroke="black" stroke-linecap="round"/>
<path d="M28.5 48.5C31 50.5 35.75 51.4286 39.5 52C41.7243 52.3389 40.9375 54.7143 40.9375 56" stroke="black"/>
<circle cx="39.2278" cy="53.23" r="0.5" fill="black"/>
<ellipse cx="29.8925" cy="51.996" rx="0.392456" ry="0.5" transform="rotate(-32.0079 29.8925 51.996)" fill="black"/>
<path d="M71.5 48.5C69 50.5 64.25 51.4286 60.5 52C58.2757 52.3389 59.0625 54.7143 59.0625 56" stroke="black"/>
<circle cx="0.5" cy="0.5" r="0.5" transform="matrix(-1 0 0 1 61.2722 52.73)" fill="black"/>
<ellipse cx="0.392456" cy="0.5" rx="0.392456" ry="0.5" transform="matrix(-0.847975 -0.530035 -0.530035 0.847975 70.7053 51.78)" fill="black"/>
<path d="M65.6155 38.5L68.1156 38L68.6155 39.5L67.2049 42.4293L68.431 43.2933L70.6885 41.8257L70.3539 44.0366L68.7932 45.3835L67 46L65.1154 44L64.4645 41.11L65.6155 38.5Z" fill="#FF3535"/>
<path d="M67.9455 39.4749C70.2871 39.285 72.1298 36.5913 73.0312 36.4351C74.7078 36.1446 73.4641 39.1144 72.6733 40.5987C71.5331 42.7388 69.8846 44.4574 69.0629 44.678C66.7939 45.287 65.7866 39.65 67.9455 39.4749Z" fill="white" stroke="black" stroke-linejoin="round"/>
<path d="M68.6155 38.9999C68.1153 37.4999 65.2653 37.2523 64.6154 40.5C64.1151 43.0001 66 48.5 69.4963 44.5" stroke="black" stroke-linejoin="round"/>
<path d="M34.3809 38.5L31.8807 38L31.3808 39.5L32.7915 42.4293L31.5653 43.2933L29.3078 41.8257L29.6424 44.0366L31.2032 45.3835L32.9963 46L34.881 44L35.5318 41.11L34.3809 38.5Z" fill="#FF3535"/>
<path d="M32.0508 39.4749C29.7093 39.285 27.8665 36.5913 26.9651 36.4351C25.2885 36.1446 26.5323 39.1144 27.3231 40.5987C28.4633 42.7388 30.1118 44.4574 30.9334 44.678C33.2024 45.287 34.2097 39.65 32.0508 39.4749Z" fill="white" stroke="black" stroke-linejoin="round"/>
<path d="M31.3809 38.9999C31.881 37.4999 34.7311 37.2523 35.381 40.5C35.8813 43.0001 33.9963 48.5 30.5 44.5" stroke="black" stroke-linejoin="round"/>
</g>
</svg>
