<svg width="100" height="100" viewBox="0 0 100 100" fill="none" xmlns="http://www.w3.org/2000/svg">
<rect width="100" height="100" fill="#416BFF"/>
<mask id="mask0_217_1458" style="mask-type:alpha" maskUnits="userSpaceOnUse" x="0" y="0" width="100" height="100">
<rect width="100" height="100" fill="#456EFF"/>
</mask>
<g mask="url(#mask0_217_1458)">
<path d="M25.619 65.0953L24.0952 70.4286L21.8095 72.7143L21.0476 75.7619L22.5714 79.5715L21.0476 81.0953L18.7619 87.1905L18 94.8096L18.7619 100.905L21.0476 108.524L25.619 113.857L31.7143 117.667L40.0952 120.714L47.7143 121.476H53.8095L62.1905 119.952L72.0952 115.381L75.9048 112.333L78.9524 107.762L81.2381 101.667L82 95.5715V88.7143L79.7143 82.6191L77.4286 79.5715L78.9524 75.7619L78.1905 72.7143L75.9048 70.4286V68.1429L74.381 65.0953L70.5714 62.0477L63.7143 59.762L56.0952 59H46.1905L36.2857 59.762L30.1905 62.0477L25.619 65.0953Z" fill="#A0632A"/>
<path d="M24.0952 70.4286C24.0952 65.0953 27.1428 59 50 59C72.8571 59 75.9047 65.0953 75.9047 70.4286" stroke="black"/>
<path d="M22.1083 78.8096C18.3439 73.4762 23.9686 65.0953 49.215 65.0953C74.4614 65.0953 82.1178 73.4762 77.8276 78.8096" stroke="black" stroke-linecap="round" stroke-linejoin="round"/>
<path d="M35.109 72.7143C24.3461 75.762 16.6584 80.3334 18.1959 97.8572C19.7334 115.381 35.1087 121.476 49.7136 121.476" stroke="black" stroke-linecap="round"/>
<path d="M64.891 72.7143C75.6539 75.762 83.3416 80.3334 81.8041 97.8572C80.2666 115.381 64.8913 121.476 50.2864 121.476" stroke="black" stroke-linecap="round"/>
<path d="M29.5 79.5L30 77.5L31.5 79L30.5 80L29.5 79.5Z" fill="#8D5827"/>
<path d="M70.5 79.5L70 77.5L69 79L70 80L70.5 79.5Z" fill="#8D5827"/>
<path d="M47 97L44.5 97.5L45 98.5L45.5 101H54.5V99.5L55 98L53 97L50 98L47 97Z" fill="#FFDDCF"/>
<path d="M35.5 44L31 45.5L31.5 41.5L34 37L37.5 33.5L42.5 31L49 30L55 30.5L61 32.5L66 36.5L68.5 41.5L69 45.5L67.5 45L59.5 43.5L51.5 43L41 43.5L35.5 44Z" fill="#FFEA1B"/>
<path d="M29 47L31 45.5L31.5 46.5L33.5 47.5L39 48.5L43.5 49H48.5H54L60.5 48.5L65 48L68.5 47L69 46L71 47L72 49.5L71.5 52.5L68.5 54L64.5 55L56 56H46L37 55.5L30.5 54L28.5 52.5L28 50L29 47Z" fill="#495B6D"/>
<path d="M29.5 46.5L31 46L32 47L36 48L44 49H55L66.5 47.5L69 46L71 47L68.5 48.5L63 50L57.5 50.5L52 51H48L43 50.5L37.5 50L33 49L29.5 47.5V46.5Z" fill="#627B94"/>
<path d="M24 57L26.5 55L29 53L34.5 55L40 55.5L46.5 56H56L66.5 55L71 53L73 55L75.5 56.5L76.5 58.5V62L76 64.5L74.5 66.5L71.5 67L69.5 66.5L68 65.5L66.5 69L64 71.5L60 73.5L54 74.5H47L40.5 73.5L37.5 72.5L34 70L32.5 67.5L32 65L31 66L29 67H26.5L24.5 65.5L23.5 63.5L23 61L24 57Z" fill="#FFDDCF"/>
<path d="M47 74.5L42 74L43 75.5L45.5 77L48 77.5L49 78.5L50 79.5L51 78.5L52 77.5L54.5 77L56.5 75.5L58 74L52 74.5H47Z" fill="#FFB89B"/>
<path d="M48 77L49 78.5L50 79.5V97.5L49.5 98L46 97L45.5 97.5L45 98L45.5 101H24.5L24 100.5V95.5L24.5 92L25.5 88.5L27.5 84L30 80L35 76.5L36.5 76L38.5 75L39 75.5L38.5 76.5L37 78L37.5 79.5L38.5 80L41.5 79.5L46 77.5L48 77Z" fill="#00D6AC"/>
<path d="M43.5 75.5L42 74L39 73L38.5 73.5V75L39 76L38 77L37 78.5L37.5 79.5L40 80L43 79L46 77L43.5 75.5Z" fill="#627B94"/>
<path d="M56.5 75.5L58 74L61 73L61.5 73.5V75L61 76L62 77L63 78.5L62.5 79.5L60 80L57 79L54 77L56.5 75.5Z" fill="#627B94"/>
<path d="M52 77L51 78.5L50 79.5V97.5L50.5 98L54 97L55 97.5L54.5 98.5L54 101H75.5L76 100.5V95.5L75.5 92L74.5 88.5L72.5 84L70 80L65 76.5L63.5 76L61.5 75L61 75.5L61.5 76.5L63 78L62.5 79.5L61.5 80L58.5 79.5L54 77.5L52 77Z" fill="#00D6AC"/>
<path d="M30 67L31.5 66H32L33 68.5L35 70.5L37 72L38.5 73V74.5H37.5L35.5 73.5L34.5 72L34 73.5L33 74H32L30.5 72.5L30 70.5V67Z" fill="#FFEA1B"/>
<path d="M30 67C29.5001 70.5 30.4 72.8468 32 73.7699C33.6 74.6931 34.5 73.154 34.5 72C34.5 72 36 74.5 38 74.5" stroke="black" stroke-linecap="round" stroke-linejoin="round"/>
<path d="M69.5 67L68 66H67.5L66.5 68.5L64.5 70.5L62.5 72L61 73L61.5 74L62 74.5L64 73.5L65 72L65.5 73.5L66.5 74H67.5L69 72.5L69.5 70.5V67Z" fill="#FFEA1B"/>
<path d="M69.5 67C69.9999 70.5 69.1 72.8468 67.5 73.7699C65.9 74.6931 65 73.154 65 72C65 72 63.5 74.5 61.5 74.5" stroke="black" stroke-linecap="round" stroke-linejoin="round"/>
<path d="M32.28 62C32.28 62 28.3422 74.5 50 74.5C71.6578 74.5 67.72 62 67.72 62" stroke="black" stroke-linecap="round"/>
<path d="M46 65C46 65 47 66 50 66C53 66 54 65 54 65" stroke="black" stroke-linecap="round"/>
<ellipse cx="38.0001" cy="67.8891" rx="2" ry="3.5" transform="rotate(-60 38.0001 67.8891)" fill="#FFB89B"/>
<ellipse cx="2" cy="3.5" rx="2" ry="3.5" transform="matrix(-0.5 -0.866025 -0.866025 0.5 65.8093 67.8711)" fill="#FFB89B"/>
<path d="M72 24.8871C72 26.325 69.1794 30.6388 67.7689 29.9198C66.3583 29.2009 67.0635 24.8871 68.4741 23.4492C69.5569 22.3454 72 23.4492 72 24.8871Z" fill="white" stroke="black"/>
<path d="M79.9046 30C78.1158 30 76.6748 31.3542 76.1779 32.0313C75.1841 30.6771 73.4205 28.7576 71.7056 31.3542C69.4697 34.7397 73.1962 35.4168 73.9419 33.3855C76.1779 36.771 78.7497 36.466 80.6499 34.7397C82.8859 32.7084 82.1406 30 79.9046 30Z" fill="white" stroke="black" stroke-linejoin="round"/>
<path d="M28 24.8871C28 26.325 30.8206 30.6388 32.2311 29.9198C33.6417 29.2009 32.9365 24.8871 31.5259 23.4492C30.4431 22.3454 28 23.4492 28 24.8871Z" fill="white" stroke="black"/>
<path d="M20.0954 30C21.8842 30 23.3252 31.3542 23.8221 32.0313C24.8159 30.6771 26.5795 28.7576 28.2944 31.3542C30.5303 34.7397 26.8038 35.4168 26.0581 33.3855C23.8221 36.771 21.2503 36.466 19.3501 34.7397C17.1141 32.7084 17.8594 30 20.0954 30Z" fill="white" stroke="black" stroke-linejoin="round"/>
<path d="M68 58.0766C68.5 56.5766 70.0408 54.5834 73 55.0766C75.9592 55.5698 77.0833 59.0766 76.5 62.5766C76.0833 65.0766 75 67.0766 72 67.0766C69.6819 67.0766 68 65.8502 68 64.5212" stroke="black" stroke-linecap="round"/>
<path d="M69 60.5766C70.5 58.5766 73 58.0766 75 60.0766" stroke="black" stroke-linecap="round"/>
<path d="M72 59.0766C73.5 60.5766 72.5 63.5766 71 64.0766" stroke="black" stroke-linecap="round"/>
<path d="M32 58.0766C31.5 56.5766 29.9592 54.5834 27 55.0766C24.0408 55.5698 22.9167 59.0766 23.5 62.5766C23.9167 65.0766 25 67.0766 28 67.0766C30.3181 67.0766 32 65.8502 32 64.5212" stroke="black" stroke-linecap="round"/>
<path d="M31 60.5766C29.5 58.5766 27 58.0766 25 60.0766" stroke="black" stroke-linecap="round"/>
<path d="M28 59.0766C26.5 60.5766 27.5 63.5766 29 64.0766" stroke="black" stroke-linecap="round"/>
<path d="M51 63.5C51 64.0523 50.5523 64.5 50 64.5C49.4477 64.5 49 64.0523 49 63.5C49 62.9477 49.4477 62 50 62C50.5523 62 51 62.9477 51 63.5Z" fill="black"/>
<path d="M41.6744 73.8548C42.6547 74.819 44.7645 76.8843 46.5 77C42.6915 79.1212 38.301 81.0116 37.1417 79.0375C36.3207 77.6392 38.7084 77.1573 38.9277 75.4026" stroke="black" stroke-linecap="round" stroke-linejoin="round"/>
<path d="M38.8337 72.9584C37.925 74.2118 38.5203 74.9325 39.335 75.9353" stroke="black" stroke-linecap="round" stroke-linejoin="round"/>
<path d="M58.2617 73.8548C57.2815 74.819 55.2355 76.8843 53.5 77C57.3085 79.1212 61.6352 81.0116 62.7944 79.0375C63.6155 77.6392 61.2278 77.1573 61.0085 75.4026" stroke="black" stroke-linecap="round" stroke-linejoin="round"/>
<path d="M61.1025 72.9584C62.0112 74.2118 61.4158 74.9325 60.6011 75.9353" stroke="black" stroke-linecap="round" stroke-linejoin="round"/>
<path d="M46.5 77C51 77 50 85.5 50 85.5C50 85.5 49 77 53.5 77" stroke="black" stroke-linecap="round" stroke-linejoin="round"/>
<path d="M61.85 75.5C72.85 77.5 76.85 92.5 75.85 100.5" stroke="black" stroke-linecap="round" stroke-linejoin="round"/>
<path d="M68.35 76.5L69.85 77.5L68.35 79.5L67.35 82L66.35 85.5V88.5L66.85 92L67.85 95L64.35 95.5L63.35 93L62.35 89V86.5L62.85 84L63.35 81.5L64.35 78.5L65.85 76.5L66.85 76L68.35 76.5Z" fill="#BD793A"/>
<path d="M69.85 80C71.85 78.5 68.7041 75.7044 66.778 76.0254C63.7779 76.5254 60.35 87.5002 64.35 95.5002" stroke="black"/>
<path d="M69.7779 77.5252C65.278 82.5252 65.85 91 67.35 93.5" stroke="black"/>
<path d="M68.7778 76.5252C64.2779 81.5252 63.778 91.5252 66.7779 95.0252" stroke="black"/>
<path d="M71.85 97C66.85 95 57.35 95.5 55.85 97C54.5851 98.2649 54.35 100 54.35 100.5" stroke="black" stroke-linecap="round" stroke-linejoin="round"/>
<path d="M66.35 95.5C66.85 94 67.35 92 69.85 90" stroke="black" stroke-linecap="round" stroke-linejoin="round"/>
<path d="M66.35 95.5C66.85 94 69.35 91.5 73.35 92" stroke="black" stroke-linecap="round" stroke-linejoin="round"/>
<path d="M66.35 95.5C66.85 95 68.85 93.5 70.85 94" stroke="black" stroke-linecap="round" stroke-linejoin="round"/>
<path d="M60.35 96C59.35 98 59.35 99.5 60.35 100.5" stroke="black" stroke-linecap="round" stroke-linejoin="round"/>
<path d="M38.1481 75.5C27.1481 77.5 23.1481 92.5 24.1481 100.5" stroke="black" stroke-linecap="round" stroke-linejoin="round"/>
<path d="M31.6481 76.5L30.1481 77.5L31.6481 79.5L32.6481 82L33.6481 85.5V88.5L33.1481 92L32.1481 95L35.6481 95.5L36.6481 93L37.6481 89V86.5L37.1481 84L36.6481 81.5L35.6481 78.5L34.1481 76.5L33.1481 76L31.6481 76.5Z" fill="#BD793A"/>
<path d="M30.1481 80C28.1481 78.5 31.294 75.7044 33.22 76.0254C36.2202 76.5254 39.648 87.5002 35.6481 95.5002" stroke="black"/>
<path d="M30.2201 77.5252C34.7201 82.5252 34.1481 91 32.6481 93.5" stroke="black"/>
<path d="M31.2202 76.5252C35.7202 81.5252 36.2201 91.5252 33.2202 95.0252" stroke="black"/>
<path d="M28.1481 97C33.1481 95 42.6481 95.5 44.1481 97C45.413 98.2649 45.6481 100 45.6481 100.5" stroke="black" stroke-linecap="round" stroke-linejoin="round"/>
<path d="M33.6481 95.5C33.1481 94 32.6481 92 30.1481 90" stroke="black" stroke-linecap="round" stroke-linejoin="round"/>
<path d="M33.6481 95.5C33.1481 94 30.6481 91.5 26.6481 92" stroke="black" stroke-linecap="round" stroke-linejoin="round"/>
<path d="M33.6481 95.5C33.1481 95 31.1481 93.5 29.1481 94" stroke="black" stroke-linecap="round" stroke-linejoin="round"/>
<path d="M39.6481 96C40.6481 98 40.6481 99.5 39.6481 100.5" stroke="black" stroke-linecap="round" stroke-linejoin="round"/>
<path d="M45 98C45 98 46.5581 96.8835 47.5 97.0932C48.6319 97.3452 48.9313 98 49.9997 98C51.0681 98 51.3679 97.3451 52.5 97.0932C53.4419 96.8836 55 98 55 98" stroke="black" stroke-linecap="round" stroke-linejoin="round"/>
<path d="M50 98V85" stroke="black" stroke-linecap="round" stroke-linejoin="round"/>
<path d="M50 79.5C49.4671 79.5 49.0122 79.8853 48.9246 80.411L48.6712 81.9314C48.5343 82.7525 49.1676 83.5 50 83.5C50.8324 83.5 51.4657 82.7525 51.3288 81.9314L51.0754 80.411C50.9878 79.8853 50.5329 79.5 50 79.5Z" fill="white" stroke="black"/>
<rect x="44" y="60" width="3" height="3" rx="1.5" fill="black"/>
<rect x="53" y="60" width="3" height="3" rx="1.5" fill="black"/>
<path d="M66 45C66 43.9443 65.8785 42.9431 65.6476 42M34 45C34 36.8947 41.1634 32 50 32C51.7461 32 53.4269 32.1911 55 32.5604M58.5 33.7599C60.4663 34.6769 62.1448 35.9362 63.4122 37.5" stroke="white" stroke-opacity="0.66" stroke-linecap="round" stroke-linejoin="round"/>
<path d="M69 46C69 36.0242 60.4934 30 50 30C39.5066 30 31 36.0242 31 46" stroke="black" stroke-linejoin="round"/>
<path d="M33.7225 41.4986C33.4586 42.3303 32.9805 42.9859 32.4444 43.3814C31.9078 43.7773 31.3483 43.8927 30.8699 43.7409C30.3916 43.5892 30.001 43.1723 29.7908 42.5394C29.5808 41.9072 29.5681 41.0959 29.832 40.2642C30.0959 39.4326 30.574 38.7769 31.1101 38.3815C31.6467 37.9856 32.2062 37.8702 32.6845 38.0219C33.1629 38.1737 33.5535 38.5906 33.7637 39.2234C33.9737 39.8556 33.9864 40.667 33.7225 41.4986Z" fill="#627B94" stroke="black"/>
<path d="M26.5198 55.0762L26.8399 54.6921L26.5198 55.0762C26.838 55.3413 27.311 55.2983 27.5761 54.9801C27.8413 54.6619 27.7983 54.189 27.4801 53.9238L27.16 54.3079L27.4801 53.9238C24.7467 51.646 24.164 48.2233 24.97 45.46C25.7865 42.6605 27.8987 40.8268 30.3766 41.2398C30.7852 41.3079 31.1716 41.0319 31.2397 40.6233C31.3078 40.2147 31.0318 39.8283 30.6232 39.7602C27.0995 39.1729 24.4628 41.8417 23.53 45.04C22.586 48.2764 23.2531 52.3539 26.5198 55.0762Z" fill="#00D6AC" stroke="black" stroke-linecap="round"/>
<path d="M66.2742 41.4986C66.5381 42.3303 67.0162 42.9859 67.5523 43.3814C68.0889 43.7773 68.6484 43.8927 69.1268 43.7409C69.6051 43.5892 69.9957 43.1723 70.2059 42.5394C70.4159 41.9072 70.4286 41.0959 70.1647 40.2642C69.9008 39.4326 69.4227 38.7769 68.8866 38.3815C68.35 37.9856 67.7905 37.8702 67.3122 38.0219C66.8338 38.1737 66.4432 38.5906 66.233 39.2234C66.023 39.8556 66.0104 40.667 66.2742 41.4986Z" fill="#627B94" stroke="black"/>
<path d="M73.4769 55.0762L73.1568 54.6921L73.4769 55.0762C73.1587 55.3413 72.6857 55.2983 72.4206 54.9801C72.1554 54.6619 72.1984 54.189 72.5166 53.9238L72.8367 54.3079L72.5166 53.9238C75.2501 51.646 75.8327 48.2233 75.0267 45.46C74.2102 42.6605 72.0981 40.8268 69.6201 41.2398C69.2115 41.3079 68.8251 41.0319 68.757 40.6233C68.6889 40.2147 68.9649 39.8283 69.3735 39.7602C72.8972 39.1729 75.5339 41.8417 76.4667 45.04C77.4107 48.2764 76.7436 52.3539 73.4769 55.0762Z" fill="#00D6AC" stroke="black" stroke-linecap="round"/>
<mask id="mask1_217_1458" style="mask-type:alpha" maskUnits="userSpaceOnUse" x="25" y="49" width="16" height="12">
<path d="M41 56L30.5 54L25.5 49.5L25 61H41V56Z" fill="#D9D9D9"/>
</mask>
<g mask="url(#mask1_217_1458)">
<path d="M26.5 56L28.5 53.5L29.5 53L34.5 52.5L39.5 50L40 50.5V52.5L39.5 54.5L38.5 56.5L37 57.5L35 58L33.5 57.5L33 55.5L32.5 57L32 58.5L30.5 60H29.5L29 59V58L28.5 57.5L27.5 58.5H26.5L26 58V57L26.5 56Z" fill="#FFEA1B"/>
<path d="M39.9997 50.5C39.9997 54 38.9999 56.5 36.9999 57.5C35.156 58.422 33 58.5 33 56C33 56 32.5 59.5 30 60C28.3554 60.3289 29 57 29 57C29 57 27 59.5 25.9999 58C25.1228 56.6845 28.5 52.5 29.4999 52.5" stroke="black" stroke-linecap="round" stroke-linejoin="round"/>
</g>
<mask id="mask2_217_1458" style="mask-type:alpha" maskUnits="userSpaceOnUse" x="59" y="49" width="16" height="12">
<path d="M59 56L69.5 54L74.5 49.5L75 61H59V56Z" fill="#D9D9D9"/>
</mask>
<g mask="url(#mask2_217_1458)">
<path d="M73.5 56L71.5 53.5L70.5 53L65.5 52.5L60.5 50L60 50.5V52.5L60.5 54.5L61.5 56.5L63 57.5L65 58L66.5 57.5L67 55.5L67.5 57L68 58.5L69.5 60H70.5L71 59V58L71.5 57.5L72.5 58.5H73.5L74 58V57L73.5 56Z" fill="#FFEA1B"/>
<path d="M60.0003 50.5C60.0003 54 61.0001 56.5 63.0001 57.5C64.844 58.422 67 58.5 67 56C67 56 67.5 59.5 70 60C71.6446 60.3289 71 57 71 57C71 57 73 59.5 74.0001 58C74.8772 56.6845 71.5 52.5 70.5001 52.5" stroke="black" stroke-linecap="round" stroke-linejoin="round"/>
</g>
<ellipse cx="50" cy="46" rx="19" ry="3" fill="#FFEA1B" stroke="black"/>
<path d="M31 50L28.5 48.5L28 50.5L29 53L30.5 54L34 55L39 55.5H41V55V53.5L40.5 52L39.5 51.5H37.5L34 51L31 50Z" fill="#627B94"/>
<path d="M28.5 48.5C31 50.5 35.75 51.4286 39.5 52C41.7243 52.3389 40.9375 54.7143 40.9375 56" stroke="black"/>
<circle cx="39.2278" cy="53.2354" r="0.5" fill="black"/>
<ellipse cx="29.8925" cy="52" rx="0.392456" ry="0.5" transform="rotate(-32.0079 29.8925 52)" fill="black"/>
<path d="M69 50L71.5 48.5L72 50.5L71 53L69.5 54L66 55L61 55.5H59V55V53.5L59.5 52L60.5 51.5H62.5L66 51L69 50Z" fill="#627B94"/>
<path d="M71.5 48.5C69 50.5 64.25 51.4286 60.5 52C58.2757 52.3389 59.0625 54.7143 59.0625 56" stroke="black"/>
<circle cx="0.5" cy="0.5" r="0.5" transform="matrix(-1 0 0 1 61.2722 52.7354)" fill="black"/>
<ellipse cx="0.392456" cy="0.5" rx="0.392456" ry="0.5" transform="matrix(-0.847975 -0.530035 -0.530035 0.847975 70.7053 51.784)" fill="black"/>
<path d="M30.8545 46C28 46 27.6159 51 28.7352 52.5385C29.9867 54.2585 36.57 56 50.0002 56C63.4305 56 70.0137 54.2586 71.265 52.5385C72.3841 51 72 46 69.1456 46" stroke="black"/>
<path d="M42 37C42 35.8954 42.8954 35 44 35H56C57.1046 35 58 35.8954 58 37V43C58 44.1046 57.1046 45 56 45H52L50.8321 46.7519C50.4362 47.3457 49.5638 47.3457 49.1679 46.7519L48 45H44C42.8954 45 42 44.1046 42 43V37Z" fill="white" stroke="black" stroke-linejoin="round"/>
<circle cx="46" cy="40" r="1" fill="black"/>
<circle cx="50" cy="40" r="1" fill="black"/>
<circle cx="54" cy="40" r="1" fill="black"/>
<path d="M43.9286 58.2448C45.7373 59.3538 48.3372 59.1006 47.9638 60.3855C47.5915 61.667 43.7705 60.6549 42.6747 59.9573C41.1301 58.9741 42.5332 57.3893 43.9286 58.2448Z" fill="#FFEA1B" stroke="black" stroke-linejoin="round"/>
<path d="M56.0714 58.2448C54.2627 59.3538 51.6628 59.1006 52.0362 60.3855C52.4085 61.667 56.2295 60.6549 57.3253 59.9573C58.8699 58.9741 57.4668 57.3893 56.0714 58.2448Z" fill="#FFEA1B" stroke="black" stroke-linejoin="round"/>
<path d="M38.7059 40.0744C39.5515 37.852 41.6657 36 43.7798 36C45.8939 36 45.753 36.7408 43.7798 38.5928C41.8067 40.4448 40.2281 41.9263 39.5516 41.9263C38.7059 41.9263 38.2831 41.1855 38.7059 40.0744Z" fill="white" fill-opacity="0.88"/>
<ellipse cx="37.5866" cy="44.9062" rx="1.06066" ry="1.90132" transform="rotate(17.6291 37.5866 44.9062)" fill="white" fill-opacity="0.88"/>
<path d="M50 34C42.268 34 36 38.3508 36 45.5556C36 45.5556 39.3158 47 50 47C60.6842 47 64 45.5556 64 45.5556C64 38.3508 57.732 34 50 34Z" fill="white" fill-opacity="0.44"/>
<path d="M29.5001 46.5C28 49 41.0001 51 50.0001 51C59.0001 51 71.5001 49 70.5001 46.5" stroke="black" stroke-linecap="round"/>
<path d="M26.9121 84.1003C27.2896 83.3343 27.3633 83.2734 27.3633 83.2734L26.3272 81.6525L24 80.5L21.5 80L19.5 81L18 83L17.5 84.5L16 84L13.5 84.5L10.5 86L9 88.5V92L10.5 95L12.5 96.5L14 97L17.5 97.5L19.5 97L21.5 97.5L23.5 98.5H26.5L29.5 98L32.5 97L35 94.5L36 95L39.5 96L43 95H45.5L47 93.5L46 92.5L43.5 92L41 91H39L37.5 90L34.5 89H32L29 90.5L27 89L25 88L25.736 86.7683C26.0331 85.9668 26.5481 84.8391 26.9121 84.1003Z" fill="white"/>
<path d="M33.8558 93.4134C37.014 96.9325 41.4537 95.818 43.1691 94.6981C44.5192 95.0657 47 95.1903 47 93.7305C47 92.2707 45.0856 91.9541 43.956 92.1746C43.3924 91.3663 41.4129 90.3454 39.3826 91.1575" stroke="black" stroke-linecap="round" stroke-linejoin="round"/>
<path d="M40.3242 92.6815C39.1495 90.442 34.1932 87.1012 29.2371 90.2217" stroke="black" stroke-linecap="round"/>
<path d="M30.208 92.1403C28.4912 88.7558 24.0278 86.2052 18.9264 88.7558" stroke="black" stroke-linecap="round"/>
<path d="M35.1132 94.5928C33.7887 96.8491 25.1558 102.196 17.4059 95.0833" stroke="black" stroke-linecap="round"/>
<path d="M19.1717 97.0453C15.7708 98.0263 9.36148 97.2906 9.01815 91.1593C8.62324 84.1069 14.7571 83.7363 17.602 84.4393C18.1906 80.0248 24.486 78.5643 27.6723 83.0375" stroke="black" stroke-linecap="round" stroke-linejoin="round"/>
<path d="M21.8204 83.8507C24.7635 84.145 25.4993 86.5975 25.4993 88.02" stroke="black" stroke-linecap="round"/>
<path d="M13.1214 92.9131C13.3109 94.358 14.7795 95.0121 15.3066 95.0121" stroke="black" stroke-linecap="round"/>
<path d="M73.0879 84.1003C72.7104 83.3343 72.6367 83.2734 72.6367 83.2734L73.6728 81.6525L76 80.5L78.5 80L80.5 81L82 83L82.5 84.5L84 84L86.5 84.5L89.5 86L91 88.5V92L89.5 95L87.5 96.5L86 97L82.5 97.5L80.5 97L78.5 97.5L76.5 98.5H73.5L70.5 98L67.5 97L65 94.5L64 95L60.5 96L57 95H54.5L53 93.5L54 92.5L56.5 92L59 91H61L62.5 90L65.5 89H68L71 90.5L73 89L75 88L74.264 86.7683C73.9669 85.9668 73.4519 84.8391 73.0879 84.1003Z" fill="white"/>
<path d="M66.1442 93.4134C62.986 96.9325 58.5463 95.818 56.8309 94.6981C55.4808 95.0657 53 95.1903 53 93.7305C53 92.2707 54.9144 91.9541 56.044 92.1746C56.6076 91.3663 58.5871 90.3454 60.6174 91.1575" stroke="black" stroke-linecap="round" stroke-linejoin="round"/>
<path d="M59.6758 92.6815C60.8505 90.442 65.8068 87.1012 70.7629 90.2217" stroke="black" stroke-linecap="round"/>
<path d="M69.792 92.1403C71.5088 88.7558 75.9722 86.2052 81.0736 88.7558" stroke="black" stroke-linecap="round"/>
<path d="M64.8868 94.5928C66.2113 96.8491 74.8442 102.196 82.5941 95.0833" stroke="black" stroke-linecap="round"/>
<path d="M80.8283 97.0453C84.2292 98.0263 90.6385 97.2906 90.9819 91.1593C91.3768 84.1069 85.2429 83.7363 82.398 84.4393C81.8094 80.0248 75.514 78.5643 72.3277 83.0375" stroke="black" stroke-linecap="round" stroke-linejoin="round"/>
<path d="M78.1796 83.8507C75.2365 84.145 74.5007 86.5975 74.5007 88.02" stroke="black" stroke-linecap="round"/>
<path d="M86.8786 92.9131C86.6891 94.358 85.2205 95.0121 84.6934 95.0121" stroke="black" stroke-linecap="round"/>
</g>
<path d="M25.888 14.604C25.912 14.652 25.924 14.696 25.924 14.736C25.924 14.808 25.896 14.872 25.84 14.928C25.792 14.976 25.732 15 25.66 15H23.2C23.056 15 22.94 14.968 22.852 14.904C22.772 14.832 22.716 14.756 22.684 14.676L21.652 12.384H21.16V14.676C21.16 14.764 21.128 14.84 21.064 14.904C21 14.968 20.924 15 20.836 15H18.484C18.396 15 18.32 14.968 18.256 14.904C18.192 14.84 18.16 14.764 18.16 14.676V6.924C18.16 6.836 18.192 6.76 18.256 6.696C18.32 6.632 18.396 6.6 18.484 6.6H22.036C23.188 6.6 24.088 6.86 24.736 7.38C25.384 7.892 25.708 8.604 25.708 9.516C25.708 10.036 25.592 10.496 25.36 10.896C25.128 11.288 24.812 11.612 24.412 11.868L25.888 14.604ZM22.036 10.104C22.212 10.104 22.348 10.048 22.444 9.936C22.54 9.816 22.588 9.668 22.588 9.492C22.588 9.316 22.54 9.164 22.444 9.036C22.356 8.9 22.22 8.832 22.036 8.832H21.16V10.104H22.036ZM29.7002 11.904H33.0362C33.1242 11.904 33.2002 11.872 33.2642 11.808C33.3282 11.744 33.3602 11.668 33.3602 11.58V10.02C33.3602 9.932 33.3282 9.856 33.2642 9.792C33.2002 9.728 33.1242 9.696 33.0362 9.696H29.7002V8.94H33.3002C33.3882 8.94 33.4642 8.908 33.5282 8.844C33.5922 8.78 33.6242 8.704 33.6242 8.616V6.924C33.6242 6.836 33.5922 6.76 33.5282 6.696C33.4642 6.632 33.3882 6.6 33.3002 6.6H27.1442C27.0562 6.6 26.9802 6.632 26.9162 6.696C26.8522 6.76 26.8202 6.836 26.8202 6.924V14.676C26.8202 14.764 26.8522 14.84 26.9162 14.904C26.9802 14.968 27.0562 15 27.1442 15H33.3962C33.4842 15 33.5602 14.968 33.6242 14.904C33.6882 14.84 33.7202 14.764 33.7202 14.676V12.984C33.7202 12.896 33.6882 12.82 33.6242 12.756C33.5602 12.692 33.4842 12.66 33.3962 12.66H29.7002V11.904ZM37.3801 6.996C37.3481 6.892 37.2881 6.8 37.2001 6.72C37.1121 6.64 36.9921 6.6 36.8401 6.6H34.6081C34.5361 6.6 34.4721 6.628 34.4161 6.684C34.3681 6.732 34.3441 6.792 34.3441 6.864L34.3561 6.948L36.6121 14.604C36.6441 14.708 36.7041 14.8 36.7921 14.88C36.8801 14.96 37.0001 15 37.1521 15H39.8881C40.0401 15 40.1601 14.96 40.2481 14.88C40.3361 14.8 40.3961 14.708 40.4281 14.604L42.6841 6.948L42.6961 6.864C42.6961 6.792 42.6681 6.732 42.6121 6.684C42.5641 6.628 42.5041 6.6 42.4321 6.6H40.2001C40.0481 6.6 39.9281 6.64 39.8401 6.72C39.7521 6.8 39.6921 6.892 39.6601 6.996L38.5201 11.46L37.3801 6.996ZM43.8551 15C43.7671 15 43.6911 14.968 43.6271 14.904C43.5631 14.84 43.5311 14.764 43.5311 14.676V6.924C43.5311 6.836 43.5631 6.76 43.6271 6.696C43.6911 6.632 43.7671 6.6 43.8551 6.6H46.3031C46.3911 6.6 46.4671 6.632 46.5311 6.696C46.5951 6.76 46.6271 6.836 46.6271 6.924V14.676C46.6271 14.764 46.5951 14.84 46.5311 14.904C46.4671 14.968 46.3911 15 46.3031 15H43.8551ZM50.8291 11.904H54.1651C54.2531 11.904 54.3291 11.872 54.3931 11.808C54.4571 11.744 54.4891 11.668 54.4891 11.58V10.02C54.4891 9.932 54.4571 9.856 54.3931 9.792C54.3291 9.728 54.2531 9.696 54.1651 9.696H50.8291V8.94H54.4291C54.5171 8.94 54.5931 8.908 54.6571 8.844C54.7211 8.78 54.7531 8.704 54.7531 8.616V6.924C54.7531 6.836 54.7211 6.76 54.6571 6.696C54.5931 6.632 54.5171 6.6 54.4291 6.6H48.2731C48.1851 6.6 48.1091 6.632 48.0451 6.696C47.9811 6.76 47.9491 6.836 47.9491 6.924V14.676C47.9491 14.764 47.9811 14.84 48.0451 14.904C48.1091 14.968 48.1851 15 48.2731 15H54.5251C54.6131 15 54.6891 14.968 54.7531 14.904C54.8171 14.84 54.8491 14.764 54.8491 14.676V12.984C54.8491 12.896 54.8171 12.82 54.7531 12.756C54.6891 12.692 54.6131 12.66 54.5251 12.66H50.8291V11.904ZM61.413 14.676C61.445 14.748 61.497 14.82 61.569 14.892C61.649 14.964 61.761 15 61.905 15H63.621C63.773 15 63.897 14.956 63.993 14.868C64.097 14.772 64.157 14.664 64.173 14.544L65.277 6.9V6.864C65.277 6.792 65.249 6.732 65.193 6.684C65.145 6.628 65.085 6.6 65.013 6.6H62.781C62.637 6.6 62.529 6.624 62.457 6.672C62.393 6.72 62.357 6.804 62.349 6.924L61.941 10.296L61.449 8.808C61.369 8.576 61.233 8.46 61.041 8.46H59.817C59.625 8.46 59.489 8.576 59.409 8.808L58.917 10.308L58.509 6.924C58.501 6.804 58.461 6.72 58.389 6.672C58.325 6.624 58.221 6.6 58.077 6.6H55.845C55.773 6.6 55.709 6.628 55.653 6.684C55.605 6.732 55.581 6.792 55.581 6.864V6.9L56.685 14.544C56.701 14.664 56.757 14.772 56.853 14.868C56.957 14.956 57.085 15 57.237 15H58.953C59.097 15 59.205 14.964 59.277 14.892C59.357 14.82 59.413 14.748 59.445 14.676L60.429 12.216L61.413 14.676ZM69.1103 11.904H72.4463C72.5343 11.904 72.6103 11.872 72.6743 11.808C72.7383 11.744 72.7703 11.668 72.7703 11.58V10.02C72.7703 9.932 72.7383 9.856 72.6743 9.792C72.6103 9.728 72.5343 9.696 72.4463 9.696H69.1103V8.94H72.7103C72.7983 8.94 72.8743 8.908 72.9383 8.844C73.0023 8.78 73.0343 8.704 73.0343 8.616V6.924C73.0343 6.836 73.0023 6.76 72.9383 6.696C72.8743 6.632 72.7983 6.6 72.7103 6.6H66.5543C66.4663 6.6 66.3903 6.632 66.3263 6.696C66.2623 6.76 66.2303 6.836 66.2303 6.924V14.676C66.2303 14.764 66.2623 14.84 66.3263 14.904C66.3903 14.968 66.4663 15 66.5543 15H72.8063C72.8943 15 72.9703 14.968 73.0343 14.904C73.0983 14.84 73.1303 14.764 73.1303 14.676V12.984C73.1303 12.896 73.0983 12.82 73.0343 12.756C72.9703 12.692 72.8943 12.66 72.8063 12.66H69.1103V11.904ZM81.9622 14.604C81.9862 14.652 81.9982 14.696 81.9982 14.736C81.9982 14.808 81.9702 14.872 81.9142 14.928C81.8662 14.976 81.8062 15 81.7342 15H79.2742C79.1302 15 79.0142 14.968 78.9262 14.904C78.8462 14.832 78.7902 14.756 78.7582 14.676L77.7262 12.384H77.2342V14.676C77.2342 14.764 77.2022 14.84 77.1382 14.904C77.0742 14.968 76.9982 15 76.9102 15H74.5582C74.4702 15 74.3942 14.968 74.3302 14.904C74.2662 14.84 74.2342 14.764 74.2342 14.676V6.924C74.2342 6.836 74.2662 6.76 74.3302 6.696C74.3942 6.632 74.4702 6.6 74.5582 6.6H78.1102C79.2622 6.6 80.1622 6.86 80.8102 7.38C81.4582 7.892 81.7822 8.604 81.7822 9.516C81.7822 10.036 81.6662 10.496 81.4342 10.896C81.2022 11.288 80.8862 11.612 80.4862 11.868L81.9622 14.604ZM78.1102 10.104C78.2862 10.104 78.4222 10.048 78.5182 9.936C78.6142 9.816 78.6622 9.668 78.6622 9.492C78.6622 9.316 78.6142 9.164 78.5182 9.036C78.4302 8.9 78.2942 8.832 78.1102 8.832H77.2342V10.104H78.1102Z" fill="white"/>
</svg>
