<svg width="7" height="12" viewBox="0 0 7 12" fill="none" xmlns="http://www.w3.org/2000/svg">
<path fill-rule="evenodd" clip-rule="evenodd" d="M6.28821 5.21696C6.29009 5.21882 6.29198 5.22069 6.29385 5.22257C6.32087 5.24958 6.34633 5.27757 6.37024 5.30641C6.76111 5.77784 6.73571 6.47816 6.29403 6.91984C6.28789 6.92597 6.2817 6.93203 6.27547 6.93801L2.33406 10.8794C1.86543 11.348 1.10563 11.348 0.637 10.8794C0.168371 10.4108 0.168371 9.65099 0.637001 9.18236L3.74825 6.07111L0.637178 2.96004C0.168548 2.49141 0.168548 1.73161 0.637177 1.26298C1.10581 0.794352 1.8656 0.794352 2.33423 1.26298L6.28821 5.21696Z" fill="white" fill-opacity="0.33"/>
</svg>
