<svg width="564" height="150" viewBox="0 0 564 150" fill="none" xmlns="http://www.w3.org/2000/svg">
<g id="A DAO for Project Review">
<path d="M16.2501 58.0925H0L18.3084 2.60116H38.8919L57.2003 58.0925H40.9502L28.8168 17.8829H28.3835L16.2501 58.0925ZM13.2167 36.1994H43.7669V47.4711H13.2167V36.1994Z" fill="white"/>
<path d="M99.0781 58.0925H77.7364V2.60116H98.8615C104.567 2.60116 109.496 3.71207 113.649 5.93389C117.82 8.13764 121.034 11.3168 123.291 15.4715C125.566 19.608 126.703 24.5665 126.703 30.3468C126.703 36.1272 125.575 41.0946 123.318 45.2493C121.061 49.3858 117.865 52.565 113.73 54.7868C109.596 56.9906 104.712 58.0925 99.0781 58.0925ZM92.7948 45.3035H98.5365C101.281 45.3035 103.619 44.8609 105.551 43.9758C107.501 43.0907 108.982 41.5643 109.993 39.3967C111.022 37.229 111.537 34.2124 111.537 30.3468C111.537 26.4812 111.013 23.4646 109.966 21.297C108.937 19.1293 107.42 17.603 105.416 16.7178C103.43 15.8327 100.992 15.3902 98.1031 15.3902H92.7948V45.3035Z" fill="white"/>
<path d="M144.578 58.0925H128.328L146.637 2.60116H167.22L185.529 58.0925H169.279L157.145 17.8829H156.712L144.578 58.0925ZM141.545 36.1994H172.095V47.4711H141.545V36.1994Z" fill="white"/>
<path d="M241.998 30.3468C241.998 36.5246 240.797 41.7359 238.396 45.9809C235.994 50.2077 232.753 53.414 228.673 55.5997C224.592 57.7673 220.042 58.8512 215.023 58.8512C209.967 58.8512 205.399 57.7583 201.318 55.5726C197.256 53.3689 194.024 50.1535 191.622 45.9267C189.239 41.6817 188.047 36.4884 188.047 30.3468C188.047 24.1691 189.239 18.9668 191.622 14.7399C194.024 10.4949 197.256 7.28866 201.318 5.12103C205.399 2.93533 209.967 1.84249 215.023 1.84249C220.042 1.84249 224.592 2.93533 228.673 5.12103C232.753 7.28866 235.994 10.4949 238.396 14.7399C240.797 18.9668 241.998 24.1691 241.998 30.3468ZM226.506 30.3468C226.506 27.0231 226.064 24.2233 225.179 21.9473C224.312 19.6532 223.021 17.9191 221.306 16.7449C219.609 15.5527 217.514 14.9566 215.023 14.9566C212.531 14.9566 210.427 15.5527 208.712 16.7449C207.015 17.9191 205.724 19.6532 204.839 21.9473C203.972 24.2233 203.539 27.0231 203.539 30.3468C203.539 33.6705 203.972 36.4794 204.839 38.7735C205.724 41.0495 207.015 42.7836 208.712 43.9758C210.427 45.1499 212.531 45.737 215.023 45.737C217.514 45.737 219.609 45.1499 221.306 43.9758C223.021 42.7836 224.312 41.0495 225.179 38.7735C226.064 36.4794 226.506 33.6705 226.506 30.3468Z" fill="white"/>
<path d="M289.292 16.474V27.3121H261.45V16.474H289.292ZM266.759 58.0925V15.2818C266.759 11.8497 267.373 9.0047 268.6 6.74675C269.828 4.4888 271.562 2.79986 273.8 1.67991C276.039 0.559971 278.676 0 281.709 0C283.605 0 285.446 0.144509 287.234 0.433529C289.039 0.722547 290.376 0.975436 291.242 1.1922L289.076 11.922C288.534 11.7594 287.902 11.6329 287.18 11.5426C286.457 11.4342 285.826 11.3801 285.284 11.3801C283.876 11.3801 282.928 11.6781 282.44 12.2742C281.953 12.8703 281.709 13.6561 281.709 14.6315V58.0925H266.759Z" fill="white"/>
<path d="M313.837 58.8512C309.323 58.8512 305.459 57.957 302.245 56.1687C299.031 54.3624 296.566 51.8515 294.851 48.6362C293.136 45.4028 292.278 41.6546 292.278 37.3916C292.278 33.1286 293.136 29.3895 294.851 26.1741C296.566 22.9408 299.031 20.4299 302.245 18.6416C305.459 16.8353 309.323 15.9321 313.837 15.9321C318.351 15.9321 322.214 16.8353 325.428 18.6416C328.642 20.4299 331.107 22.9408 332.822 26.1741C334.537 29.3895 335.395 33.1286 335.395 37.3916C335.395 41.6546 334.537 45.4028 332.822 48.6362C331.107 51.8515 328.642 54.3624 325.428 56.1687C322.214 57.957 318.351 58.8512 313.837 58.8512ZM313.945 47.7962C315.209 47.7962 316.301 47.3717 317.222 46.5228C318.143 45.6738 318.856 44.4635 319.362 42.892C319.867 41.3204 320.12 39.4509 320.12 37.2832C320.12 35.0975 319.867 33.228 319.362 31.6745C318.856 30.103 318.143 28.8927 317.222 28.0437C316.301 27.1947 315.209 26.7702 313.945 26.7702C312.609 26.7702 311.462 27.1947 310.505 28.0437C309.548 28.8927 308.817 30.103 308.312 31.6745C307.806 33.228 307.553 35.0975 307.553 37.2832C307.553 39.4509 307.806 41.3204 308.312 42.892C308.817 44.4635 309.548 45.6738 310.505 46.5228C311.462 47.3717 312.609 47.7962 313.945 47.7962Z" fill="white"/>
<path d="M341.462 58.0925V16.474H355.979V24.3858H356.412C357.17 21.4595 358.371 19.319 360.014 17.9642C361.675 16.6095 363.616 15.9321 365.837 15.9321C366.487 15.9321 367.128 15.9863 367.76 16.0947C368.41 16.185 369.033 16.3204 369.629 16.5011V29.263C368.888 29.0101 367.976 28.8204 366.893 28.694C365.81 28.5676 364.88 28.5043 364.104 28.5043C362.641 28.5043 361.323 28.8385 360.149 29.5069C358.994 30.1572 358.082 31.0784 357.414 32.2706C356.746 33.4447 356.412 34.8266 356.412 36.4162V58.0925H341.462Z" fill="white"/>
<path d="M1.84168 134.393V78.9017H25.7835C29.9002 78.9017 33.5023 79.7146 36.5898 81.3403C39.6773 82.966 42.0787 85.2511 43.794 88.1954C45.5093 91.1398 46.3669 94.5809 46.3669 98.5188C46.3669 102.493 45.4822 105.934 43.7127 108.842C41.9613 111.75 39.4967 113.99 36.319 115.562C33.1592 117.133 29.4668 117.919 25.2418 117.919H10.9417V106.214H22.2085C23.9779 106.214 25.4856 105.907 26.7314 105.293C27.9953 104.66 28.9613 103.766 29.6293 102.61C30.3154 101.454 30.6585 100.09 30.6585 98.5188C30.6585 96.9292 30.3154 95.5744 29.6293 94.4545C28.9613 93.3165 27.9953 92.4494 26.7314 91.8533C25.4856 91.2392 23.9779 90.9321 22.2085 90.9321H16.9001V134.393H1.84168Z" fill="white"/>
<path d="M52.1086 134.393V92.7746H66.6254V100.686H67.0587C67.817 97.7601 69.0177 95.6196 70.6608 94.2648C72.3219 92.91 74.2629 92.2327 76.4838 92.2327C77.1338 92.2327 77.7747 92.2869 78.4067 92.3952C79.0567 92.4855 79.6796 92.621 80.2754 92.8017V105.564C79.5352 105.311 78.6234 105.121 77.54 104.995C76.4567 104.868 75.5268 104.805 74.7504 104.805C73.2879 104.805 71.9698 105.139 70.7962 105.807C69.6407 106.458 68.7289 107.379 68.0608 108.571C67.3927 109.745 67.0587 111.127 67.0587 112.717V134.393H52.1086Z" fill="white"/>
<path d="M102.836 135.152C98.3221 135.152 94.4582 134.258 91.2443 132.469C88.0303 130.663 85.5657 128.152 83.8505 124.937C82.1352 121.703 81.2775 117.955 81.2775 113.692C81.2775 109.429 82.1352 105.69 83.8505 102.475C85.5657 99.2413 88.0303 96.7305 91.2443 94.9422C94.4582 93.1358 98.3221 92.2327 102.836 92.2327C107.35 92.2327 111.214 93.1358 114.428 94.9422C117.642 96.7305 120.106 99.2413 121.822 102.475C123.537 105.69 124.394 109.429 124.394 113.692C124.394 117.955 123.537 121.703 121.822 124.937C120.106 128.152 117.642 130.663 114.428 132.469C111.214 134.258 107.35 135.152 102.836 135.152ZM102.944 124.097C104.208 124.097 105.301 123.672 106.221 122.823C107.142 121.974 107.855 120.764 108.361 119.193C108.867 117.621 109.119 115.751 109.119 113.584C109.119 111.398 108.867 109.529 108.361 107.975C107.855 106.404 107.142 105.193 106.221 104.344C105.301 103.495 104.208 103.071 102.944 103.071C101.608 103.071 100.462 103.495 99.5047 104.344C98.5478 105.193 97.8165 106.404 97.311 107.975C96.8054 109.529 96.5526 111.398 96.5526 113.584C96.5526 115.751 96.8054 117.621 97.311 119.193C97.8165 120.764 98.5478 121.974 99.5047 122.823C100.462 123.672 101.608 124.097 102.944 124.097Z" fill="white"/>
<path d="M130.461 92.7746H145.411V135.802C145.411 139.451 144.644 142.305 143.109 144.364C141.592 146.423 139.462 147.878 136.717 148.727C133.973 149.576 130.768 150 127.103 150C126.561 150 126.065 149.991 125.613 149.973C125.144 149.955 124.629 149.928 124.069 149.892V138.837C124.431 138.873 124.747 138.9 125.017 138.918C125.27 138.936 125.532 138.945 125.803 138.945C127.59 138.945 128.809 138.665 129.459 138.105C130.127 137.563 130.461 136.687 130.461 135.477V92.7746ZM137.936 88.4393C135.914 88.4393 134.181 87.771 132.736 86.4343C131.292 85.0975 130.569 83.4899 130.569 81.6113C130.569 79.7327 131.292 78.125 132.736 76.7883C134.181 75.4516 135.914 74.7832 137.936 74.7832C139.976 74.7832 141.71 75.4516 143.136 76.7883C144.581 78.125 145.303 79.7327 145.303 81.6113C145.303 83.4899 144.581 85.0975 143.136 86.4343C141.71 87.771 139.976 88.4393 137.936 88.4393Z" fill="white"/>
<path d="M172.962 135.152C168.52 135.152 164.692 134.303 161.478 132.605C158.283 130.889 155.818 128.432 154.085 125.235C152.369 122.02 151.512 118.172 151.512 113.692C151.512 109.393 152.378 105.636 154.112 102.421C155.845 99.2052 158.292 96.7034 161.451 94.9151C164.611 93.1268 168.34 92.2327 172.637 92.2327C175.779 92.2327 178.622 92.7204 181.168 93.6958C183.714 94.6712 185.89 96.0892 187.695 97.9498C189.501 99.7923 190.891 102.032 191.866 104.669C192.841 107.307 193.329 110.278 193.329 113.584V117.052H156.17V108.815H179.57C179.552 107.623 179.245 106.575 178.649 105.672C178.072 104.751 177.286 104.037 176.293 103.531C175.318 103.008 174.208 102.746 172.962 102.746C171.752 102.746 170.642 103.008 169.631 103.531C168.62 104.037 167.807 104.742 167.193 105.645C166.597 106.548 166.281 107.605 166.245 108.815V117.702C166.245 119.039 166.525 120.231 167.085 121.279C167.645 122.327 168.448 123.148 169.495 123.745C170.542 124.341 171.806 124.639 173.287 124.639C174.316 124.639 175.255 124.494 176.104 124.205C176.97 123.916 177.711 123.501 178.324 122.959C178.938 122.399 179.39 121.73 179.679 120.954H193.329C192.859 123.844 191.749 126.355 189.997 128.486C188.246 130.6 185.926 132.243 183.037 133.418C180.166 134.574 176.808 135.152 172.962 135.152Z" fill="white"/>
<path d="M219.471 135.152C214.957 135.152 211.093 134.258 207.879 132.469C204.665 130.663 202.201 128.152 200.485 124.937C198.77 121.703 197.913 117.955 197.913 113.692C197.913 109.429 198.77 105.69 200.485 102.475C202.201 99.2413 204.665 96.7305 207.879 94.9422C211.093 93.1358 214.957 92.2327 219.471 92.2327C223.552 92.2327 227.081 92.9733 230.061 94.4545C233.058 95.9176 235.378 97.9949 237.021 100.686C238.664 103.36 239.495 106.503 239.513 110.116H225.646C225.447 107.93 224.815 106.268 223.75 105.13C222.703 103.974 221.349 103.396 219.688 103.396C218.388 103.396 217.25 103.775 216.275 104.534C215.3 105.275 214.542 106.404 214 107.921C213.458 109.42 213.188 111.308 213.188 113.584C213.188 115.86 213.458 117.756 214 119.274C214.542 120.773 215.3 121.902 216.275 122.661C217.25 123.401 218.388 123.772 219.688 123.772C220.789 123.772 221.764 123.519 222.613 123.013C223.461 122.489 224.147 121.73 224.671 120.737C225.213 119.725 225.538 118.497 225.646 117.052H239.513C239.459 120.719 238.619 123.916 236.994 126.644C235.369 129.353 233.067 131.449 230.088 132.93C227.127 134.411 223.588 135.152 219.471 135.152Z" fill="white"/>
<path d="M270.49 92.7746V103.613H243.081V92.7746H270.49ZM248.389 82.8035H263.339V121.008C263.339 121.586 263.439 122.074 263.637 122.471C263.836 122.85 264.143 123.139 264.558 123.338C264.974 123.519 265.506 123.609 266.156 123.609C266.608 123.609 267.131 123.555 267.727 123.447C268.341 123.338 268.792 123.248 269.081 123.176L271.248 133.689C270.58 133.887 269.623 134.131 268.377 134.42C267.149 134.709 265.687 134.899 263.989 134.989C260.559 135.17 257.679 134.818 255.35 133.932C253.021 133.029 251.269 131.611 250.096 129.678C248.922 127.746 248.353 125.325 248.389 122.417V82.8035Z" fill="white"/>
<path d="M291.567 134.393V78.9017H315.509C319.626 78.9017 323.228 79.6514 326.315 81.1506C329.403 82.6499 331.804 84.8085 333.52 87.6264C335.235 90.4444 336.092 93.8223 336.092 97.7601C336.092 101.734 335.208 105.085 333.438 107.812C331.687 110.54 329.222 112.599 326.045 113.99C322.885 115.381 319.192 116.077 314.967 116.077H300.667V104.371H311.934C313.703 104.371 315.211 104.155 316.457 103.721C317.721 103.27 318.687 102.556 319.355 101.581C320.041 100.605 320.384 99.3316 320.384 97.7601C320.384 96.1705 320.041 94.879 319.355 93.8855C318.687 92.8739 317.721 92.1333 316.457 91.6637C315.211 91.1759 313.703 90.9321 311.934 90.9321H306.626V134.393H291.567ZM324.067 108.923L337.934 134.393H321.576L308.034 108.923H324.067Z" fill="white"/>
<path d="M361.768 135.152C357.326 135.152 353.498 134.303 350.284 132.605C347.088 130.889 344.624 128.432 342.89 125.235C341.175 122.02 340.317 118.172 340.317 113.692C340.317 109.393 341.184 105.636 342.918 102.421C344.651 99.2052 347.097 96.7034 350.257 94.9151C353.417 93.1268 357.145 92.2327 361.443 92.2327C364.584 92.2327 367.428 92.7204 369.974 93.6958C372.52 94.6712 374.695 96.0892 376.501 97.9498C378.307 99.7923 379.697 102.032 380.672 104.669C381.647 107.307 382.134 110.278 382.134 113.584V117.052H344.976V108.815H368.376C368.358 107.623 368.051 106.575 367.455 105.672C366.877 104.751 366.092 104.037 365.099 103.531C364.124 103.008 363.013 102.746 361.768 102.746C360.558 102.746 359.447 103.008 358.436 103.531C357.425 104.037 356.613 104.742 355.999 105.645C355.403 106.548 355.087 107.605 355.051 108.815V117.702C355.051 119.039 355.331 120.231 355.891 121.279C356.45 122.327 357.254 123.148 358.301 123.745C359.348 124.341 360.612 124.639 362.093 124.639C363.122 124.639 364.061 124.494 364.909 124.205C365.776 123.916 366.516 123.501 367.13 122.959C367.744 122.399 368.195 121.73 368.484 120.954H382.134C381.665 123.844 380.555 126.355 378.803 128.486C377.052 130.6 374.732 132.243 371.843 133.418C368.972 134.574 365.613 135.152 361.768 135.152Z" fill="white"/>
<path d="M429.117 92.7746L415.142 134.393H397.809L383.834 92.7746H399.542L406.259 120.303H406.692L413.409 92.7746H429.117Z" fill="white"/>
<path d="M433.37 134.393V92.7746H448.32V134.393H433.37ZM440.845 88.4393C438.822 88.4393 437.089 87.771 435.645 86.4343C434.2 85.0975 433.478 83.4899 433.478 81.6113C433.478 79.7327 434.2 78.125 435.645 76.7883C437.089 75.4516 438.822 74.7832 440.845 74.7832C442.885 74.7832 444.618 75.4516 446.045 76.7883C447.489 78.125 448.211 79.7327 448.211 81.6113C448.211 83.4899 447.489 85.0975 446.045 86.4343C444.618 87.771 442.885 88.4393 440.845 88.4393Z" fill="white"/>
<path d="M475.87 135.152C471.429 135.152 467.601 134.303 464.387 132.605C461.191 130.889 458.727 128.432 456.993 125.235C455.278 122.02 454.42 118.172 454.42 113.692C454.42 109.393 455.287 105.636 457.02 102.421C458.754 99.2052 461.2 96.7034 464.36 94.9151C467.52 93.1268 471.248 92.2327 475.545 92.2327C478.687 92.2327 481.531 92.7204 484.077 93.6958C486.622 94.6712 488.798 96.0892 490.604 97.9498C492.409 99.7923 493.8 102.032 494.775 104.669C495.75 107.307 496.237 110.278 496.237 113.584V117.052H459.079V108.815H482.479C482.461 107.623 482.154 106.575 481.558 105.672C480.98 104.751 480.195 104.037 479.202 103.531C478.227 103.008 477.116 102.746 475.87 102.746C474.661 102.746 473.55 103.008 472.539 103.531C471.528 104.037 470.715 104.742 470.102 105.645C469.506 106.548 469.19 107.605 469.154 108.815V117.702C469.154 119.039 469.434 120.231 469.993 121.279C470.553 122.327 471.356 123.148 472.404 123.745C473.451 124.341 474.715 124.639 476.195 124.639C477.224 124.639 478.163 124.494 479.012 124.205C479.879 123.916 480.619 123.501 481.233 122.959C481.847 122.399 482.298 121.73 482.587 120.954H496.237C495.768 123.844 494.657 126.355 492.906 128.486C491.154 130.6 488.834 132.243 485.945 133.418C483.075 134.574 479.716 135.152 475.87 135.152Z" fill="white"/>
<path d="M509.183 134.393L498.783 92.7746H513.733L518.5 118.136H518.825L524.133 92.7746H538.65L544.175 117.919H544.5L549.05 92.7746H564L553.6 134.393H537.458L531.608 112.066H531.175L525.325 134.393H509.183Z" fill="white"/>
</g>
</svg>
