<svg width="20" height="20" viewBox="0 0 20 20" fill="none" xmlns="http://www.w3.org/2000/svg">
<g id="Group 43">
<circle id="Ellipse 14" cx="10" cy="10" r="7" stroke="white" stroke-width="2"/>
<path id="Ellipse 15" d="M12 10C12 12.121 11.6759 13.9966 11.185 15.3057C10.9381 15.964 10.6683 16.4272 10.4195 16.7079C10.1696 16.9898 10.0255 17 10 17C9.97447 17 9.83042 16.9898 9.58052 16.7079C9.33166 16.4272 9.06185 15.964 8.81501 15.3057C8.32409 13.9966 8 12.121 8 10C8 7.87903 8.32409 6.0034 8.81501 4.69427C9.06185 4.03602 9.33166 3.57279 9.58052 3.29209C9.83042 3.01022 9.97447 3 10 3C10.0255 3 10.1696 3.01022 10.4195 3.29209C10.6683 3.57279 10.9381 4.03602 11.185 4.69427C11.6759 6.0034 12 7.87903 12 10Z" stroke="white" stroke-width="2"/>
<path id="Vector 20" d="M3.5 10H16.5" stroke="white" stroke-width="2" stroke-linecap="square" stroke-linejoin="round"/>
</g>
</svg>
